<?xml version="1.0" encoding="UTF-8"?>
<svg xmlns="http://www.w3.org/2000/svg" xmlns:xlink="http://www.w3.org/1999/xlink" width="1200" height="800" viewBox="0 0 1200 800">
<defs>
<g>
<g id="glyph-0-0-0ae0bead">
<path d="M 8.984375 -12.625 C 5.375 -12.578125 4.28125 -10.921875 4.28125 -7.609375 C 4.28125 -7.609375 4.28125 0 4.28125 0 C 4.28125 0 1.953125 0 1.953125 0 C 1.953125 0 1.953125 -14.671875 1.953125 -14.671875 C 1.953125 -14.671875 4.09375 -14.671875 4.09375 -14.671875 C 4.09375 -14.671875 4.09375 -12.015625 4.09375 -12.015625 C 5.4375 -14.203125 6.578125 -15.09375 8.09375 -15.09375 C 8.40625 -15.09375 8.59375 -15.0625 8.984375 -15.015625 C 8.984375 -15.015625 8.984375 -12.625 8.984375 -12.625 Z M 8.984375 -12.625 "/>
</g>
<g id="glyph-1-0-0ae0bead">
<path d="M 12.171875 -8.1875 C 12.171875 -2.59375 10.203125 0.359375 6.59375 0.359375 C 2.953125 0.359375 1.03125 -2.59375 1.03125 -8.328125 C 1.03125 -14.046875 2.921875 -17.015625 6.59375 -17.015625 C 10.296875 -17.015625 12.171875 -14.09375 12.171875 -8.1875 Z M 10.015625 -8.375 C 10.015625 -12.9375 8.875 -15.140625 6.59375 -15.140625 C 4.3125 -15.140625 3.1875 -12.953125 3.1875 -8.296875 C 3.1875 -3.640625 4.3125 -1.390625 6.546875 -1.390625 C 8.90625 -1.390625 10.015625 -3.546875 10.015625 -8.375 Z M 10.015625 -8.375 "/>
</g>
<g id="glyph-2-0-0ae0bead">
<path d="M 4.578125 0 C 4.578125 0 2.09375 0 2.09375 0 C 2.09375 0 2.09375 -2.5 2.09375 -2.5 C 2.09375 -2.5 4.578125 -2.5 4.578125 -2.5 C 4.578125 -2.5 4.578125 0 4.578125 0 Z M 4.578125 0 "/>
</g>
<g id="glyph-2-1-0ae0bead">
<path d="M 12.171875 -8.1875 C 12.171875 -2.59375 10.203125 0.359375 6.59375 0.359375 C 2.953125 0.359375 1.03125 -2.59375 1.03125 -8.328125 C 1.03125 -14.046875 2.921875 -17.015625 6.59375 -17.015625 C 10.296875 -17.015625 12.171875 -14.09375 12.171875 -8.1875 Z M 10.015625 -8.375 C 10.015625 -12.9375 8.875 -15.140625 6.59375 -15.140625 C 4.3125 -15.140625 3.1875 -12.953125 3.1875 -8.296875 C 3.1875 -3.640625 4.3125 -1.390625 6.546875 -1.390625 C 8.90625 -1.390625 10.015625 -3.546875 10.015625 -8.375 Z M 10.015625 -8.375 "/>
</g>
<g id="glyph-3-0-0ae0bead">
<path d="M 12.171875 -8.1875 C 12.171875 -2.59375 10.203125 0.359375 6.59375 0.359375 C 2.953125 0.359375 1.03125 -2.59375 1.03125 -8.328125 C 1.03125 -14.046875 2.921875 -17.015625 6.59375 -17.015625 C 10.296875 -17.015625 12.171875 -14.09375 12.171875 -8.1875 Z M 10.015625 -8.375 C 10.015625 -12.9375 8.875 -15.140625 6.59375 -15.140625 C 4.3125 -15.140625 3.1875 -12.953125 3.1875 -8.296875 C 3.1875 -3.640625 4.3125 -1.390625 6.546875 -1.390625 C 8.90625 -1.390625 10.015625 -3.546875 10.015625 -8.375 Z M 10.015625 -8.375 "/>
</g>
<g id="glyph-3-1-0ae0bead">
<path d="M 4.578125 0 C 4.578125 0 2.09375 0 2.09375 0 C 2.09375 0 2.09375 -2.5 2.09375 -2.5 C 2.09375 -2.5 4.578125 -2.5 4.578125 -2.5 C 4.578125 -2.5 4.578125 0 4.578125 0 Z M 4.578125 0 "/>
</g>
<g id="glyph-3-2-0ae0bead">
<path d="M 12.3125 -5.640625 C 12.3125 -2.046875 9.90625 0.359375 6.484375 0.359375 C 3.453125 0.359375 1.53125 -0.984375 0.84375 -4.375 C 0.84375 -4.375 2.953125 -4.375 2.953125 -4.375 C 3.453125 -2.453125 4.578125 -1.515625 6.4375 -1.515625 C 8.734375 -1.515625 10.15625 -2.90625 10.15625 -5.359375 C 10.15625 -7.875 8.71875 -9.34375 6.4375 -9.34375 C 5.109375 -9.34375 4.296875 -8.921875 3.3125 -7.75 C 3.3125 -7.75 1.375 -7.75 1.375 -7.75 C 1.375 -7.75 2.640625 -16.65625 2.640625 -16.65625 C 2.640625 -16.65625 11.421875 -16.65625 11.421875 -16.65625 C 11.421875 -16.65625 11.421875 -14.5625 11.421875 -14.5625 C 11.421875 -14.5625 4.34375 -14.5625 4.34375 -14.5625 C 4.34375 -14.5625 3.671875 -10.171875 3.671875 -10.171875 C 4.65625 -10.890625 5.609375 -11.203125 6.8125 -11.203125 C 10.078125 -11.203125 12.3125 -9 12.3125 -5.640625 Z M 12.3125 -5.640625 "/>
</g>
<g id="glyph-3-3-0ae0bead">
<path d="M 8.328125 0 C 8.328125 0 6.21875 0 6.21875 0 C 6.21875 0 6.21875 -12.125 6.21875 -12.125 C 6.21875 -12.125 2.453125 -12.125 2.453125 -12.125 C 2.453125 -12.125 2.453125 -13.625 2.453125 -13.625 C 5.71875 -14.046875 6.1875 -14.40625 6.9375 -17.015625 C 6.9375 -17.015625 8.328125 -17.015625 8.328125 -17.015625 C 8.328125 -17.015625 8.328125 0 8.328125 0 Z M 8.328125 0 "/>
</g>
<g id="glyph-4-0-0ae0bead">
<path d="M 0 -18.09375 C 0 -18.09375 0 -15.140625 0 -15.140625 C 0 -15.140625 -16.546875 -4.59375 -16.546875 -4.59375 C -16.546875 -4.59375 0 -4.59375 0 -4.59375 C 0 -4.59375 0 -2.125 0 -2.125 C 0 -2.125 -20.40625 -2.125 -20.40625 -2.125 C -20.40625 -2.125 -20.40625 -4.953125 -20.40625 -4.953125 C -20.40625 -4.953125 -3.71875 -15.625 -3.71875 -15.625 C -3.71875 -15.625 -20.40625 -15.625 -20.40625 -15.625 C -20.40625 -15.625 -20.40625 -18.09375 -20.40625 -18.09375 C -20.40625 -18.09375 0 -18.09375 0 -18.09375 Z M 0 -18.09375 "/>
</g>
<g id="glyph-5-0-0ae0bead">
<path d="M 12.265625 -12.03125 C 12.265625 -9.9375 11.046875 -8.15625 8.65625 -6.890625 C 8.65625 -6.890625 6.265625 -5.59375 6.265625 -5.59375 C 4.171875 -4.375 3.40625 -3.484375 3.1875 -2.09375 C 3.1875 -2.09375 12.140625 -2.09375 12.140625 -2.09375 C 12.140625 -2.09375 12.140625 0 12.140625 0 C 12.140625 0 0.8125 0 0.8125 0 C 1.015625 -3.75 2.046875 -5.359375 5.59375 -7.375 C 5.59375 -7.375 7.796875 -8.609375 7.796875 -8.609375 C 9.3125 -9.484375 10.109375 -10.625 10.109375 -11.96875 C 10.109375 -13.796875 8.65625 -15.171875 6.75 -15.171875 C 4.65625 -15.171875 3.484375 -13.96875 3.3125 -11.109375 C 3.3125 -11.109375 1.203125 -11.109375 1.203125 -11.109375 C 1.3125 -15.234375 3.34375 -17.015625 6.8125 -17.015625 C 10.03125 -17.015625 12.265625 -14.90625 12.265625 -12.03125 Z M 12.265625 -12.03125 "/>
</g>
<g id="glyph-5-1-0ae0bead">
<path d="M 12.484375 -4.078125 C 12.484375 -4.078125 9.953125 -4.078125 9.953125 -4.078125 C 9.953125 -4.078125 9.953125 0 9.953125 0 C 9.953125 0 7.84375 0 7.84375 0 C 7.84375 0 7.84375 -4.078125 7.84375 -4.078125 C 7.84375 -4.078125 0.671875 -4.078125 0.671875 -4.078125 C 0.671875 -4.078125 0.671875 -6.3125 0.671875 -6.3125 C 0.671875 -6.3125 8.40625 -17.015625 8.40625 -17.015625 C 8.40625 -17.015625 9.953125 -17.015625 9.953125 -17.015625 C 9.953125 -17.015625 9.953125 -5.96875 9.953125 -5.96875 C 9.953125 -5.96875 12.484375 -5.96875 12.484375 -5.96875 C 12.484375 -5.96875 12.484375 -4.078125 12.484375 -4.078125 Z M 7.84375 -5.96875 C 7.84375 -5.96875 7.84375 -13.421875 7.84375 -13.421875 C 7.84375 -13.421875 2.515625 -5.96875 2.515625 -5.96875 C 2.515625 -5.96875 7.84375 -5.96875 7.84375 -5.96875 Z M 7.84375 -5.96875 "/>
</g>
<g id="glyph-6-0-0ae0bead">
<path d="M 12.171875 -8.1875 C 12.171875 -2.59375 10.203125 0.359375 6.59375 0.359375 C 2.953125 0.359375 1.03125 -2.59375 1.03125 -8.328125 C 1.03125 -14.046875 2.921875 -17.015625 6.59375 -17.015625 C 10.296875 -17.015625 12.171875 -14.09375 12.171875 -8.1875 Z M 10.015625 -8.375 C 10.015625 -12.9375 8.875 -15.140625 6.59375 -15.140625 C 4.3125 -15.140625 3.1875 -12.953125 3.1875 -8.296875 C 3.1875 -3.640625 4.3125 -1.390625 6.546875 -1.390625 C 8.90625 -1.390625 10.015625 -3.546875 10.015625 -8.375 Z M 10.015625 -8.375 "/>
</g>
<g id="glyph-7-0-0ae0bead">
<path d="M 23.15625 -12.40625 C 23.15625 -8.5625 22.0625 -5.203125 20.125 -2.890625 C 18.421875 -0.890625 16.078125 0 12.3125 0 C 12.3125 0 2.625 0 2.625 0 C 2.625 0 2.625 -24.78125 2.625 -24.78125 C 2.625 -24.78125 12.3125 -24.78125 12.3125 -24.78125 C 16.109375 -24.78125 18.46875 -23.9375 20.125 -21.9375 C 22.09375 -19.578125 23.15625 -16.21875 23.15625 -12.40625 Z M 18.046875 -12.375 C 18.046875 -17.84375 16.15625 -20.53125 12.3125 -20.53125 C 12.3125 -20.53125 7.71875 -20.53125 7.71875 -20.53125 C 7.71875 -20.53125 7.71875 -4.25 7.71875 -4.25 C 7.71875 -4.25 12.3125 -4.25 12.3125 -4.25 C 16.15625 -4.25 18.046875 -6.9375 18.046875 -12.375 Z M 18.046875 -12.375 "/>
</g>
<g id="glyph-7-1-0ae0bead">
<path d="M 22.640625 -7.140625 C 22.640625 -3.0625 19.71875 0 13.9375 0 C 13.9375 0 2.78125 0 2.78125 0 C 2.78125 0 2.78125 -24.78125 2.78125 -24.78125 C 2.78125 -24.78125 13.84375 -24.78125 13.84375 -24.78125 C 19 -24.78125 21.9375 -21.765625 21.9375 -18.265625 C 21.9375 -16.15625 20.984375 -14.71875 18.53125 -13.15625 C 21.3125 -11.53125 22.640625 -9.59375 22.640625 -7.140625 Z M 17.03125 -17.71875 C 17.03125 -19.546875 15.78125 -20.53125 13.4375 -20.53125 C 13.4375 -20.53125 7.890625 -20.53125 7.890625 -20.53125 C 7.890625 -20.53125 7.890625 -14.921875 7.890625 -14.921875 C 7.890625 -14.921875 13.4375 -14.921875 13.4375 -14.921875 C 15.78125 -14.921875 17.03125 -15.90625 17.03125 -17.71875 Z M 17.75 -7.453125 C 17.75 -9.546875 16.453125 -10.671875 13.96875 -10.671875 C 13.96875 -10.671875 7.890625 -10.671875 7.890625 -10.671875 C 7.890625 -10.671875 7.890625 -4.25 7.890625 -4.25 C 7.890625 -4.25 13.96875 -4.25 13.96875 -4.25 C 16.453125 -4.25 17.75 -5.375 17.75 -7.453125 Z M 17.75 -7.453125 "/>
</g>
<g id="glyph-7-2-0ae0bead">
<path d="M 17.546875 -13.09375 C 17.546875 -4.5625 14.71875 0.3125 8.671875 0.3125 C 4.515625 0.3125 1.390625 -2.40625 1.296875 -6.125 C 1.296875 -6.125 5.875 -6.125 5.875 -6.125 C 5.984375 -4.6875 7.140625 -3.78125 8.8125 -3.78125 C 11.484375 -3.78125 12.78125 -6.046875 12.78125 -10.640625 C 11.125 -8.765625 10.296875 -8.265625 8.15625 -8.265625 C 3.875 -8.265625 0.953125 -11.421875 0.953125 -16.390625 C 0.953125 -21.421875 4.25 -24.609375 9.078125 -24.609375 C 14.015625 -24.609375 17.546875 -21.515625 17.546875 -13.09375 Z M 12.6875 -16.390625 C 12.6875 -19.203125 11.25 -20.734375 8.9375 -20.734375 C 6.828125 -20.734375 5.46875 -19.25 5.46875 -16.453125 C 5.46875 -13.703125 6.828125 -12.203125 9.015625 -12.203125 C 11.1875 -12.203125 12.6875 -13.734375 12.6875 -16.390625 Z M 12.6875 -16.390625 "/>
</g>
<g id="glyph-7-3-0ae0bead">
<path d="M 17.578125 -12 C 17.578125 -2.484375 14.171875 0.3125 9.28125 0.3125 C 2.3125 0.3125 0.984375 -5.40625 0.984375 -12.140625 C 0.984375 -19.078125 2.375 -24.609375 9.28125 -24.609375 C 16.359375 -24.609375 17.578125 -18.84375 17.578125 -12 Z M 12.8125 -12.109375 C 12.8125 -19.578125 11.625 -20.78125 9.28125 -20.78125 C 6.734375 -20.78125 5.75 -19.171875 5.75 -12.171875 C 5.75 -5 6.875 -3.78125 9.28125 -3.78125 C 11.828125 -3.78125 12.8125 -5.34375 12.8125 -12.109375 Z M 12.8125 -12.109375 "/>
</g>
<g id="glyph-7-4-0ae0bead">
<path d="M 13.265625 -17.578125 C 13.265625 -14.25 10.40625 -11.453125 7 -11.453125 C 3.5625 -11.453125 0.75 -14.25 0.75 -17.640625 C 0.75 -21.046875 3.5625 -23.828125 7 -23.828125 C 10.5 -23.828125 13.265625 -21.078125 13.265625 -17.578125 Z M 9.890625 -17.609375 C 9.890625 -19.203125 8.609375 -20.46875 7 -20.46875 C 5.40625 -20.46875 4.109375 -19.171875 4.109375 -17.640625 C 4.109375 -16.078125 5.40625 -14.796875 7 -14.796875 C 8.5625 -14.796875 9.890625 -16.078125 9.890625 -17.609375 Z M 23.53125 -24.109375 C 23.53125 -24.109375 10.09375 0.6875 10.09375 0.6875 C 10.09375 0.6875 6.453125 0.6875 6.453125 0.6875 C 6.453125 0.6875 19.921875 -24.109375 19.921875 -24.109375 C 19.921875 -24.109375 23.53125 -24.109375 23.53125 -24.109375 Z M 29.34375 -5.671875 C 29.34375 -2.34375 26.484375 0.4375 23.09375 0.4375 C 19.65625 0.4375 16.828125 -2.34375 16.828125 -5.78125 C 16.828125 -9.1875 19.65625 -11.96875 23.09375 -11.96875 C 26.59375 -11.96875 29.34375 -9.21875 29.34375 -5.671875 Z M 25.96875 -5.71875 C 25.96875 -7.3125 24.6875 -8.609375 23.09375 -8.609375 C 21.484375 -8.609375 20.203125 -7.3125 20.203125 -5.75 C 20.203125 -4.1875 21.484375 -2.890625 23.09375 -2.890625 C 24.65625 -2.890625 25.96875 -4.1875 25.96875 -5.71875 Z M 25.96875 -5.71875 "/>
</g>
<g id="glyph-7-5-0ae0bead">
<path d="M 23.296875 -8.46875 C 22.984375 -2.78125 18.875 0.40625 12.71875 0.40625 C 5.8125 0.40625 1.5 -4.421875 1.5 -12.375 C 1.5 -20.40625 5.84375 -25.1875 12.859375 -25.1875 C 18.421875 -25.1875 22.75 -22.09375 23.1875 -16.390625 C 23.1875 -16.390625 18.328125 -16.390625 18.328125 -16.390625 C 17.578125 -19.578125 15.78125 -20.84375 13.015625 -20.84375 C 9.015625 -20.84375 6.59375 -17.78125 6.59375 -12.3125 C 6.59375 -6.90625 8.90625 -3.875 12.859375 -3.875 C 16.015625 -3.875 18.015625 -5.296875 18.328125 -8.46875 C 18.328125 -8.46875 23.296875 -8.46875 23.296875 -8.46875 Z M 23.296875 -8.46875 "/>
</g>
<g id="glyph-8-0-0ae0bead">
<path d="M 17.8125 0 C 17.8125 0 12.640625 0 12.640625 0 C 12.203125 -0.546875 12.109375 -1.359375 12.109375 -2.3125 C 10.4375 -0.578125 8.5625 0.3125 6.53125 0.3125 C 3.46875 0.3125 0.953125 -1.390625 0.953125 -4.96875 C 0.953125 -8.296875 2.71875 -9.859375 6.359375 -10.5 C 6.359375 -10.5 8.265625 -10.84375 8.265625 -10.84375 C 10.640625 -11.25 12.0625 -11.046875 12.0625 -12.984375 C 12.0625 -14.21875 11.15625 -14.828125 9.3125 -14.828125 C 6.96875 -14.828125 6.1875 -14.21875 5.953125 -12.3125 C 5.953125 -12.3125 1.359375 -12.3125 1.359375 -12.3125 C 1.671875 -16.5625 4.25 -18.671875 9.21875 -18.671875 C 14.171875 -18.671875 16.734375 -16.765625 16.734375 -13.015625 C 16.734375 -13.015625 16.734375 -2.828125 16.734375 -2.828125 C 16.734375 -1.875 16.96875 -1.359375 17.8125 -0.578125 C 17.8125 -0.578125 17.8125 0 17.8125 0 Z M 12.0625 -7.859375 C 12.0625 -7.859375 12.0625 -8.671875 12.0625 -8.671875 C 11.53125 -8.390625 11.328125 -8.328125 10.0625 -8.09375 C 10.0625 -8.09375 8.4375 -7.78125 8.4375 -7.78125 C 6.453125 -7.40625 5.71875 -6.90625 5.71875 -5.515625 C 5.71875 -4.140625 6.703125 -3.53125 8.296875 -3.53125 C 10.703125 -3.53125 12.0625 -5.09375 12.0625 -7.859375 Z M 12.0625 -7.859375 "/>
</g>
<g id="glyph-9-0-0ae0bead">
<path d="M 18.296875 -18.359375 C 18.296875 -18.359375 10.75 3.359375 10.75 3.359375 C 9.484375 6.875 7.8125 7.453125 4.625 7.453125 C 4.046875 7.453125 3.640625 7.40625 2.921875 7.3125 C 2.921875 7.3125 2.921875 3.734375 2.921875 3.734375 C 3.53125 3.90625 3.8125 3.9375 4.1875 3.9375 C 5.84375 3.9375 7.140625 2.625 7.140625 0.890625 C 7.140625 0.890625 7.140625 0.78125 7.140625 0.78125 C 7.140625 0.78125 0.3125 -18.359375 0.3125 -18.359375 C 0.3125 -18.359375 5.546875 -18.359375 5.546875 -18.359375 C 5.546875 -18.359375 9.59375 -5 9.59375 -5 C 9.59375 -5 13.390625 -18.359375 13.390625 -18.359375 C 13.390625 -18.359375 18.296875 -18.359375 18.296875 -18.359375 Z M 18.296875 -18.359375 "/>
</g>
<g id="glyph-9-1-0ae0bead">
<path d="M 17.8125 0 C 17.8125 0 12.640625 0 12.640625 0 C 12.203125 -0.546875 12.109375 -1.359375 12.109375 -2.3125 C 10.4375 -0.578125 8.5625 0.3125 6.53125 0.3125 C 3.46875 0.3125 0.953125 -1.390625 0.953125 -4.96875 C 0.953125 -8.296875 2.71875 -9.859375 6.359375 -10.5 C 6.359375 -10.5 8.265625 -10.84375 8.265625 -10.84375 C 10.640625 -11.25 12.0625 -11.046875 12.0625 -12.984375 C 12.0625 -14.21875 11.15625 -14.828125 9.3125 -14.828125 C 6.96875 -14.828125 6.1875 -14.21875 5.953125 -12.3125 C 5.953125 -12.3125 1.359375 -12.3125 1.359375 -12.3125 C 1.671875 -16.5625 4.25 -18.671875 9.21875 -18.671875 C 14.171875 -18.671875 16.734375 -16.765625 16.734375 -13.015625 C 16.734375 -13.015625 16.734375 -2.828125 16.734375 -2.828125 C 16.734375 -1.875 16.96875 -1.359375 17.8125 -0.578125 C 17.8125 -0.578125 17.8125 0 17.8125 0 Z M 12.0625 -7.859375 C 12.0625 -7.859375 12.0625 -8.671875 12.0625 -8.671875 C 11.53125 -8.390625 11.328125 -8.328125 10.0625 -8.09375 C 10.0625 -8.09375 8.4375 -7.78125 8.4375 -7.78125 C 6.453125 -7.40625 5.71875 -6.90625 5.71875 -5.515625 C 5.71875 -4.140625 6.703125 -3.53125 8.296875 -3.53125 C 10.703125 -3.53125 12.0625 -5.09375 12.0625 -7.859375 Z M 12.0625 -7.859375 "/>
</g>
<g id="glyph-9-2-0ae0bead">
</g>
<g id="glyph-9-3-0ae0bead">
<path d="M 7.28125 0 C 7.28125 0 2.171875 0 2.171875 0 C 2.171875 0 2.171875 -4.96875 2.171875 -4.96875 C 2.171875 -4.96875 7.28125 -4.96875 7.28125 -4.96875 C 7.28125 -4.96875 7.28125 0 7.28125 0 Z M 7.28125 0 "/>
</g>
<g id="glyph-9-4-0ae0bead">
<path d="M 19.6875 0 C 19.6875 0 2.71875 0 2.71875 0 C 2.71875 0 2.71875 -24.78125 2.71875 -24.78125 C 2.71875 -24.78125 7.8125 -24.78125 7.8125 -24.78125 C 7.8125 -24.78125 7.8125 -4.25 7.8125 -4.25 C 7.8125 -4.25 19.6875 -4.25 19.6875 -4.25 C 19.6875 -4.25 19.6875 0 19.6875 0 Z M 19.6875 0 "/>
</g>
<g id="glyph-9-5-0ae0bead">
<path d="M 17.84375 -8.5 C 17.84375 -8.5 17.8125 -7.921875 17.8125 -7.921875 C 17.8125 -7.921875 5.515625 -7.921875 5.515625 -7.921875 C 5.640625 -4.359375 7.078125 -3.328125 9.3125 -3.328125 C 11.046875 -3.328125 12.546875 -3.84375 12.953125 -5.171875 C 12.953125 -5.171875 17.640625 -5.171875 17.640625 -5.171875 C 16.59375 -1.5625 13.265625 0.3125 9.140625 0.3125 C 3.9375 0.3125 0.75 -3.0625 0.75 -8.9375 C 0.75 -15.09375 3.984375 -18.671875 9.25 -18.671875 C 14.65625 -18.671875 17.84375 -14.828125 17.84375 -8.5 Z M 12.890625 -11.078125 C 12.640625 -13.703125 11.21875 -15.03125 9.1875 -15.03125 C 7.078125 -15.03125 5.875 -13.640625 5.578125 -11.078125 C 5.578125 -11.078125 12.890625 -11.078125 12.890625 -11.078125 Z M 12.890625 -11.078125 "/>
</g>
<g id="glyph-9-6-0ae0bead">
<path d="M 18.1875 0 C 18.1875 0 12.484375 0 12.484375 0 C 12.484375 0 9.390625 -5.71875 9.390625 -5.71875 C 9.390625 -5.71875 6.25 0 6.25 0 C 6.25 0 0.546875 0 0.546875 0 C 0.546875 0 6.65625 -9.25 6.65625 -9.25 C 6.65625 -9.25 0.6875 -18.359375 0.6875 -18.359375 C 0.6875 -18.359375 6.390625 -18.359375 6.390625 -18.359375 C 6.390625 -18.359375 9.390625 -12.8125 9.390625 -12.8125 C 9.390625 -12.8125 12.34375 -18.359375 12.34375 -18.359375 C 12.34375 -18.359375 18.046875 -18.359375 18.046875 -18.359375 C 18.046875 -18.359375 12.0625 -9.25 12.0625 -9.25 C 12.0625 -9.25 18.1875 0 18.1875 0 Z M 18.1875 0 "/>
</g>
<g id="glyph-9-7-0ae0bead">
<path d="M 18.390625 0.609375 C 18.390625 4.9375 15.203125 7.40625 9.65625 7.40625 C 4.625 7.40625 1.59375 5.203125 1.53125 2.203125 C 1.53125 2.203125 6.453125 2.203125 6.453125 2.203125 C 6.828125 3.609375 8.03125 4.359375 9.828125 4.359375 C 12.203125 4.359375 13.875 2.828125 13.875 0.609375 C 13.875 0.609375 13.875 -2.109375 13.875 -2.109375 C 12.109375 -0.34375 10.8125 0.3125 8.671875 0.3125 C 4.140625 0.3125 1.15625 -3.265625 1.15625 -8.96875 C 1.15625 -14.65625 4.421875 -18.671875 8.765625 -18.671875 C 10.875 -18.671875 12.4375 -17.71875 13.875 -15.53125 C 13.875 -15.53125 13.875 -18.359375 13.875 -18.359375 C 13.875 -18.359375 18.390625 -18.359375 18.390625 -18.359375 C 18.390625 -18.359375 18.390625 0.609375 18.390625 0.609375 Z M 13.9375 -9.046875 C 13.9375 -12.4375 12.171875 -14.6875 9.796875 -14.6875 C 7.484375 -14.6875 5.921875 -12.515625 5.921875 -9.046875 C 5.921875 -5.71875 7.484375 -3.671875 9.71875 -3.671875 C 12.203125 -3.671875 13.9375 -5.71875 13.9375 -9.046875 Z M 13.9375 -9.046875 "/>
</g>
<g id="glyph-9-8-0ae0bead">
<path d="M 7.03125 0 C 7.03125 0 2.28125 0 2.28125 0 C 2.28125 0 2.28125 -18.359375 2.28125 -18.359375 C 2.28125 -18.359375 7.03125 -18.359375 7.03125 -18.359375 C 7.03125 -18.359375 7.03125 0 7.03125 0 Z M 7.109375 -20.5625 C 7.109375 -20.5625 2.34375 -20.5625 2.34375 -20.5625 C 2.34375 -20.5625 2.34375 -25.328125 2.34375 -25.328125 C 2.34375 -25.328125 7.109375 -25.328125 7.109375 -25.328125 C 7.109375 -25.328125 7.109375 -20.5625 7.109375 -20.5625 Z M 7.109375 -20.5625 "/>
</g>
<g id="glyph-9-9-0ae0bead">
<path d="M 19.34375 -9.046875 C 19.34375 -3.15625 15.84375 0.3125 10.265625 0.3125 C 4.625 0.3125 1.1875 -3.125 1.1875 -9.1875 C 1.1875 -15.203125 4.625 -18.671875 10.234375 -18.671875 C 15.984375 -18.671875 19.34375 -15.265625 19.34375 -9.046875 Z M 14.59375 -9.109375 C 14.59375 -12.71875 12.890625 -14.828125 10.265625 -14.828125 C 7.6875 -14.828125 5.953125 -12.6875 5.953125 -9.1875 C 5.953125 -5.671875 7.6875 -3.53125 10.265625 -3.53125 C 12.8125 -3.53125 14.59375 -5.671875 14.59375 -9.109375 Z M 14.59375 -9.109375 "/>
</g>
<g id="glyph-9-10-0ae0bead">
<path d="M 18.5625 0 C 18.5625 0 13.796875 0 13.796875 0 C 13.796875 0 13.796875 -11.328125 13.796875 -11.328125 C 13.796875 -13.5 12.78125 -14.625 10.75 -14.625 C 8.4375 -14.625 6.90625 -13.1875 6.90625 -11.015625 C 6.90625 -11.015625 6.90625 0 6.90625 0 C 6.90625 0 2.140625 0 2.140625 0 C 2.140625 0 2.140625 -18.359375 2.140625 -18.359375 C 2.140625 -18.359375 6.90625 -18.359375 6.90625 -18.359375 C 6.90625 -18.359375 6.90625 -15.703125 6.90625 -15.703125 C 8.265625 -17.75 9.921875 -18.671875 12.40625 -18.671875 C 16.3125 -18.671875 18.5625 -16.359375 18.5625 -12.3125 C 18.5625 -12.3125 18.5625 0 18.5625 0 Z M 18.5625 0 "/>
</g>
<g id="glyph-9-11-0ae0bead">
<path d="M 17.6875 -5.4375 C 17.6875 -1.734375 14.828125 0.3125 9.65625 0.3125 C 4.078125 0.3125 1.125 -1.796875 0.984375 -5.8125 C 0.984375 -5.8125 5.640625 -5.8125 5.640625 -5.8125 C 6.046875 -3.84375 7.203125 -3.4375 9.390625 -3.4375 C 11.59375 -3.4375 12.921875 -3.875 12.921875 -5 C 12.921875 -5.515625 12.515625 -5.875 11.328125 -6.25 C 11.328125 -6.25 5.640625 -8.03125 5.640625 -8.03125 C 2.25 -9.078125 1.625 -10.296875 1.625 -12.546875 C 1.625 -16.3125 4.515625 -18.671875 9.1875 -18.671875 C 14.109375 -18.671875 17.109375 -16.3125 17.171875 -12.4375 C 17.171875 -12.4375 12.578125 -12.4375 12.578125 -12.4375 C 12.546875 -14.109375 11.421875 -14.921875 9.140625 -14.921875 C 7.484375 -14.921875 6.390625 -14.25 6.390625 -13.21875 C 6.390625 -12.484375 6.734375 -12.171875 8.0625 -11.796875 C 8.0625 -11.796875 14.078125 -10.0625 14.078125 -10.0625 C 16.484375 -9.34375 17.6875 -7.78125 17.6875 -5.671875 C 17.6875 -5.671875 17.6875 -5.4375 17.6875 -5.4375 Z M 17.6875 -5.4375 "/>
</g>
<g id="glyph-9-12-0ae0bead">
<path d="M 12.578125 -13.796875 C 11.9375 -13.90625 11.59375 -13.9375 11.078125 -13.9375 C 8.296875 -13.9375 6.90625 -12.546875 6.90625 -9.765625 C 6.90625 -9.765625 6.90625 0 6.90625 0 C 6.90625 0 2.140625 0 2.140625 0 C 2.140625 0 2.140625 -18.359375 2.140625 -18.359375 C 2.140625 -18.359375 6.90625 -18.359375 6.90625 -18.359375 C 6.90625 -18.359375 6.90625 -14.75 6.90625 -14.75 C 7.921875 -17.234375 9.828125 -18.671875 12 -18.671875 C 12.140625 -18.671875 12.3125 -18.671875 12.578125 -18.625 C 12.578125 -18.625 12.578125 -13.796875 12.578125 -13.796875 Z M 12.578125 -13.796875 "/>
</g>
<g id="glyph-9-13-0ae0bead">
<path d="M 10.640625 -14.828125 C 10.640625 -14.828125 7.8125 -14.828125 7.8125 -14.828125 C 7.8125 -14.828125 7.8125 0 7.8125 0 C 7.8125 0 3.0625 0 3.0625 0 C 3.0625 0 3.0625 -14.828125 3.0625 -14.828125 C 3.0625 -14.828125 0.46875 -14.828125 0.46875 -14.828125 C 0.46875 -14.828125 0.46875 -17.984375 0.46875 -17.984375 C 0.46875 -17.984375 3.0625 -17.984375 3.0625 -17.984375 C 3.0625 -17.984375 3.0625 -20.203125 3.0625 -20.203125 C 3.0625 -23.296875 4.59375 -24.78125 7.75 -24.78125 C 8.390625 -24.78125 9.59375 -24.75 10.46875 -24.6875 C 10.46875 -24.6875 10.46875 -21.109375 10.46875 -21.109375 C 10.0625 -21.1875 9.515625 -21.21875 9.109375 -21.21875 C 8.234375 -21.21875 7.8125 -20.734375 7.8125 -19.78125 C 7.8125 -19.78125 7.8125 -17.984375 7.8125 -17.984375 C 7.8125 -17.984375 10.640625 -17.984375 10.640625 -17.984375 C 10.640625 -17.984375 10.640625 -14.828125 10.640625 -14.828125 Z M 10.640625 -14.828125 "/>
</g>
<g id="glyph-9-14-0ae0bead">
<path d="M 10.234375 0 C 9.390625 0.03125 8.53125 0.140625 7.484375 0.140625 C 4.359375 0.140625 2.828125 -1.046875 2.828125 -3.9375 C 2.828125 -3.9375 2.828125 -14.828125 2.828125 -14.828125 C 2.828125 -14.828125 0.46875 -14.828125 0.46875 -14.828125 C 0.46875 -14.828125 0.46875 -17.984375 0.46875 -17.984375 C 0.46875 -17.984375 2.828125 -17.984375 2.828125 -17.984375 C 2.828125 -17.984375 2.828125 -22.921875 2.828125 -22.921875 C 2.828125 -22.921875 7.578125 -22.921875 7.578125 -22.921875 C 7.578125 -22.921875 7.578125 -17.984375 7.578125 -17.984375 C 7.578125 -17.984375 10.234375 -17.984375 10.234375 -17.984375 C 10.234375 -17.984375 10.234375 -14.828125 10.234375 -14.828125 C 10.234375 -14.828125 7.578125 -14.828125 7.578125 -14.828125 C 7.578125 -14.828125 7.578125 -5.234375 7.578125 -5.234375 C 7.578125 -3.609375 7.890625 -3.234375 9.140625 -3.234375 C 9.484375 -3.234375 9.765625 -3.265625 10.234375 -3.328125 C 10.234375 -3.328125 10.234375 0 10.234375 0 Z M 10.234375 0 "/>
</g>
<g id="glyph-9-15-0ae0bead">
<path d="M 18.5625 6.796875 C 18.5625 6.796875 13.796875 6.796875 13.796875 6.796875 C 13.796875 6.796875 13.796875 -11.328125 13.796875 -11.328125 C 13.796875 -13.5 12.78125 -14.625 10.75 -14.625 C 8.4375 -14.625 6.90625 -13.1875 6.90625 -11.015625 C 6.90625 -11.015625 6.90625 0 6.90625 0 C 6.90625 0 2.140625 0 2.140625 0 C 2.140625 0 2.140625 -18.359375 2.140625 -18.359375 C 2.140625 -18.359375 6.90625 -18.359375 6.90625 -18.359375 C 6.90625 -18.359375 6.90625 -15.703125 6.90625 -15.703125 C 8.265625 -17.75 9.921875 -18.671875 12.40625 -18.671875 C 16.3125 -18.671875 18.5625 -16.359375 18.5625 -12.3125 C 18.5625 -12.3125 18.5625 6.796875 18.5625 6.796875 Z M 18.5625 6.796875 "/>
</g>
<g id="glyph-9-16-0ae0bead">
<path d="M 10.125 -7.03125 C 10.125 -7.03125 0.890625 -7.03125 0.890625 -7.03125 C 0.890625 -7.03125 0.890625 -11.625 0.890625 -11.625 C 0.890625 -11.625 10.125 -11.625 10.125 -11.625 C 10.125 -11.625 10.125 -7.03125 10.125 -7.03125 Z M 10.125 -7.03125 "/>
</g>
<g id="glyph-9-17-0ae0bead">
<path d="M 22.46875 0 C 22.46875 0 17.375 0 17.375 0 C 17.375 0 7.40625 -17.140625 7.40625 -17.140625 C 7.40625 -17.140625 7.40625 0 7.40625 0 C 7.40625 0 2.3125 0 2.3125 0 C 2.3125 0 2.3125 -24.78125 2.3125 -24.78125 C 2.3125 -24.78125 7.546875 -24.78125 7.546875 -24.78125 C 7.546875 -24.78125 17.375 -7.921875 17.375 -7.921875 C 17.375 -7.921875 17.375 -24.78125 17.375 -24.78125 C 17.375 -24.78125 22.46875 -24.78125 22.46875 -24.78125 C 22.46875 -24.78125 22.46875 0 22.46875 0 Z M 22.46875 0 "/>
</g>
<g id="glyph-9-18-0ae0bead">
<path d="M 26.390625 0 C 26.390625 0 21.28125 0 21.28125 0 C 21.28125 0 21.28125 -19.3125 21.28125 -19.3125 C 21.28125 -19.3125 16.890625 0 16.890625 0 C 16.890625 0 11.796875 0 11.796875 0 C 11.796875 0 7.34375 -19.3125 7.34375 -19.3125 C 7.34375 -19.3125 7.34375 0 7.34375 0 C 7.34375 0 2.25 0 2.25 0 C 2.25 0 2.25 -24.78125 2.25 -24.78125 C 2.25 -24.78125 9.859375 -24.78125 9.859375 -24.78125 C 9.859375 -24.78125 14.34375 -5.0625 14.34375 -5.0625 C 14.34375 -5.0625 18.703125 -24.78125 18.703125 -24.78125 C 18.703125 -24.78125 26.390625 -24.78125 26.390625 -24.78125 C 26.390625 -24.78125 26.390625 0 26.390625 0 Z M 26.390625 0 "/>
</g>
<g id="glyph-9-19-0ae0bead">
<path d="M 7.28125 -0.3125 C 7.28125 2.34375 6.796875 3.609375 5.4375 4.65625 C 4.515625 5.375 3.5625 5.75 2.171875 5.921875 C 2.171875 5.921875 2.171875 4.015625 2.171875 4.015625 C 4.1875 3.609375 5.09375 2.40625 5.09375 0.109375 C 5.09375 0.109375 5.09375 0 5.09375 0 C 5.09375 0 2.171875 0 2.171875 0 C 2.171875 0 2.171875 -4.96875 2.171875 -4.96875 C 2.171875 -4.96875 7.28125 -4.96875 7.28125 -4.96875 C 7.28125 -4.96875 7.28125 -0.3125 7.28125 -0.3125 Z M 7.28125 -0.3125 "/>
</g>
<g id="glyph-9-20-0ae0bead">
<path d="M 25.234375 -12.234375 C 25.234375 -5 20.5 0.40625 13.296875 0.40625 C 6.015625 0.40625 1.359375 -5 1.359375 -12.40625 C 1.359375 -19.515625 5.984375 -25.1875 13.265625 -25.1875 C 20.5 -25.1875 25.234375 -19.71875 25.234375 -12.234375 Z M 20.125 -12.28125 C 20.125 -17.4375 17.46875 -20.84375 13.296875 -20.84375 C 9.1875 -20.84375 6.453125 -17.40625 6.453125 -12.40625 C 6.453125 -7.203125 9.1875 -3.9375 13.296875 -3.9375 C 17.375 -3.9375 20.125 -7.203125 20.125 -12.28125 Z M 20.125 -12.28125 "/>
</g>
<g id="glyph-10-0-0ae0bead">
<path d="M 17.8125 0 C 17.8125 0 12.640625 0 12.640625 0 C 12.203125 -0.546875 12.109375 -1.359375 12.109375 -2.3125 C 10.4375 -0.578125 8.5625 0.3125 6.53125 0.3125 C 3.46875 0.3125 0.953125 -1.390625 0.953125 -4.96875 C 0.953125 -8.296875 2.71875 -9.859375 6.359375 -10.5 C 6.359375 -10.5 8.265625 -10.84375 8.265625 -10.84375 C 10.640625 -11.25 12.0625 -11.046875 12.0625 -12.984375 C 12.0625 -14.21875 11.15625 -14.828125 9.3125 -14.828125 C 6.96875 -14.828125 6.1875 -14.21875 5.953125 -12.3125 C 5.953125 -12.3125 1.359375 -12.3125 1.359375 -12.3125 C 1.671875 -16.5625 4.25 -18.671875 9.21875 -18.671875 C 14.171875 -18.671875 16.734375 -16.765625 16.734375 -13.015625 C 16.734375 -13.015625 16.734375 -2.828125 16.734375 -2.828125 C 16.734375 -1.875 16.96875 -1.359375 17.8125 -0.578125 C 17.8125 -0.578125 17.8125 0 17.8125 0 Z M 12.0625 -7.859375 C 12.0625 -7.859375 12.0625 -8.671875 12.0625 -8.671875 C 11.53125 -8.390625 11.328125 -8.328125 10.0625 -8.09375 C 10.0625 -8.09375 8.4375 -7.78125 8.4375 -7.78125 C 6.453125 -7.40625 5.71875 -6.90625 5.71875 -5.515625 C 5.71875 -4.140625 6.703125 -3.53125 8.296875 -3.53125 C 10.703125 -3.53125 12.0625 -5.09375 12.0625 -7.859375 Z M 12.0625 -7.859375 "/>
</g>
<g id="glyph-11-0-0ae0bead">
<path d="M 18.296875 -18.359375 C 18.296875 -18.359375 10.75 3.359375 10.75 3.359375 C 9.484375 6.875 7.8125 7.453125 4.625 7.453125 C 4.046875 7.453125 3.640625 7.40625 2.921875 7.3125 C 2.921875 7.3125 2.921875 3.734375 2.921875 3.734375 C 3.53125 3.90625 3.8125 3.9375 4.1875 3.9375 C 5.84375 3.9375 7.140625 2.625 7.140625 0.890625 C 7.140625 0.890625 7.140625 0.78125 7.140625 0.78125 C 7.140625 0.78125 0.3125 -18.359375 0.3125 -18.359375 C 0.3125 -18.359375 5.546875 -18.359375 5.546875 -18.359375 C 5.546875 -18.359375 9.59375 -5 9.59375 -5 C 9.59375 -5 13.390625 -18.359375 13.390625 -18.359375 C 13.390625 -18.359375 18.296875 -18.359375 18.296875 -18.359375 Z M 18.296875 -18.359375 "/>
</g>
<g id="glyph-11-1-0ae0bead">
</g>
<g id="glyph-11-2-0ae0bead">
<path d="M 17.75 -6.359375 C 17.3125 -2.453125 14.21875 0.3125 9.765625 0.3125 C 4.3125 0.3125 1.15625 -2.984375 1.15625 -9.046875 C 1.15625 -15.296875 4.359375 -18.671875 9.828125 -18.671875 C 14.421875 -18.671875 17.40625 -15.984375 17.75 -11.484375 C 17.75 -11.484375 13.1875 -11.484375 13.1875 -11.484375 C 12.640625 -13.90625 11.734375 -14.828125 9.796875 -14.828125 C 6.796875 -14.828125 5.921875 -12.40625 5.921875 -9.046875 C 5.921875 -5.46875 7.375 -3.53125 9.796875 -3.53125 C 11.625 -3.53125 12.578125 -4.453125 13.1875 -6.359375 C 13.1875 -6.359375 17.75 -6.359375 17.75 -6.359375 Z M 17.75 -6.359375 "/>
</g>
<g id="glyph-11-3-0ae0bead">
<path d="M 7.03125 0 C 7.03125 0 2.28125 0 2.28125 0 C 2.28125 0 2.28125 -24.78125 2.28125 -24.78125 C 2.28125 -24.78125 7.03125 -24.78125 7.03125 -24.78125 C 7.03125 -24.78125 7.03125 0 7.03125 0 Z M 7.03125 0 "/>
</g>
<g id="glyph-12-0-0ae0bead">
<path d="M 18.390625 0 C 18.390625 0 13.640625 0 13.640625 0 C 13.640625 0 13.640625 -2.40625 13.640625 -2.40625 C 12.28125 -0.609375 10.609375 0.3125 8.125 0.3125 C 4.21875 0.3125 1.96875 -2 1.96875 -6.046875 C 1.96875 -6.046875 1.96875 -18.359375 1.96875 -18.359375 C 1.96875 -18.359375 6.734375 -18.359375 6.734375 -18.359375 C 6.734375 -18.359375 6.734375 -7.03125 6.734375 -7.03125 C 6.734375 -4.828125 7.75 -3.734375 9.796875 -3.734375 C 12.109375 -3.734375 13.640625 -5.171875 13.640625 -7.34375 C 13.640625 -7.34375 13.640625 -18.359375 13.640625 -18.359375 C 13.640625 -18.359375 18.390625 -18.359375 18.390625 -18.359375 C 18.390625 -18.359375 18.390625 0 18.390625 0 Z M 18.390625 0 "/>
</g>
<g id="glyph-12-1-0ae0bead">
<path d="M 18.53125 0 C 18.53125 0 13.765625 0 13.765625 0 C 13.765625 0 13.765625 -2.109375 13.765625 -2.109375 C 12.578125 -0.546875 10.984375 0.3125 8.703125 0.3125 C 3.84375 0.3125 0.984375 -3.9375 0.984375 -9.140625 C 0.984375 -14.6875 4.3125 -18.671875 8.703125 -18.671875 C 10.984375 -18.671875 12.578125 -17.8125 13.765625 -15.984375 C 13.765625 -15.984375 13.765625 -24.78125 13.765625 -24.78125 C 13.765625 -24.78125 18.53125 -24.78125 18.53125 -24.78125 C 18.53125 -24.78125 18.53125 0 18.53125 0 Z M 13.765625 -9.078125 C 13.765625 -12.578125 12.171875 -14.6875 9.765625 -14.6875 C 7.375 -14.6875 5.75 -12.546875 5.75 -9.140625 C 5.75 -5.78125 7.375 -3.671875 9.765625 -3.671875 C 12.140625 -3.671875 13.765625 -5.75 13.765625 -9.078125 Z M 13.765625 -9.078125 "/>
</g>
<g id="glyph-12-2-0ae0bead">
<path d="M 17.84375 -8.5 C 17.84375 -8.5 17.8125 -7.921875 17.8125 -7.921875 C 17.8125 -7.921875 5.515625 -7.921875 5.515625 -7.921875 C 5.640625 -4.359375 7.078125 -3.328125 9.3125 -3.328125 C 11.046875 -3.328125 12.546875 -3.84375 12.953125 -5.171875 C 12.953125 -5.171875 17.640625 -5.171875 17.640625 -5.171875 C 16.59375 -1.5625 13.265625 0.3125 9.140625 0.3125 C 3.9375 0.3125 0.75 -3.0625 0.75 -8.9375 C 0.75 -15.09375 3.984375 -18.671875 9.25 -18.671875 C 14.65625 -18.671875 17.84375 -14.828125 17.84375 -8.5 Z M 12.890625 -11.078125 C 12.640625 -13.703125 11.21875 -15.03125 9.1875 -15.03125 C 7.078125 -15.03125 5.875 -13.640625 5.578125 -11.078125 C 5.578125 -11.078125 12.890625 -11.078125 12.890625 -11.078125 Z M 12.890625 -11.078125 "/>
</g>
<g id="glyph-12-3-0ae0bead">
</g>
<g id="glyph-12-4-0ae0bead">
<path d="M 12.578125 -13.796875 C 11.9375 -13.90625 11.59375 -13.9375 11.078125 -13.9375 C 8.296875 -13.9375 6.90625 -12.546875 6.90625 -9.765625 C 6.90625 -9.765625 6.90625 0 6.90625 0 C 6.90625 0 2.140625 0 2.140625 0 C 2.140625 0 2.140625 -18.359375 2.140625 -18.359375 C 2.140625 -18.359375 6.90625 -18.359375 6.90625 -18.359375 C 6.90625 -18.359375 6.90625 -14.75 6.90625 -14.75 C 7.921875 -17.234375 9.828125 -18.671875 12 -18.671875 C 12.140625 -18.671875 12.3125 -18.671875 12.578125 -18.625 C 12.578125 -18.625 12.578125 -13.796875 12.578125 -13.796875 Z M 12.578125 -13.796875 "/>
</g>
<g id="glyph-12-5-0ae0bead">
<path d="M 10.640625 -14.828125 C 10.640625 -14.828125 7.8125 -14.828125 7.8125 -14.828125 C 7.8125 -14.828125 7.8125 0 7.8125 0 C 7.8125 0 3.0625 0 3.0625 0 C 3.0625 0 3.0625 -14.828125 3.0625 -14.828125 C 3.0625 -14.828125 0.46875 -14.828125 0.46875 -14.828125 C 0.46875 -14.828125 0.46875 -17.984375 0.46875 -17.984375 C 0.46875 -17.984375 3.0625 -17.984375 3.0625 -17.984375 C 3.0625 -17.984375 3.0625 -20.203125 3.0625 -20.203125 C 3.0625 -23.296875 4.59375 -24.78125 7.75 -24.78125 C 8.390625 -24.78125 9.59375 -24.75 10.46875 -24.6875 C 10.46875 -24.6875 10.46875 -21.109375 10.46875 -21.109375 C 10.0625 -21.1875 9.515625 -21.21875 9.109375 -21.21875 C 8.234375 -21.21875 7.8125 -20.734375 7.8125 -19.78125 C 7.8125 -19.78125 7.8125 -17.984375 7.8125 -17.984375 C 7.8125 -17.984375 10.640625 -17.984375 10.640625 -17.984375 C 10.640625 -17.984375 10.640625 -14.828125 10.640625 -14.828125 Z M 10.640625 -14.828125 "/>
</g>
<g id="glyph-12-6-0ae0bead">
<path d="M 7.03125 0 C 7.03125 0 2.28125 0 2.28125 0 C 2.28125 0 2.28125 -18.359375 2.28125 -18.359375 C 2.28125 -18.359375 7.03125 -18.359375 7.03125 -18.359375 C 7.03125 -18.359375 7.03125 0 7.03125 0 Z M 7.109375 -20.5625 C 7.109375 -20.5625 2.34375 -20.5625 2.34375 -20.5625 C 2.34375 -20.5625 2.34375 -25.328125 2.34375 -25.328125 C 2.34375 -25.328125 7.109375 -25.328125 7.109375 -25.328125 C 7.109375 -25.328125 7.109375 -20.5625 7.109375 -20.5625 Z M 7.109375 -20.5625 "/>
</g>
<g id="glyph-13-0-0ae0bead">
</g>
<g id="glyph-14-0-0ae0bead">
<path d="M 12.015625 4.40625 C 12.015625 4.40625 8.9375 4.40625 8.9375 4.40625 C 8.9375 4.40625 8.9375 -7.328125 8.9375 -7.328125 C 8.9375 -8.734375 8.265625 -9.453125 6.953125 -9.453125 C 5.453125 -9.453125 4.46875 -8.53125 4.46875 -7.125 C 4.46875 -7.125 4.46875 0 4.46875 0 C 4.46875 0 1.390625 0 1.390625 0 C 1.390625 0 1.390625 -11.875 1.390625 -11.875 C 1.390625 -11.875 4.46875 -11.875 4.46875 -11.875 C 4.46875 -11.875 4.46875 -10.15625 4.46875 -10.15625 C 5.34375 -11.484375 6.421875 -12.078125 8.03125 -12.078125 C 10.5625 -12.078125 12.015625 -10.578125 12.015625 -7.96875 C 12.015625 -7.96875 12.015625 4.40625 12.015625 4.40625 Z M 12.015625 4.40625 "/>
</g>
<g id="glyph-14-1-0ae0bead">
<path d="M 11.328125 -10.984375 C 11.328125 -8.859375 10.53125 -7.671875 7.828125 -5.703125 C 5.546875 -4.03125 5.0625 -3.59375 4.65625 -2.75 C 4.65625 -2.75 11.265625 -2.75 11.265625 -2.75 C 11.265625 -2.75 11.265625 0 11.265625 0 C 11.265625 0 0.65625 0 0.65625 0 C 0.8125 -2.875 1.625 -4.265625 4.265625 -6.078125 C 7.703125 -8.515625 8.25 -9.203125 8.25 -10.90625 C 8.25 -12.46875 7.40625 -13.421875 6.046875 -13.421875 C 4.640625 -13.421875 3.828125 -12.40625 3.828125 -10.671875 C 3.828125 -10.671875 3.828125 -10.15625 3.828125 -10.15625 C 3.828125 -10.15625 0.875 -10.15625 0.875 -10.15625 C 0.859375 -10.40625 0.859375 -10.578125 0.859375 -10.71875 C 0.859375 -14.015625 2.75 -15.921875 5.984375 -15.921875 C 9.265625 -15.921875 11.328125 -13.984375 11.328125 -10.984375 Z M 11.328125 -10.984375 "/>
</g>
<g id="glyph-14-2-0ae0bead">
<path d="M 8.3125 0 C 8.3125 0 5.234375 0 5.234375 0 C 5.234375 0 5.234375 -10.765625 5.234375 -10.765625 C 5.234375 -10.765625 1.5 -10.765625 1.5 -10.765625 C 1.5 -10.765625 1.5 -12.796875 1.5 -12.796875 C 4.1875 -12.796875 5.78125 -13.75 6.265625 -15.59375 C 6.265625 -15.59375 8.3125 -15.59375 8.3125 -15.59375 C 8.3125 -15.59375 8.3125 0 8.3125 0 Z M 8.3125 0 "/>
</g>
<g id="glyph-15-0-0ae0bead">
<path d="M 11.53125 -6.40625 C 11.53125 -6.40625 1.3125 -6.40625 1.3125 -6.40625 C 1.3125 -6.40625 1.3125 -8.609375 1.3125 -8.609375 C 1.3125 -8.609375 11.53125 -8.609375 11.53125 -8.609375 C 11.53125 -8.609375 11.53125 -6.40625 11.53125 -6.40625 Z M 11.53125 -2.390625 C 11.53125 -2.390625 1.3125 -2.390625 1.3125 -2.390625 C 1.3125 -2.390625 1.3125 -4.59375 1.3125 -4.59375 C 1.3125 -4.59375 11.53125 -4.59375 11.53125 -4.59375 C 11.53125 -4.59375 11.53125 -2.390625 11.53125 -2.390625 Z M 11.53125 -2.390625 "/>
</g>
<g id="glyph-16-0-0ae0bead">
<path d="M 11.53125 -4.40625 C 11.53125 -4.40625 7.53125 -4.40625 7.53125 -4.40625 C 7.53125 -4.40625 7.53125 -0.390625 7.53125 -0.390625 C 7.53125 -0.390625 5.328125 -0.390625 5.328125 -0.390625 C 5.328125 -0.390625 5.328125 -4.40625 5.328125 -4.40625 C 5.328125 -4.40625 1.3125 -4.40625 1.3125 -4.40625 C 1.3125 -4.40625 1.3125 -6.59375 1.3125 -6.59375 C 1.3125 -6.59375 5.328125 -6.59375 5.328125 -6.59375 C 5.328125 -6.59375 5.328125 -10.609375 5.328125 -10.609375 C 5.328125 -10.609375 7.53125 -10.609375 7.53125 -10.609375 C 7.53125 -10.609375 7.53125 -6.59375 7.53125 -6.59375 C 7.53125 -6.59375 11.53125 -6.59375 11.53125 -6.59375 C 11.53125 -6.59375 11.53125 -4.40625 11.53125 -4.40625 Z M 11.53125 -4.40625 "/>
</g>
<g id="glyph-16-1-0ae0bead">
<path d="M 6.40625 -15.703125 C 6.40625 -15.703125 1.875 0.3125 1.875 0.3125 C 1.875 0.3125 -0.265625 0.3125 -0.265625 0.3125 C -0.265625 0.3125 4.265625 -15.703125 4.265625 -15.703125 C 4.265625 -15.703125 6.40625 -15.703125 6.40625 -15.703125 Z M 6.40625 -15.703125 "/>
</g>
<g id="glyph-16-2-0ae0bead">
<path d="M 14.546875 0 C 14.546875 0 11.234375 0 11.234375 0 C 11.234375 0 4.796875 -11.09375 4.796875 -11.09375 C 4.796875 -11.09375 4.796875 0 4.796875 0 C 4.796875 0 1.5 0 1.5 0 C 1.5 0 1.5 -16.03125 1.5 -16.03125 C 1.5 -16.03125 4.890625 -16.03125 4.890625 -16.03125 C 4.890625 -16.03125 11.234375 -5.125 11.234375 -5.125 C 11.234375 -5.125 11.234375 -16.03125 11.234375 -16.03125 C 11.234375 -16.03125 14.546875 -16.03125 14.546875 -16.03125 C 14.546875 -16.03125 14.546875 0 14.546875 0 Z M 14.546875 0 "/>
</g>
<g id="glyph-16-3-0ae0bead">
<path d="M 11.375 -7.765625 C 11.375 -1.609375 9.171875 0.203125 6 0.203125 C 1.5 0.203125 0.640625 -3.5 0.640625 -7.859375 C 0.640625 -12.34375 1.546875 -15.921875 6 -15.921875 C 10.578125 -15.921875 11.375 -12.1875 11.375 -7.765625 Z M 8.296875 -7.828125 C 8.296875 -12.671875 7.53125 -13.4375 6 -13.4375 C 4.359375 -13.4375 3.71875 -12.40625 3.71875 -7.875 C 3.71875 -3.234375 4.4375 -2.4375 6 -2.4375 C 7.65625 -2.4375 8.296875 -3.453125 8.296875 -7.828125 Z M 8.296875 -7.828125 "/>
</g>
<g id="glyph-17-0-0ae0bead">
<path d="M 12.015625 4.40625 C 12.015625 4.40625 8.9375 4.40625 8.9375 4.40625 C 8.9375 4.40625 8.9375 -7.328125 8.9375 -7.328125 C 8.9375 -8.734375 8.265625 -9.453125 6.953125 -9.453125 C 5.453125 -9.453125 4.46875 -8.53125 4.46875 -7.125 C 4.46875 -7.125 4.46875 0 4.46875 0 C 4.46875 0 1.390625 0 1.390625 0 C 1.390625 0 1.390625 -11.875 1.390625 -11.875 C 1.390625 -11.875 4.46875 -11.875 4.46875 -11.875 C 4.46875 -11.875 4.46875 -10.15625 4.46875 -10.15625 C 5.34375 -11.484375 6.421875 -12.078125 8.03125 -12.078125 C 10.5625 -12.078125 12.015625 -10.578125 12.015625 -7.96875 C 12.015625 -7.96875 12.015625 4.40625 12.015625 4.40625 Z M 12.015625 4.40625 "/>
</g>
<g id="glyph-17-1-0ae0bead">
<path d="M 8.3125 0 C 8.3125 0 5.234375 0 5.234375 0 C 5.234375 0 5.234375 -10.765625 5.234375 -10.765625 C 5.234375 -10.765625 1.5 -10.765625 1.5 -10.765625 C 1.5 -10.765625 1.5 -12.796875 1.5 -12.796875 C 4.1875 -12.796875 5.78125 -13.75 6.265625 -15.59375 C 6.265625 -15.59375 8.3125 -15.59375 8.3125 -15.59375 C 8.3125 -15.59375 8.3125 0 8.3125 0 Z M 8.3125 0 "/>
</g>
<g id="glyph-17-2-0ae0bead">
<path d="M 14.546875 0 C 14.546875 0 11.234375 0 11.234375 0 C 11.234375 0 4.796875 -11.09375 4.796875 -11.09375 C 4.796875 -11.09375 4.796875 0 4.796875 0 C 4.796875 0 1.5 0 1.5 0 C 1.5 0 1.5 -16.03125 1.5 -16.03125 C 1.5 -16.03125 4.890625 -16.03125 4.890625 -16.03125 C 4.890625 -16.03125 11.234375 -5.125 11.234375 -5.125 C 11.234375 -5.125 11.234375 -16.03125 11.234375 -16.03125 C 11.234375 -16.03125 14.546875 -16.03125 14.546875 -16.03125 C 14.546875 -16.03125 14.546875 0 14.546875 0 Z M 14.546875 0 "/>
</g>
<g id="glyph-18-0-0ae0bead">
<path d="M 11.53125 -6.40625 C 11.53125 -6.40625 1.3125 -6.40625 1.3125 -6.40625 C 1.3125 -6.40625 1.3125 -8.609375 1.3125 -8.609375 C 1.3125 -8.609375 11.53125 -8.609375 11.53125 -8.609375 C 11.53125 -8.609375 11.53125 -6.40625 11.53125 -6.40625 Z M 11.53125 -2.390625 C 11.53125 -2.390625 1.3125 -2.390625 1.3125 -2.390625 C 1.3125 -2.390625 1.3125 -4.59375 1.3125 -4.59375 C 1.3125 -4.59375 11.53125 -4.59375 11.53125 -4.59375 C 11.53125 -4.59375 11.53125 -2.390625 11.53125 -2.390625 Z M 11.53125 -2.390625 "/>
</g>
<g id="glyph-19-0-0ae0bead">
<path d="M 11.53125 -4.40625 C 11.53125 -4.40625 7.53125 -4.40625 7.53125 -4.40625 C 7.53125 -4.40625 7.53125 -0.390625 7.53125 -0.390625 C 7.53125 -0.390625 5.328125 -0.390625 5.328125 -0.390625 C 5.328125 -0.390625 5.328125 -4.40625 5.328125 -4.40625 C 5.328125 -4.40625 1.3125 -4.40625 1.3125 -4.40625 C 1.3125 -4.40625 1.3125 -6.59375 1.3125 -6.59375 C 1.3125 -6.59375 5.328125 -6.59375 5.328125 -6.59375 C 5.328125 -6.59375 5.328125 -10.609375 5.328125 -10.609375 C 5.328125 -10.609375 7.53125 -10.609375 7.53125 -10.609375 C 7.53125 -10.609375 7.53125 -6.59375 7.53125 -6.59375 C 7.53125 -6.59375 11.53125 -6.59375 11.53125 -6.59375 C 11.53125 -6.59375 11.53125 -4.40625 11.53125 -4.40625 Z M 11.53125 -4.40625 "/>
</g>
</g>
</defs>
<rect x="-120" y="-80" width="1440" height="960" fill="rgb(100%, 100%, 100%)" fill-opacity="1"/>
<path fill-rule="nonzero" fill="rgb(100%, 100%, 100%)" fill-opacity="1" d="M 89 713 L 1184 713 L 1184 60 L 89 60 Z M 89 713 "/>
<path fill="none" stroke-width="1" stroke-linecap="butt" stroke-linejoin="miter" stroke="rgb(0%, 0%, 0%)" stroke-opacity="0.12" stroke-miterlimit="1.154701" d="M 138.773438 713 L 138.773438 60 "/>
<path fill="none" stroke-width="1" stroke-linecap="butt" stroke-linejoin="miter" stroke="rgb(0%, 0%, 0%)" stroke-opacity="0.12" stroke-miterlimit="1.154701" d="M 636.5 713 L 636.5 60 "/>
<path fill="none" stroke-width="1" stroke-linecap="butt" stroke-linejoin="miter" stroke="rgb(0%, 0%, 0%)" stroke-opacity="0.12" stroke-miterlimit="1.154701" d="M 1134.226562 713 L 1134.226562 60 "/>
<path fill="none" stroke-width="1" stroke-linecap="butt" stroke-linejoin="miter" stroke="rgb(0%, 0%, 0%)" stroke-opacity="0.05" stroke-miterlimit="1.154701" d="M 387.636719 713 L 387.636719 60 "/>
<path fill="none" stroke-width="1" stroke-linecap="butt" stroke-linejoin="miter" stroke="rgb(0%, 0%, 0%)" stroke-opacity="0.05" stroke-miterlimit="1.154701" d="M 885.363281 713 L 885.363281 60 "/>
<path fill="none" stroke-width="1" stroke-linecap="butt" stroke-linejoin="miter" stroke="rgb(0%, 0%, 0%)" stroke-opacity="0.12" stroke-miterlimit="1.154701" d="M 89 708.054688 L 1184 708.054688 "/>
<path fill="none" stroke-width="1" stroke-linecap="butt" stroke-linejoin="miter" stroke="rgb(0%, 0%, 0%)" stroke-opacity="0.12" stroke-miterlimit="1.154701" d="M 89 460.703125 L 1184 460.703125 "/>
<path fill="none" stroke-width="1" stroke-linecap="butt" stroke-linejoin="miter" stroke="rgb(0%, 0%, 0%)" stroke-opacity="0.12" stroke-miterlimit="1.154701" d="M 89 213.355469 L 1184 213.355469 "/>
<path fill="none" stroke-width="1" stroke-linecap="butt" stroke-linejoin="miter" stroke="rgb(0%, 0%, 0%)" stroke-opacity="0.05" stroke-miterlimit="1.154701" d="M 89 584.378906 L 1184 584.378906 "/>
<path fill="none" stroke-width="1" stroke-linecap="butt" stroke-linejoin="miter" stroke="rgb(0%, 0%, 0%)" stroke-opacity="0.05" stroke-miterlimit="1.154701" d="M 89 337.03125 L 1184 337.03125 "/>
<path fill="none" stroke-width="1" stroke-linecap="butt" stroke-linejoin="miter" stroke="rgb(0%, 0%, 0%)" stroke-opacity="0.05" stroke-miterlimit="1.154701" d="M 89 89.683594 L 1184 89.683594 "/>
<g fill="rgb(0%, 0%, 0%)" fill-opacity="1">
<use xlink:href="#glyph-0-0-0ae0bead" x="631.838" y="778.476"/>
</g>
<g fill="rgb(0%, 0%, 0%)" fill-opacity="1">
<use xlink:href="#glyph-1-0-0ae0bead" x="122.09272" y="743.728001"/>
</g>
<g fill="rgb(0%, 0%, 0%)" fill-opacity="1">
<use xlink:href="#glyph-2-0-0ae0bead" x="135.43672" y="743.728001"/>
</g>
<g fill="rgb(0%, 0%, 0%)" fill-opacity="1">
<use xlink:href="#glyph-2-1-0ae0bead" x="142.108719" y="743.728001"/>
</g>
<g fill="rgb(0%, 0%, 0%)" fill-opacity="1">
<use xlink:href="#glyph-3-0-0ae0bead" x="619.82" y="743.728001"/>
</g>
<g fill="rgb(0%, 0%, 0%)" fill-opacity="1">
<use xlink:href="#glyph-3-1-0ae0bead" x="633.164" y="743.728001"/>
</g>
<g fill="rgb(0%, 0%, 0%)" fill-opacity="1">
<use xlink:href="#glyph-3-2-0ae0bead" x="639.835999" y="743.728001"/>
</g>
<g fill="rgb(0%, 0%, 0%)" fill-opacity="1">
<use xlink:href="#glyph-3-3-0ae0bead" x="1117.547295" y="743.728001"/>
</g>
<g fill="rgb(0%, 0%, 0%)" fill-opacity="1">
<use xlink:href="#glyph-3-1-0ae0bead" x="1130.891294" y="743.728001"/>
</g>
<g fill="rgb(0%, 0%, 0%)" fill-opacity="1">
<use xlink:href="#glyph-3-0-0ae0bead" x="1137.563293" y="743.728001"/>
</g>
<g fill="rgb(0%, 0%, 0%)" fill-opacity="1">
<use xlink:href="#glyph-4-0-0ae0bead" x="41.208" y="396.607999"/>
</g>
<g fill="rgb(0%, 0%, 0%)" fill-opacity="1">
<use xlink:href="#glyph-1-0-0ae0bead" x="65.656" y="716.801032"/>
</g>
<g fill="rgb(0%, 0%, 0%)" fill-opacity="1">
<use xlink:href="#glyph-5-0-0ae0bead" x="52.312" y="469.452559"/>
</g>
<g fill="rgb(0%, 0%, 0%)" fill-opacity="1">
<use xlink:href="#glyph-6-0-0ae0bead" x="65.656" y="469.452559"/>
</g>
<g fill="rgb(0%, 0%, 0%)" fill-opacity="1">
<use xlink:href="#glyph-5-1-0ae0bead" x="52.312" y="222.104079"/>
</g>
<g fill="rgb(0%, 0%, 0%)" fill-opacity="1">
<use xlink:href="#glyph-6-0-0ae0bead" x="65.656" y="222.104079"/>
</g>
<g fill="rgb(0%, 0%, 0%)" fill-opacity="1">
<use xlink:href="#glyph-7-0-0ae0bead" x="140.558929" y="48.588"/>
</g>
<g fill="rgb(0%, 0%, 0%)" fill-opacity="1">
<use xlink:href="#glyph-8-0-0ae0bead" x="165.106934" y="48.588"/>
</g>
<g fill="rgb(0%, 0%, 0%)" fill-opacity="1">
<use xlink:href="#glyph-9-0-0ae0bead" x="184.010925" y="48.588"/>
</g>
<g fill="rgb(0%, 0%, 0%)" fill-opacity="1">
<use xlink:href="#glyph-9-1-0ae0bead" x="202.914917" y="48.588"/>
</g>
<g fill="rgb(0%, 0%, 0%)" fill-opacity="1">
<use xlink:href="#glyph-7-1-0ae0bead" x="221.818909" y="48.588"/>
</g>
<g fill="rgb(0%, 0%, 0%)" fill-opacity="1">
<use xlink:href="#glyph-10-0-0ae0bead" x="246.366943" y="48.588"/>
</g>
<g fill="rgb(0%, 0%, 0%)" fill-opacity="1">
<use xlink:href="#glyph-11-0-0ae0bead" x="265.270935" y="48.588"/>
</g>
<g fill="rgb(0%, 0%, 0%)" fill-opacity="1">
<use xlink:href="#glyph-11-1-0ae0bead" x="284.174927" y="48.588"/>
</g>
<g fill="rgb(0%, 0%, 0%)" fill-opacity="1">
<use xlink:href="#glyph-7-2-0ae0bead" x="293.626923" y="48.588"/>
</g>
<g fill="rgb(0%, 0%, 0%)" fill-opacity="1">
<use xlink:href="#glyph-7-3-0ae0bead" x="312.530914" y="48.588"/>
</g>
<g fill="rgb(0%, 0%, 0%)" fill-opacity="1">
<use xlink:href="#glyph-7-4-0ae0bead" x="331.434906" y="48.588"/>
</g>
<g fill="rgb(0%, 0%, 0%)" fill-opacity="1">
<use xlink:href="#glyph-9-2-0ae0bead" x="361.660889" y="48.588"/>
</g>
<g fill="rgb(0%, 0%, 0%)" fill-opacity="1">
<use xlink:href="#glyph-7-5-0ae0bead" x="371.112915" y="48.588"/>
</g>
<g fill="rgb(0%, 0%, 0%)" fill-opacity="1">
<use xlink:href="#glyph-9-3-0ae0bead" x="395.660904" y="48.588"/>
</g>
<g fill="rgb(0%, 0%, 0%)" fill-opacity="1">
<use xlink:href="#glyph-9-4-0ae0bead" x="405.112915" y="48.588"/>
</g>
<g fill="rgb(0%, 0%, 0%)" fill-opacity="1">
<use xlink:href="#glyph-9-3-0ae0bead" x="425.886902" y="48.588"/>
</g>
<g fill="rgb(0%, 0%, 0%)" fill-opacity="1">
<use xlink:href="#glyph-9-2-0ae0bead" x="435.338898" y="48.588"/>
</g>
<g fill="rgb(0%, 0%, 0%)" fill-opacity="1">
<use xlink:href="#glyph-9-5-0ae0bead" x="444.790894" y="48.588"/>
</g>
<g fill="rgb(0%, 0%, 0%)" fill-opacity="1">
<use xlink:href="#glyph-9-6-0ae0bead" x="463.694885" y="48.588"/>
</g>
<g fill="rgb(0%, 0%, 0%)" fill-opacity="1">
<use xlink:href="#glyph-11-2-0ae0bead" x="482.598877" y="48.588"/>
</g>
<g fill="rgb(0%, 0%, 0%)" fill-opacity="1">
<use xlink:href="#glyph-11-3-0ae0bead" x="501.502869" y="48.588"/>
</g>
<g fill="rgb(0%, 0%, 0%)" fill-opacity="1">
<use xlink:href="#glyph-12-0-0ae0bead" x="510.954865" y="48.588"/>
</g>
<g fill="rgb(0%, 0%, 0%)" fill-opacity="1">
<use xlink:href="#glyph-12-1-0ae0bead" x="531.728851" y="48.588"/>
</g>
<g fill="rgb(0%, 0%, 0%)" fill-opacity="1">
<use xlink:href="#glyph-12-2-0ae0bead" x="552.502838" y="48.588"/>
</g>
<g fill="rgb(0%, 0%, 0%)" fill-opacity="1">
<use xlink:href="#glyph-12-1-0ae0bead" x="571.40683" y="48.588"/>
</g>
<g fill="rgb(0%, 0%, 0%)" fill-opacity="1">
<use xlink:href="#glyph-12-3-0ae0bead" x="592.180817" y="48.588"/>
</g>
<g fill="rgb(0%, 0%, 0%)" fill-opacity="1">
<use xlink:href="#glyph-12-4-0ae0bead" x="601.632812" y="48.588"/>
</g>
<g fill="rgb(0%, 0%, 0%)" fill-opacity="1">
<use xlink:href="#glyph-9-5-0ae0bead" x="614.858826" y="48.588"/>
</g>
<g fill="rgb(0%, 0%, 0%)" fill-opacity="1">
<use xlink:href="#glyph-9-7-0ae0bead" x="633.762817" y="48.588"/>
</g>
<g fill="rgb(0%, 0%, 0%)" fill-opacity="1">
<use xlink:href="#glyph-9-8-0ae0bead" x="654.536835" y="48.588"/>
</g>
<g fill="rgb(0%, 0%, 0%)" fill-opacity="1">
<use xlink:href="#glyph-9-9-0ae0bead" x="663.988861" y="48.588"/>
</g>
<g fill="rgb(0%, 0%, 0%)" fill-opacity="1">
<use xlink:href="#glyph-9-10-0ae0bead" x="684.762848" y="48.588"/>
</g>
<g fill="rgb(0%, 0%, 0%)" fill-opacity="1">
<use xlink:href="#glyph-9-11-0ae0bead" x="705.536835" y="48.588"/>
</g>
<g fill="rgb(0%, 0%, 0%)" fill-opacity="1">
<use xlink:href="#glyph-9-2-0ae0bead" x="724.440826" y="48.588"/>
</g>
<g fill="rgb(0%, 0%, 0%)" fill-opacity="1">
<use xlink:href="#glyph-12-5-0ae0bead" x="733.892853" y="48.588"/>
</g>
<g fill="rgb(0%, 0%, 0%)" fill-opacity="1">
<use xlink:href="#glyph-9-9-0ae0bead" x="745.214874" y="48.588"/>
</g>
<g fill="rgb(0%, 0%, 0%)" fill-opacity="1">
<use xlink:href="#glyph-9-12-0ae0bead" x="765.988861" y="48.588"/>
</g>
<g fill="rgb(0%, 0%, 0%)" fill-opacity="1">
<use xlink:href="#glyph-9-2-0ae0bead" x="779.214874" y="48.588"/>
</g>
<g fill="rgb(0%, 0%, 0%)" fill-opacity="1">
<use xlink:href="#glyph-12-1-0ae0bead" x="788.666901" y="48.588"/>
</g>
<g fill="rgb(0%, 0%, 0%)" fill-opacity="1">
<use xlink:href="#glyph-12-6-0ae0bead" x="809.440887" y="48.588"/>
</g>
<g fill="rgb(0%, 0%, 0%)" fill-opacity="1">
<use xlink:href="#glyph-9-13-0ae0bead" x="818.892914" y="48.588"/>
</g>
<g fill="rgb(0%, 0%, 0%)" fill-opacity="1">
<use xlink:href="#glyph-9-13-0ae0bead" x="830.214935" y="48.588"/>
</g>
<g fill="rgb(0%, 0%, 0%)" fill-opacity="1">
<use xlink:href="#glyph-9-5-0ae0bead" x="841.536957" y="48.588"/>
</g>
<g fill="rgb(0%, 0%, 0%)" fill-opacity="1">
<use xlink:href="#glyph-9-12-0ae0bead" x="860.440948" y="48.588"/>
</g>
<g fill="rgb(0%, 0%, 0%)" fill-opacity="1">
<use xlink:href="#glyph-9-5-0ae0bead" x="873.666962" y="48.588"/>
</g>
<g fill="rgb(0%, 0%, 0%)" fill-opacity="1">
<use xlink:href="#glyph-9-10-0ae0bead" x="892.570953" y="48.588"/>
</g>
<g fill="rgb(0%, 0%, 0%)" fill-opacity="1">
<use xlink:href="#glyph-9-14-0ae0bead" x="913.34494" y="48.588"/>
</g>
<g fill="rgb(0%, 0%, 0%)" fill-opacity="1">
<use xlink:href="#glyph-9-2-0ae0bead" x="924.666962" y="48.588"/>
</g>
<g fill="rgb(0%, 0%, 0%)" fill-opacity="1">
<use xlink:href="#glyph-9-15-0ae0bead" x="934.118988" y="48.588"/>
</g>
<g fill="rgb(0%, 0%, 0%)" fill-opacity="1">
<use xlink:href="#glyph-9-2-0ae0bead" x="954.892975" y="48.588"/>
</g>
<g fill="rgb(0%, 0%, 0%)" fill-opacity="1">
<use xlink:href="#glyph-9-16-0ae0bead" x="964.345001" y="48.588"/>
</g>
<g fill="rgb(0%, 0%, 0%)" fill-opacity="1">
<use xlink:href="#glyph-13-0-0ae0bead" x="975.667023" y="48.588"/>
</g>
<g fill="rgb(0%, 0%, 0%)" fill-opacity="1">
<use xlink:href="#glyph-9-17-0ae0bead" x="985.119049" y="48.588"/>
</g>
<g fill="rgb(0%, 0%, 0%)" fill-opacity="1">
<use xlink:href="#glyph-9-17-0ae0bead" x="1009.667023" y="48.588"/>
</g>
<g fill="rgb(0%, 0%, 0%)" fill-opacity="1">
<use xlink:href="#glyph-9-18-0ae0bead" x="1034.214996" y="48.588"/>
</g>
<g fill="rgb(0%, 0%, 0%)" fill-opacity="1">
<use xlink:href="#glyph-9-19-0ae0bead" x="1062.537018" y="48.588"/>
</g>
<g fill="rgb(0%, 0%, 0%)" fill-opacity="1">
<use xlink:href="#glyph-9-2-0ae0bead" x="1071.989044" y="48.588"/>
</g>
<g fill="rgb(0%, 0%, 0%)" fill-opacity="1">
<use xlink:href="#glyph-9-17-0ae0bead" x="1081.441071" y="48.588"/>
</g>
<g fill="rgb(0%, 0%, 0%)" fill-opacity="1">
<use xlink:href="#glyph-9-20-0ae0bead" x="1105.989044" y="48.588"/>
</g>
<path fill-rule="evenodd" fill="rgb(89.399999%, 10.2%, 11%)" fill-opacity="0.2" d="M 1101.046875 441.816406 L 1067.863281 447.617188 L 1034.683594 444.898438 L 1001.5 447.128906 L 997.105469 448.335938 L 968.316406 454.527344 L 935.136719 460.519531 L 904.753906 473.070312 L 901.953125 473.5625 L 868.773438 479.402344 L 843.34375 485.4375 L 835.589844 488.207031 L 802.410156 491.925781 L 769.226562 486.21875 L 736.046875 487.148438 L 702.863281 492.269531 L 669.683594 502.371094 L 655.1875 510.175781 L 636.5 515.476562 L 606.988281 522.542969 L 603.316406 523.402344 L 570.136719 527.035156 L 536.953125 532.296875 L 504.628906 547.277344 L 503.773438 547.582031 L 470.589844 560.296875 L 437.410156 568.496094 L 427.710938 572.011719 L 404.226562 574.789062 L 371.046875 583.492188 L 367.824219 584.378906 L 337.863281 592.691406 L 304.683594 608.304688 L 302.4375 609.113281 L 271.5 616.796875 L 242.40625 633.847656 L 238.316406 634.226562 L 205.136719 636.664062 L 171.953125 637.316406 L 138.773438 636.617188 L 138.773438 683.316406 L 1134.226562 683.316406 L 1134.226562 434.765625 Z M 1101.046875 441.816406 "/>
<path fill="none" stroke-width="2.5" stroke-linecap="butt" stroke-linejoin="miter" stroke="rgb(89.399999%, 10.2%, 11%)" stroke-opacity="1" stroke-miterlimit="2" d="M 1134.226562 434.765625 L 1101.046875 441.816406 L 1067.863281 447.617188 L 1034.683594 444.898438 L 1001.5 447.128906 L 997.105469 448.335938 L 968.316406 454.527344 L 935.136719 460.519531 L 904.753906 473.070312 L 901.953125 473.5625 L 868.773438 479.402344 L 843.34375 485.4375 L 835.589844 488.207031 L 802.410156 491.925781 L 769.226562 486.21875 L 736.046875 487.148438 L 702.863281 492.269531 L 669.683594 502.371094 L 655.1875 510.175781 L 636.5 515.476562 L 606.988281 522.542969 L 603.316406 523.402344 L 570.136719 527.035156 L 536.953125 532.296875 L 504.628906 547.277344 L 503.773438 547.582031 L 470.589844 560.296875 L 437.410156 568.496094 L 427.710938 572.011719 L 404.226562 574.789062 L 371.046875 583.492188 L 367.824219 584.378906 L 337.863281 592.691406 L 304.683594 608.304688 L 302.4375 609.113281 L 271.5 616.796875 L 242.40625 633.847656 L 238.316406 634.226562 L 205.136719 636.664062 L 171.953125 637.316406 L 138.773438 636.617188 "/>
<path fill-rule="evenodd" fill="rgb(21.600001%, 49.399999%, 72.2%)" fill-opacity="0.2" d="M 1134.226562 433.207031 L 1101.046875 432.601562 L 1067.863281 431.597656 L 1034.683594 435.21875 L 1001.5 438.625 L 968.316406 441.796875 L 935.136719 445.757812 L 928.960938 448.335938 L 901.953125 457.300781 L 868.773438 472.734375 L 868.054688 473.070312 L 835.589844 477.972656 L 802.410156 479.136719 L 769.226562 477.84375 L 736.046875 477.949219 L 702.863281 480.941406 L 688.390625 485.4375 L 669.683594 494.996094 L 642.355469 510.175781 L 636.5 511.324219 L 603.316406 514.699219 L 570.136719 515.320312 L 536.953125 518.550781 L 522.246094 522.542969 L 503.773438 528.117188 L 470.589844 546.085938 L 465.820312 547.277344 L 437.410156 551.546875 L 404.226562 563.355469 L 388.019531 572.011719 L 371.046875 574.847656 L 337.863281 577.085938 L 310.03125 584.378906 L 304.683594 585.746094 L 271.5 593.089844 L 238.316406 600.667969 L 221.882812 609.113281 L 205.136719 615.636719 L 173 633.847656 L 171.953125 634.054688 L 138.773438 636.605469 L 138.773438 683.316406 L 1134.226562 683.316406 Z M 1134.226562 433.207031 "/>
<path fill="none" stroke-width="2.5" stroke-linecap="butt" stroke-linejoin="miter" stroke="rgb(21.600001%, 49.399999%, 72.2%)" stroke-opacity="1" stroke-miterlimit="2" d="M 138.773438 636.605469 L 171.953125 634.054688 L 173 633.847656 L 205.136719 615.636719 L 221.882812 609.113281 L 238.316406 600.667969 L 271.5 593.089844 L 304.683594 585.746094 L 310.03125 584.378906 L 337.863281 577.085938 L 371.046875 574.847656 L 388.019531 572.011719 L 404.226562 563.355469 L 437.410156 551.546875 L 465.820312 547.277344 L 470.589844 546.085938 L 503.773438 528.117188 L 522.246094 522.542969 L 536.953125 518.550781 L 570.136719 515.320312 L 603.316406 514.699219 L 636.5 511.324219 L 642.355469 510.175781 L 669.683594 494.996094 L 688.390625 485.4375 L 702.863281 480.941406 L 736.046875 477.949219 L 769.226562 477.84375 L 802.410156 479.136719 L 835.589844 477.972656 L 868.054688 473.070312 L 868.773438 472.734375 L 901.953125 457.300781 L 928.960938 448.335938 L 935.136719 445.753906 L 968.316406 441.796875 L 1001.5 438.625 L 1034.683594 435.21875 L 1067.863281 431.597656 L 1101.046875 432.601562 L 1134.226562 433.207031 "/>
<path fill-rule="evenodd" fill="rgb(30.199999%, 68.599999%, 28.999999%)" fill-opacity="0.2" d="M 1134.226562 410.535156 L 1101.046875 410.320312 L 1067.863281 410.175781 L 1034.683594 409.660156 L 1001.5 409.117188 L 968.316406 408.9375 L 935.136719 408.609375 L 901.953125 408.515625 L 868.773438 409.136719 L 835.589844 409.863281 L 802.410156 409.964844 L 769.226562 409.09375 L 736.046875 408.164062 L 702.863281 407.527344 L 669.683594 407.792969 L 636.5 408.527344 L 603.316406 408.609375 L 570.136719 407.8125 L 536.953125 407.050781 L 503.773438 406.527344 L 470.589844 406.125 L 437.410156 405.210938 L 404.226562 404.859375 L 371.046875 405.121094 L 337.863281 404.878906 L 304.683594 404.570312 L 271.5 404.1875 L 238.316406 403.808594 L 205.136719 403.519531 L 171.953125 403.203125 L 138.773438 402.976562 L 138.773438 683.316406 L 1134.226562 683.316406 Z M 1134.226562 410.535156 "/>
<path fill="none" stroke-width="2.5" stroke-linecap="butt" stroke-linejoin="miter" stroke="rgb(30.199999%, 68.599999%, 28.999999%)" stroke-opacity="1" stroke-miterlimit="2" d="M 138.773438 402.976562 L 171.953125 403.203125 L 205.136719 403.519531 L 238.316406 403.808594 L 271.5 404.1875 L 304.683594 404.570312 L 337.863281 404.878906 L 371.046875 405.121094 L 404.226562 404.859375 L 437.410156 405.210938 L 470.589844 406.125 L 503.773438 406.527344 L 536.953125 407.050781 L 570.136719 407.8125 L 603.316406 408.609375 L 636.5 408.527344 L 669.683594 407.792969 L 702.863281 407.527344 L 736.046875 408.164062 L 769.226562 409.09375 L 802.410156 409.964844 L 835.589844 409.863281 L 868.773438 409.136719 L 901.953125 408.515625 L 935.136719 408.609375 L 968.316406 408.9375 L 1001.5 409.117188 L 1034.683594 409.660156 L 1067.863281 410.175781 L 1101.046875 410.320312 L 1134.226562 410.535156 "/>
<path fill-rule="evenodd" fill="rgb(59.600002%, 30.599999%, 63.9%)" fill-opacity="0.2" d="M 138.773438 543.082031 L 138.773438 683.316406 L 1134.226562 683.316406 L 1134.226562 547.847656 L 1101.046875 551.480469 L 1067.863281 554.726562 L 1034.683594 553.664062 L 1001.5 555.90625 L 968.316406 556.882812 L 935.136719 555.164062 L 901.953125 556.101562 L 868.773438 563.53125 L 835.589844 571.0625 L 828.996094 572.011719 L 802.410156 573.019531 L 769.226562 572.472656 L 757.617188 572.011719 L 736.046875 568.605469 L 702.863281 566.261719 L 687.523438 572.011719 L 669.683594 573.664062 L 636.5 577.632812 L 603.316406 580.554688 L 570.136719 579.882812 L 536.953125 576.457031 L 503.773438 574.292969 L 470.589844 572.617188 L 465.121094 572.011719 L 437.410156 563.378906 L 404.226562 561.382812 L 371.046875 567.554688 L 337.863281 564.117188 L 304.683594 560.542969 L 271.5 556.957031 L 238.316406 553.109375 L 205.136719 549.945312 L 178.546875 547.277344 L 171.953125 546.382812 Z M 138.773438 543.082031 "/>
<path fill="none" stroke-width="2.5" stroke-linecap="butt" stroke-linejoin="miter" stroke="rgb(59.600002%, 30.599999%, 63.9%)" stroke-opacity="1" stroke-miterlimit="2" d="M 138.773438 543.082031 L 171.953125 546.382812 L 178.546875 547.277344 L 205.136719 549.945312 L 238.316406 553.109375 L 271.5 556.957031 L 304.683594 560.542969 L 337.863281 564.117188 L 371.046875 567.554688 L 404.226562 561.382812 L 437.410156 563.378906 L 465.121094 572.011719 L 470.589844 572.617188 L 503.773438 574.292969 L 536.953125 576.457031 L 570.136719 579.882812 L 603.316406 580.554688 L 636.5 577.632812 L 669.683594 573.664062 L 687.523438 572.011719 L 702.863281 566.261719 L 736.046875 568.605469 L 757.617188 572.011719 L 769.226562 572.472656 L 802.410156 573.019531 L 828.996094 572.011719 L 835.589844 571.0625 L 868.773438 563.53125 L 901.953125 556.101562 L 935.136719 555.164062 L 968.316406 556.882812 L 1001.5 555.90625 L 1034.683594 553.664062 L 1067.863281 554.726562 L 1101.046875 551.480469 L 1134.226562 547.847656 "/>
<g fill="rgb(89.399999%, 10.2%, 11%)" fill-opacity="1">
<use xlink:href="#glyph-14-0-0ae0bead" x="1034.68174" y="114.567604"/>
</g>
<g fill="rgb(89.399999%, 10.2%, 11%)" fill-opacity="1">
<use xlink:href="#glyph-15-0-0ae0bead" x="1048.12374" y="114.567604"/>
</g>
<g fill="rgb(89.399999%, 10.2%, 11%)" fill-opacity="1">
<use xlink:href="#glyph-14-1-0ae0bead" x="1060.971741" y="114.567604"/>
</g>
<g fill="rgb(21.600001%, 49.399999%, 72.2%)" fill-opacity="1">
<use xlink:href="#glyph-14-0-0ae0bead" x="1034.68174" y="134.355483"/>
</g>
<g fill="rgb(21.600001%, 49.399999%, 72.2%)" fill-opacity="1">
<use xlink:href="#glyph-15-0-0ae0bead" x="1048.12374" y="134.355483"/>
</g>
<g fill="rgb(21.600001%, 49.399999%, 72.2%)" fill-opacity="1">
<use xlink:href="#glyph-14-2-0ae0bead" x="1060.971741" y="134.355483"/>
</g>
<g fill="rgb(21.600001%, 49.399999%, 72.2%)" fill-opacity="1">
<use xlink:href="#glyph-16-0-0ae0bead" x="1073.203743" y="134.355483"/>
</g>
<g fill="rgb(21.600001%, 49.399999%, 72.2%)" fill-opacity="1">
<use xlink:href="#glyph-14-2-0ae0bead" x="1086.051742" y="134.355483"/>
</g>
<g fill="rgb(21.600001%, 49.399999%, 72.2%)" fill-opacity="1">
<use xlink:href="#glyph-16-1-0ae0bead" x="1098.283745" y="134.355483"/>
</g>
<g fill="rgb(21.600001%, 49.399999%, 72.2%)" fill-opacity="1">
<use xlink:href="#glyph-16-2-0ae0bead" x="1104.399742" y="134.355483"/>
</g>
<g fill="rgb(30.199999%, 68.599999%, 28.999999%)" fill-opacity="1">
<use xlink:href="#glyph-14-0-0ae0bead" x="1034.68174" y="154.143363"/>
</g>
<g fill="rgb(30.199999%, 68.599999%, 28.999999%)" fill-opacity="1">
<use xlink:href="#glyph-15-0-0ae0bead" x="1048.12374" y="154.143363"/>
</g>
<g fill="rgb(30.199999%, 68.599999%, 28.999999%)" fill-opacity="1">
<use xlink:href="#glyph-14-2-0ae0bead" x="1060.971741" y="154.143363"/>
</g>
<g fill="rgb(30.199999%, 68.599999%, 28.999999%)" fill-opacity="1">
<use xlink:href="#glyph-16-3-0ae0bead" x="1073.203743" y="154.143363"/>
</g>
<g fill="rgb(30.199999%, 68.599999%, 28.999999%)" fill-opacity="1">
<use xlink:href="#glyph-16-3-0ae0bead" x="1085.435745" y="154.143363"/>
</g>
<g fill="rgb(59.600002%, 30.599999%, 63.9%)" fill-opacity="1">
<use xlink:href="#glyph-17-0-0ae0bead" x="1034.68174" y="173.931242"/>
</g>
<g fill="rgb(59.600002%, 30.599999%, 63.9%)" fill-opacity="1">
<use xlink:href="#glyph-18-0-0ae0bead" x="1048.12374" y="173.931242"/>
</g>
<g fill="rgb(59.600002%, 30.599999%, 63.9%)" fill-opacity="1">
<use xlink:href="#glyph-17-1-0ae0bead" x="1060.971741" y="173.931242"/>
</g>
<g fill="rgb(59.600002%, 30.599999%, 63.9%)" fill-opacity="1">
<use xlink:href="#glyph-19-0-0ae0bead" x="1073.203743" y="173.931242"/>
</g>
<g fill="rgb(59.600002%, 30.599999%, 63.9%)" fill-opacity="1">
<use xlink:href="#glyph-17-2-0ae0bead" x="1086.051742" y="173.931242"/>
</g>
<path fill="none" stroke-width="1" stroke-linecap="butt" stroke-linejoin="miter" stroke="rgb(0%, 0%, 0%)" stroke-opacity="1" stroke-miterlimit="1.154701" d="M 138.773438 713.5 L 138.773438 718.5 "/>
<path fill="none" stroke-width="1" stroke-linecap="butt" stroke-linejoin="miter" stroke="rgb(0%, 0%, 0%)" stroke-opacity="1" stroke-miterlimit="1.154701" d="M 636.5 713.5 L 636.5 718.5 "/>
<path fill="none" stroke-width="1" stroke-linecap="butt" stroke-linejoin="miter" stroke="rgb(0%, 0%, 0%)" stroke-opacity="1" stroke-miterlimit="1.154701" d="M 1134.226562 713.5 L 1134.226562 718.5 "/>
<path fill="none" stroke-width="1" stroke-linecap="butt" stroke-linejoin="miter" stroke="rgb(0%, 0%, 0%)" stroke-opacity="1" stroke-miterlimit="1.154701" d="M 387.636719 713.5 L 387.636719 716.5 "/>
<path fill="none" stroke-width="1" stroke-linecap="butt" stroke-linejoin="miter" stroke="rgb(0%, 0%, 0%)" stroke-opacity="1" stroke-miterlimit="1.154701" d="M 885.363281 713.5 L 885.363281 716.5 "/>
<path fill="none" stroke-width="1" stroke-linecap="butt" stroke-linejoin="miter" stroke="rgb(0%, 0%, 0%)" stroke-opacity="1" stroke-miterlimit="1.154701" d="M 88.5 708.054688 L 83.5 708.054688 "/>
<path fill="none" stroke-width="1" stroke-linecap="butt" stroke-linejoin="miter" stroke="rgb(0%, 0%, 0%)" stroke-opacity="1" stroke-miterlimit="1.154701" d="M 88.5 460.703125 L 83.5 460.703125 "/>
<path fill="none" stroke-width="1" stroke-linecap="butt" stroke-linejoin="miter" stroke="rgb(0%, 0%, 0%)" stroke-opacity="1" stroke-miterlimit="1.154701" d="M 88.5 213.355469 L 83.5 213.355469 "/>
<path fill="none" stroke-width="1" stroke-linecap="butt" stroke-linejoin="miter" stroke="rgb(0%, 0%, 0%)" stroke-opacity="1" stroke-miterlimit="1.154701" d="M 88.5 584.378906 L 85.5 584.378906 "/>
<path fill="none" stroke-width="1" stroke-linecap="butt" stroke-linejoin="miter" stroke="rgb(0%, 0%, 0%)" stroke-opacity="1" stroke-miterlimit="1.154701" d="M 88.5 337.03125 L 85.5 337.03125 "/>
<path fill="none" stroke-width="1" stroke-linecap="butt" stroke-linejoin="miter" stroke="rgb(0%, 0%, 0%)" stroke-opacity="1" stroke-miterlimit="1.154701" d="M 88.5 89.683594 L 85.5 89.683594 "/>
<path fill="none" stroke-width="1" stroke-linecap="butt" stroke-linejoin="miter" stroke="rgb(0%, 0%, 0%)" stroke-opacity="1" stroke-miterlimit="1.154701" d="M 88.5 713 L 1184.5 713 "/>
<path fill="none" stroke-width="1" stroke-linecap="butt" stroke-linejoin="miter" stroke="rgb(0%, 0%, 0%)" stroke-opacity="1" stroke-miterlimit="1.154701" d="M 89 713.5 L 89 59.5 "/>
<path fill="none" stroke-width="1" stroke-linecap="butt" stroke-linejoin="miter" stroke="rgb(0%, 0%, 0%)" stroke-opacity="1" stroke-miterlimit="1.154701" d="M 88.5 60 L 1184.5 60 "/>
<path fill="none" stroke-width="1" stroke-linecap="butt" stroke-linejoin="miter" stroke="rgb(0%, 0%, 0%)" stroke-opacity="1" stroke-miterlimit="1.154701" d="M 1184 713.5 L 1184 59.5 "/>
</svg>
