<?xml version="1.0" encoding="UTF-8"?>
<svg xmlns="http://www.w3.org/2000/svg" xmlns:xlink="http://www.w3.org/1999/xlink" width="1200" height="800" viewBox="0 0 1200 800">
<defs>
<g>
<g id="glyph-0-0-34b37a70">
<path d="M 7.703125 -10.828125 C 4.609375 -10.78125 3.671875 -9.359375 3.671875 -6.53125 C 3.671875 -6.53125 3.671875 0 3.671875 0 C 3.671875 0 1.6875 0 1.6875 0 C 1.6875 0 1.6875 -12.578125 1.6875 -12.578125 C 1.6875 -12.578125 3.5 -12.578125 3.5 -12.578125 C 3.5 -12.578125 3.5 -10.296875 3.5 -10.296875 C 4.65625 -12.171875 5.640625 -12.9375 6.9375 -12.9375 C 7.203125 -12.9375 7.375 -12.90625 7.703125 -12.859375 C 7.703125 -12.859375 7.703125 -10.828125 7.703125 -10.828125 Z M 7.703125 -10.828125 "/>
</g>
<g id="glyph-1-0-34b37a70">
<path d="M 6.9375 0 C 6.9375 0 5.1875 0 5.1875 0 C 5.1875 0 5.1875 -10.09375 5.1875 -10.09375 C 5.1875 -10.09375 2.046875 -10.09375 2.046875 -10.09375 C 2.046875 -10.09375 2.046875 -11.359375 2.046875 -11.359375 C 4.765625 -11.703125 5.15625 -12 5.78125 -14.1875 C 5.78125 -14.1875 6.9375 -14.1875 6.9375 -14.1875 C 6.9375 -14.1875 6.9375 0 6.9375 0 Z M 6.9375 0 "/>
</g>
<g id="glyph-1-1-34b37a70">
<path d="M 10.140625 -6.8125 C 10.140625 -2.15625 8.5 0.296875 5.5 0.296875 C 2.453125 0.296875 0.859375 -2.15625 0.859375 -6.9375 C 0.859375 -11.703125 2.4375 -14.1875 5.5 -14.1875 C 8.578125 -14.1875 10.140625 -11.734375 10.140625 -6.8125 Z M 8.34375 -6.984375 C 8.34375 -10.78125 7.40625 -12.625 5.5 -12.625 C 3.59375 -12.625 2.65625 -10.796875 2.65625 -6.921875 C 2.65625 -3.046875 3.59375 -1.15625 5.453125 -1.15625 C 7.421875 -1.15625 8.34375 -2.953125 8.34375 -6.984375 Z M 8.34375 -6.984375 "/>
</g>
<g id="glyph-2-0-34b37a70">
<path d="M 10.140625 -6.8125 C 10.140625 -2.15625 8.5 0.296875 5.5 0.296875 C 2.453125 0.296875 0.859375 -2.15625 0.859375 -6.9375 C 0.859375 -11.703125 2.4375 -14.1875 5.5 -14.1875 C 8.578125 -14.1875 10.140625 -11.734375 10.140625 -6.8125 Z M 8.34375 -6.984375 C 8.34375 -10.78125 7.40625 -12.625 5.5 -12.625 C 3.59375 -12.625 2.65625 -10.796875 2.65625 -6.921875 C 2.65625 -3.046875 3.59375 -1.15625 5.453125 -1.15625 C 7.421875 -1.15625 8.34375 -2.953125 8.34375 -6.984375 Z M 8.34375 -6.984375 "/>
</g>
<g id="glyph-3-0-34b37a70">
<path d="M 6.8125 -2.859375 C 6.8125 -2.859375 0.890625 -2.859375 0.890625 -2.859375 C 0.890625 -2.859375 0.890625 -3.75 0.890625 -3.75 C 0.890625 -3.75 6.8125 -3.75 6.8125 -3.75 C 6.8125 -3.75 6.8125 -2.859375 6.8125 -2.859375 Z M 6.8125 -2.859375 "/>
</g>
<g id="glyph-4-0-34b37a70">
<path d="M 6.765625 -2.90625 C 6.765625 -1.0625 5.5 0.203125 3.703125 0.203125 C 1.578125 0.203125 0.5625 -1.34375 0.5625 -4.265625 C 0.5625 -7.53125 1.75 -9.359375 3.921875 -9.359375 C 5.34375 -9.359375 6.34375 -8.453125 6.578125 -6.921875 C 6.578125 -6.921875 5.40625 -6.921875 5.40625 -6.921875 C 5.234375 -7.8125 4.65625 -8.328125 3.84375 -8.328125 C 2.515625 -8.328125 1.765625 -7.0625 1.75 -4.78125 C 2.25 -5.46875 2.984375 -5.828125 3.90625 -5.828125 C 5.578125 -5.828125 6.765625 -4.640625 6.765625 -2.90625 Z M 5.578125 -2.8125 C 5.578125 -4.0625 4.890625 -4.796875 3.765625 -4.796875 C 2.609375 -4.796875 1.828125 -4.046875 1.828125 -2.875 C 1.828125 -1.671875 2.640625 -0.828125 3.71875 -0.828125 C 4.796875 -0.828125 5.578125 -1.640625 5.578125 -2.8125 Z M 5.578125 -2.8125 "/>
</g>
<g id="glyph-5-0-34b37a70">
<path d="M 10.140625 -6.8125 C 10.140625 -2.15625 8.5 0.296875 5.5 0.296875 C 2.453125 0.296875 0.859375 -2.15625 0.859375 -6.9375 C 0.859375 -11.703125 2.4375 -14.1875 5.5 -14.1875 C 8.578125 -14.1875 10.140625 -11.734375 10.140625 -6.8125 Z M 8.34375 -6.984375 C 8.34375 -10.78125 7.40625 -12.625 5.5 -12.625 C 3.59375 -12.625 2.65625 -10.796875 2.65625 -6.921875 C 2.65625 -3.046875 3.59375 -1.15625 5.453125 -1.15625 C 7.421875 -1.15625 8.34375 -2.953125 8.34375 -6.984375 Z M 8.34375 -6.984375 "/>
</g>
<g id="glyph-6-0-34b37a70">
<path d="M 6.8125 -2.859375 C 6.8125 -2.859375 0.890625 -2.859375 0.890625 -2.859375 C 0.890625 -2.859375 0.890625 -3.75 0.890625 -3.75 C 0.890625 -3.75 6.8125 -3.75 6.8125 -3.75 C 6.8125 -3.75 6.8125 -2.859375 6.8125 -2.859375 Z M 6.8125 -2.859375 "/>
</g>
<g id="glyph-7-0-34b37a70">
<path d="M 6.765625 -3.109375 C 6.765625 -1.125 5.453125 0.203125 3.5625 0.203125 C 1.90625 0.203125 0.84375 -0.546875 0.46875 -2.40625 C 0.46875 -2.40625 1.625 -2.40625 1.625 -2.40625 C 1.90625 -1.34375 2.515625 -0.828125 3.53125 -0.828125 C 4.8125 -0.828125 5.578125 -1.59375 5.578125 -2.9375 C 5.578125 -4.328125 4.796875 -5.140625 3.53125 -5.140625 C 2.8125 -5.140625 2.359375 -4.90625 1.828125 -4.265625 C 1.828125 -4.265625 0.75 -4.265625 0.75 -4.265625 C 0.75 -4.265625 1.453125 -9.15625 1.453125 -9.15625 C 1.453125 -9.15625 6.28125 -9.15625 6.28125 -9.15625 C 6.28125 -9.15625 6.28125 -8.015625 6.28125 -8.015625 C 6.28125 -8.015625 2.390625 -8.015625 2.390625 -8.015625 C 2.390625 -8.015625 2.015625 -5.59375 2.015625 -5.59375 C 2.5625 -6 3.09375 -6.171875 3.75 -6.171875 C 5.546875 -6.171875 6.765625 -4.953125 6.765625 -3.109375 Z M 6.765625 -3.109375 "/>
</g>
<g id="glyph-7-1-34b37a70">
<path d="M 6.859375 -2.25 C 6.859375 -2.25 5.484375 -2.25 5.484375 -2.25 C 5.484375 -2.25 5.484375 0 5.484375 0 C 5.484375 0 4.3125 0 4.3125 0 C 4.3125 0 4.3125 -2.25 4.3125 -2.25 C 4.3125 -2.25 0.375 -2.25 0.375 -2.25 C 0.375 -2.25 0.375 -3.46875 0.375 -3.46875 C 0.375 -3.46875 4.625 -9.359375 4.625 -9.359375 C 4.625 -9.359375 5.484375 -9.359375 5.484375 -9.359375 C 5.484375 -9.359375 5.484375 -3.28125 5.484375 -3.28125 C 5.484375 -3.28125 6.859375 -3.28125 6.859375 -3.28125 C 6.859375 -3.28125 6.859375 -2.25 6.859375 -2.25 Z M 4.3125 -3.28125 C 4.3125 -3.28125 4.3125 -7.375 4.3125 -7.375 C 4.3125 -7.375 1.390625 -3.28125 1.390625 -3.28125 C 1.390625 -3.28125 4.3125 -3.28125 4.3125 -3.28125 Z M 4.3125 -3.28125 "/>
</g>
<g id="glyph-8-0-34b37a70">
<path d="M 6.9375 0 C 6.9375 0 5.1875 0 5.1875 0 C 5.1875 0 5.1875 -10.09375 5.1875 -10.09375 C 5.1875 -10.09375 2.046875 -10.09375 2.046875 -10.09375 C 2.046875 -10.09375 2.046875 -11.359375 2.046875 -11.359375 C 4.765625 -11.703125 5.15625 -12 5.78125 -14.1875 C 5.78125 -14.1875 6.9375 -14.1875 6.9375 -14.1875 C 6.9375 -14.1875 6.9375 0 6.9375 0 Z M 6.9375 0 "/>
</g>
<g id="glyph-8-1-34b37a70">
<path d="M 10.140625 -6.8125 C 10.140625 -2.15625 8.5 0.296875 5.5 0.296875 C 2.453125 0.296875 0.859375 -2.15625 0.859375 -6.9375 C 0.859375 -11.703125 2.4375 -14.1875 5.5 -14.1875 C 8.578125 -14.1875 10.140625 -11.734375 10.140625 -6.8125 Z M 8.34375 -6.984375 C 8.34375 -10.78125 7.40625 -12.625 5.5 -12.625 C 3.59375 -12.625 2.65625 -10.796875 2.65625 -6.921875 C 2.65625 -3.046875 3.59375 -1.15625 5.453125 -1.15625 C 7.421875 -1.15625 8.34375 -2.953125 8.34375 -6.984375 Z M 8.34375 -6.984375 "/>
</g>
<g id="glyph-9-0-34b37a70">
<path d="M 10.140625 -6.8125 C 10.140625 -2.15625 8.5 0.296875 5.5 0.296875 C 2.453125 0.296875 0.859375 -2.15625 0.859375 -6.9375 C 0.859375 -11.703125 2.4375 -14.1875 5.5 -14.1875 C 8.578125 -14.1875 10.140625 -11.734375 10.140625 -6.8125 Z M 8.34375 -6.984375 C 8.34375 -10.78125 7.40625 -12.625 5.5 -12.625 C 3.59375 -12.625 2.65625 -10.796875 2.65625 -6.921875 C 2.65625 -3.046875 3.59375 -1.15625 5.453125 -1.15625 C 7.421875 -1.15625 8.34375 -2.953125 8.34375 -6.984375 Z M 8.34375 -6.984375 "/>
</g>
<g id="glyph-9-1-34b37a70">
<path d="M 6.9375 0 C 6.9375 0 5.1875 0 5.1875 0 C 5.1875 0 5.1875 -10.09375 5.1875 -10.09375 C 5.1875 -10.09375 2.046875 -10.09375 2.046875 -10.09375 C 2.046875 -10.09375 2.046875 -11.359375 2.046875 -11.359375 C 4.765625 -11.703125 5.15625 -12 5.78125 -14.1875 C 5.78125 -14.1875 6.9375 -14.1875 6.9375 -14.1875 C 6.9375 -14.1875 6.9375 0 6.9375 0 Z M 6.9375 0 "/>
</g>
<g id="glyph-10-0-34b37a70">
<path d="M 6.8125 -2.859375 C 6.8125 -2.859375 0.890625 -2.859375 0.890625 -2.859375 C 0.890625 -2.859375 0.890625 -3.75 0.890625 -3.75 C 0.890625 -3.75 6.8125 -3.75 6.8125 -3.75 C 6.8125 -3.75 6.8125 -2.859375 6.8125 -2.859375 Z M 6.8125 -2.859375 "/>
</g>
<g id="glyph-10-1-34b37a70">
<path d="M 6.6875 -2.71875 C 6.6875 -0.953125 5.4375 0.203125 3.515625 0.203125 C 1.59375 0.203125 0.5625 -0.734375 0.421875 -2.828125 C 0.421875 -2.828125 1.578125 -2.828125 1.578125 -2.828125 C 1.65625 -1.46875 2.28125 -0.828125 3.546875 -0.828125 C 4.765625 -0.828125 5.5 -1.53125 5.5 -2.703125 C 5.5 -3.75 4.828125 -4.359375 3.546875 -4.359375 C 3.546875 -4.359375 2.921875 -4.359375 2.921875 -4.359375 C 2.921875 -4.359375 2.921875 -5.328125 2.921875 -5.328125 C 4.78125 -5.328125 5.21875 -5.75 5.21875 -6.75 C 5.21875 -7.734375 4.59375 -8.34375 3.5625 -8.34375 C 2.375 -8.34375 1.8125 -7.71875 1.78125 -6.34375 C 1.78125 -6.34375 0.625 -6.34375 0.625 -6.34375 C 0.65625 -8.328125 1.65625 -9.359375 3.546875 -9.359375 C 5.328125 -9.359375 6.40625 -8.390625 6.40625 -6.78125 C 6.40625 -5.84375 5.96875 -5.234375 5.09375 -4.890625 C 6.21875 -4.515625 6.6875 -3.859375 6.6875 -2.71875 Z M 6.6875 -2.71875 "/>
</g>
<g id="glyph-10-2-34b37a70">
<path d="M 6.75 -6.609375 C 6.75 -5.46875 6.078125 -4.484375 4.765625 -3.796875 C 4.765625 -3.796875 3.453125 -3.078125 3.453125 -3.078125 C 2.296875 -2.40625 1.875 -1.921875 1.75 -1.15625 C 1.75 -1.15625 6.6875 -1.15625 6.6875 -1.15625 C 6.6875 -1.15625 6.6875 0 6.6875 0 C 6.6875 0 0.453125 0 0.453125 0 C 0.546875 -2.0625 1.125 -2.9375 3.078125 -4.046875 C 3.078125 -4.046875 4.296875 -4.734375 4.296875 -4.734375 C 5.125 -5.21875 5.5625 -5.84375 5.5625 -6.59375 C 5.5625 -7.59375 4.765625 -8.34375 3.703125 -8.34375 C 2.5625 -8.34375 1.921875 -7.6875 1.828125 -6.109375 C 1.828125 -6.109375 0.65625 -6.109375 0.65625 -6.109375 C 0.71875 -8.390625 1.828125 -9.359375 3.75 -9.359375 C 5.515625 -9.359375 6.75 -8.203125 6.75 -6.609375 Z M 6.75 -6.609375 "/>
</g>
<g id="glyph-10-3-34b37a70">
<path d="M 6.6875 -4.5 C 6.6875 -1.421875 5.609375 0.203125 3.625 0.203125 C 1.625 0.203125 0.5625 -1.421875 0.5625 -4.578125 C 0.5625 -7.71875 1.609375 -9.359375 3.625 -9.359375 C 5.671875 -9.359375 6.6875 -7.75 6.6875 -4.5 Z M 5.5 -4.609375 C 5.5 -7.109375 4.890625 -8.328125 3.625 -8.328125 C 2.375 -8.328125 1.75 -7.125 1.75 -4.5625 C 1.75 -2 2.375 -0.765625 3.609375 -0.765625 C 4.890625 -0.765625 5.5 -1.953125 5.5 -4.609375 Z M 5.5 -4.609375 "/>
</g>
<g id="glyph-11-0-34b37a70">
<path d="M 6.8125 -2.859375 C 6.8125 -2.859375 0.890625 -2.859375 0.890625 -2.859375 C 0.890625 -2.859375 0.890625 -3.75 0.890625 -3.75 C 0.890625 -3.75 6.8125 -3.75 6.8125 -3.75 C 6.8125 -3.75 6.8125 -2.859375 6.8125 -2.859375 Z M 6.8125 -2.859375 "/>
</g>
<g id="glyph-12-0-34b37a70">
<path d="M 4.578125 0 C 4.578125 0 3.421875 0 3.421875 0 C 3.421875 0 3.421875 -6.671875 3.421875 -6.671875 C 3.421875 -6.671875 1.34375 -6.671875 1.34375 -6.671875 C 1.34375 -6.671875 1.34375 -7.5 1.34375 -7.5 C 3.140625 -7.71875 3.40625 -7.921875 3.8125 -9.359375 C 3.8125 -9.359375 4.578125 -9.359375 4.578125 -9.359375 C 4.578125 -9.359375 4.578125 0 4.578125 0 Z M 4.578125 0 "/>
</g>
<g id="glyph-13-0-34b37a70">
<path d="M 10.140625 -6.8125 C 10.140625 -2.15625 8.5 0.296875 5.5 0.296875 C 2.453125 0.296875 0.859375 -2.15625 0.859375 -6.9375 C 0.859375 -11.703125 2.4375 -14.1875 5.5 -14.1875 C 8.578125 -14.1875 10.140625 -11.734375 10.140625 -6.8125 Z M 8.34375 -6.984375 C 8.34375 -10.78125 7.40625 -12.625 5.5 -12.625 C 3.59375 -12.625 2.65625 -10.796875 2.65625 -6.921875 C 2.65625 -3.046875 3.59375 -1.15625 5.453125 -1.15625 C 7.421875 -1.15625 8.34375 -2.953125 8.34375 -6.984375 Z M 8.34375 -6.984375 "/>
</g>
<g id="glyph-14-0-34b37a70">
<path d="M 0 -15.5 C 0 -15.5 0 -12.984375 0 -12.984375 C 0 -12.984375 -14.1875 -3.9375 -14.1875 -3.9375 C -14.1875 -3.9375 0 -3.9375 0 -3.9375 C 0 -3.9375 0 -1.828125 0 -1.828125 C 0 -1.828125 -17.5 -1.828125 -17.5 -1.828125 C -17.5 -1.828125 -17.5 -4.25 -17.5 -4.25 C -17.5 -4.25 -3.1875 -13.390625 -3.1875 -13.390625 C -3.1875 -13.390625 -17.5 -13.390625 -17.5 -13.390625 C -17.5 -13.390625 -17.5 -15.5 -17.5 -15.5 C -17.5 -15.5 0 -15.5 0 -15.5 Z M 0 -15.5 "/>
</g>
<g id="glyph-15-0-34b37a70">
<path d="M 6.9375 0 C 6.9375 0 5.1875 0 5.1875 0 C 5.1875 0 5.1875 -10.09375 5.1875 -10.09375 C 5.1875 -10.09375 2.046875 -10.09375 2.046875 -10.09375 C 2.046875 -10.09375 2.046875 -11.359375 2.046875 -11.359375 C 4.765625 -11.703125 5.15625 -12 5.78125 -14.1875 C 5.78125 -14.1875 6.9375 -14.1875 6.9375 -14.1875 C 6.9375 -14.1875 6.9375 0 6.9375 0 Z M 6.9375 0 "/>
</g>
<g id="glyph-16-0-34b37a70">
<path d="M 10.140625 -6.8125 C 10.140625 -2.15625 8.5 0.296875 5.5 0.296875 C 2.453125 0.296875 0.859375 -2.15625 0.859375 -6.9375 C 0.859375 -11.703125 2.4375 -14.1875 5.5 -14.1875 C 8.578125 -14.1875 10.140625 -11.734375 10.140625 -6.8125 Z M 8.34375 -6.984375 C 8.34375 -10.78125 7.40625 -12.625 5.5 -12.625 C 3.59375 -12.625 2.65625 -10.796875 2.65625 -6.921875 C 2.65625 -3.046875 3.59375 -1.15625 5.453125 -1.15625 C 7.421875 -1.15625 8.34375 -2.953125 8.34375 -6.984375 Z M 8.34375 -6.984375 "/>
</g>
<g id="glyph-17-0-34b37a70">
<path d="M 4.578125 0 C 4.578125 0 3.421875 0 3.421875 0 C 3.421875 0 3.421875 -6.671875 3.421875 -6.671875 C 3.421875 -6.671875 1.34375 -6.671875 1.34375 -6.671875 C 1.34375 -6.671875 1.34375 -7.5 1.34375 -7.5 C 3.140625 -7.71875 3.40625 -7.921875 3.8125 -9.359375 C 3.8125 -9.359375 4.578125 -9.359375 4.578125 -9.359375 C 4.578125 -9.359375 4.578125 0 4.578125 0 Z M 4.578125 0 "/>
</g>
<g id="glyph-18-0-34b37a70">
<path d="M 6.9375 0 C 6.9375 0 5.1875 0 5.1875 0 C 5.1875 0 5.1875 -10.09375 5.1875 -10.09375 C 5.1875 -10.09375 2.046875 -10.09375 2.046875 -10.09375 C 2.046875 -10.09375 2.046875 -11.359375 2.046875 -11.359375 C 4.765625 -11.703125 5.15625 -12 5.78125 -14.1875 C 5.78125 -14.1875 6.9375 -14.1875 6.9375 -14.1875 C 6.9375 -14.1875 6.9375 0 6.9375 0 Z M 6.9375 0 "/>
</g>
<g id="glyph-19-0-34b37a70">
<path d="M 10.140625 -6.8125 C 10.140625 -2.15625 8.5 0.296875 5.5 0.296875 C 2.453125 0.296875 0.859375 -2.15625 0.859375 -6.9375 C 0.859375 -11.703125 2.4375 -14.1875 5.5 -14.1875 C 8.578125 -14.1875 10.140625 -11.734375 10.140625 -6.8125 Z M 8.34375 -6.984375 C 8.34375 -10.78125 7.40625 -12.625 5.5 -12.625 C 3.59375 -12.625 2.65625 -10.796875 2.65625 -6.921875 C 2.65625 -3.046875 3.59375 -1.15625 5.453125 -1.15625 C 7.421875 -1.15625 8.34375 -2.953125 8.34375 -6.984375 Z M 8.34375 -6.984375 "/>
</g>
<g id="glyph-20-0-34b37a70">
<path d="M 6.75 -6.609375 C 6.75 -5.46875 6.078125 -4.484375 4.765625 -3.796875 C 4.765625 -3.796875 3.453125 -3.078125 3.453125 -3.078125 C 2.296875 -2.40625 1.875 -1.921875 1.75 -1.15625 C 1.75 -1.15625 6.6875 -1.15625 6.6875 -1.15625 C 6.6875 -1.15625 6.6875 0 6.6875 0 C 6.6875 0 0.453125 0 0.453125 0 C 0.546875 -2.0625 1.125 -2.9375 3.078125 -4.046875 C 3.078125 -4.046875 4.296875 -4.734375 4.296875 -4.734375 C 5.125 -5.21875 5.5625 -5.84375 5.5625 -6.59375 C 5.5625 -7.59375 4.765625 -8.34375 3.703125 -8.34375 C 2.5625 -8.34375 1.921875 -7.6875 1.828125 -6.109375 C 1.828125 -6.109375 0.65625 -6.109375 0.65625 -6.109375 C 0.71875 -8.390625 1.828125 -9.359375 3.75 -9.359375 C 5.515625 -9.359375 6.75 -8.203125 6.75 -6.609375 Z M 6.75 -6.609375 "/>
</g>
<g id="glyph-21-0-34b37a70">
<path d="M 6.9375 0 C 6.9375 0 5.1875 0 5.1875 0 C 5.1875 0 5.1875 -10.09375 5.1875 -10.09375 C 5.1875 -10.09375 2.046875 -10.09375 2.046875 -10.09375 C 2.046875 -10.09375 2.046875 -11.359375 2.046875 -11.359375 C 4.765625 -11.703125 5.15625 -12 5.78125 -14.1875 C 5.78125 -14.1875 6.9375 -14.1875 6.9375 -14.1875 C 6.9375 -14.1875 6.9375 0 6.9375 0 Z M 6.9375 0 "/>
</g>
<g id="glyph-22-0-34b37a70">
<path d="M 10.140625 -6.8125 C 10.140625 -2.15625 8.5 0.296875 5.5 0.296875 C 2.453125 0.296875 0.859375 -2.15625 0.859375 -6.9375 C 0.859375 -11.703125 2.4375 -14.1875 5.5 -14.1875 C 8.578125 -14.1875 10.140625 -11.734375 10.140625 -6.8125 Z M 8.34375 -6.984375 C 8.34375 -10.78125 7.40625 -12.625 5.5 -12.625 C 3.59375 -12.625 2.65625 -10.796875 2.65625 -6.921875 C 2.65625 -3.046875 3.59375 -1.15625 5.453125 -1.15625 C 7.421875 -1.15625 8.34375 -2.953125 8.34375 -6.984375 Z M 8.34375 -6.984375 "/>
</g>
<g id="glyph-23-0-34b37a70">
<path d="M 6.6875 -2.71875 C 6.6875 -0.953125 5.4375 0.203125 3.515625 0.203125 C 1.59375 0.203125 0.5625 -0.734375 0.421875 -2.828125 C 0.421875 -2.828125 1.578125 -2.828125 1.578125 -2.828125 C 1.65625 -1.46875 2.28125 -0.828125 3.546875 -0.828125 C 4.765625 -0.828125 5.5 -1.53125 5.5 -2.703125 C 5.5 -3.75 4.828125 -4.359375 3.546875 -4.359375 C 3.546875 -4.359375 2.921875 -4.359375 2.921875 -4.359375 C 2.921875 -4.359375 2.921875 -5.328125 2.921875 -5.328125 C 4.78125 -5.328125 5.21875 -5.75 5.21875 -6.75 C 5.21875 -7.734375 4.59375 -8.34375 3.5625 -8.34375 C 2.375 -8.34375 1.8125 -7.71875 1.78125 -6.34375 C 1.78125 -6.34375 0.625 -6.34375 0.625 -6.34375 C 0.65625 -8.328125 1.65625 -9.359375 3.546875 -9.359375 C 5.328125 -9.359375 6.40625 -8.390625 6.40625 -6.78125 C 6.40625 -5.84375 5.96875 -5.234375 5.09375 -4.890625 C 6.21875 -4.515625 6.6875 -3.859375 6.6875 -2.71875 Z M 6.6875 -2.71875 "/>
</g>
<g id="glyph-24-0-34b37a70">
<path d="M 10.34375 -7.0625 C 10.34375 -1.453125 8.34375 0.1875 5.453125 0.1875 C 1.359375 0.1875 0.578125 -3.1875 0.578125 -7.140625 C 0.578125 -11.21875 1.40625 -14.484375 5.453125 -14.484375 C 9.625 -14.484375 10.34375 -11.078125 10.34375 -7.0625 Z M 7.546875 -7.125 C 7.546875 -11.515625 6.84375 -12.21875 5.453125 -12.21875 C 3.953125 -12.21875 3.375 -11.28125 3.375 -7.15625 C 3.375 -2.9375 4.046875 -2.21875 5.453125 -2.21875 C 6.953125 -2.21875 7.546875 -3.140625 7.546875 -7.125 Z M 7.546875 -7.125 "/>
</g>
<g id="glyph-24-1-34b37a70">
<path d="M 10.5 -5 C 10.5 -5 10.484375 -4.65625 10.484375 -4.65625 C 10.484375 -4.65625 3.234375 -4.65625 3.234375 -4.65625 C 3.3125 -2.5625 4.15625 -1.953125 5.484375 -1.953125 C 6.5 -1.953125 7.375 -2.265625 7.625 -3.046875 C 7.625 -3.046875 10.375 -3.046875 10.375 -3.046875 C 9.765625 -0.921875 7.796875 0.1875 5.375 0.1875 C 2.3125 0.1875 0.4375 -1.796875 0.4375 -5.265625 C 0.4375 -8.875 2.34375 -10.984375 5.4375 -10.984375 C 8.625 -10.984375 10.5 -8.71875 10.5 -5 Z M 7.578125 -6.515625 C 7.4375 -8.0625 6.59375 -8.84375 5.40625 -8.84375 C 4.15625 -8.84375 3.453125 -8.015625 3.28125 -6.515625 C 3.28125 -6.515625 7.578125 -6.515625 7.578125 -6.515625 Z M 7.578125 -6.515625 "/>
</g>
<g id="glyph-24-2-34b37a70">
<path d="M 13.21875 0 C 13.21875 0 10.21875 0 10.21875 0 C 10.21875 0 4.359375 -10.078125 4.359375 -10.078125 C 4.359375 -10.078125 4.359375 0 4.359375 0 C 4.359375 0 1.359375 0 1.359375 0 C 1.359375 0 1.359375 -14.578125 1.359375 -14.578125 C 1.359375 -14.578125 4.4375 -14.578125 4.4375 -14.578125 C 4.4375 -14.578125 10.21875 -4.65625 10.21875 -4.65625 C 10.21875 -4.65625 10.21875 -14.578125 10.21875 -14.578125 C 10.21875 -14.578125 13.21875 -14.578125 13.21875 -14.578125 C 13.21875 -14.578125 13.21875 0 13.21875 0 Z M 13.21875 0 "/>
</g>
<g id="glyph-25-0-34b37a70">
</g>
<g id="glyph-25-1-34b37a70">
<path d="M 12.9375 -14.578125 C 12.9375 -14.578125 7.9375 0 7.9375 0 C 7.9375 0 5.40625 0 5.40625 0 C 5.40625 0 0.484375 -14.578125 0.484375 -14.578125 C 0.484375 -14.578125 3.5 -14.578125 3.5 -14.578125 C 3.5 -14.578125 6.734375 -3.59375 6.734375 -3.59375 C 6.734375 -3.59375 9.921875 -14.578125 9.921875 -14.578125 C 9.921875 -14.578125 12.9375 -14.578125 12.9375 -14.578125 Z M 12.9375 -14.578125 "/>
</g>
<g id="glyph-25-2-34b37a70">
<path d="M 4.28125 -0.1875 C 4.28125 1.375 4 2.125 3.203125 2.734375 C 2.65625 3.15625 2.09375 3.375 1.28125 3.484375 C 1.28125 3.484375 1.28125 2.359375 1.28125 2.359375 C 2.453125 2.125 3 1.421875 3 0.0625 C 3 0.0625 3 0 3 0 C 3 0 1.28125 0 1.28125 0 C 1.28125 0 1.28125 -2.921875 1.28125 -2.921875 C 1.28125 -2.921875 4.28125 -2.921875 4.28125 -2.921875 C 4.28125 -2.921875 4.28125 -0.1875 4.28125 -0.1875 Z M 4.28125 -0.1875 "/>
</g>
<g id="glyph-26-0-34b37a70">
</g>
<g id="glyph-27-0-34b37a70">
<path d="M 14.84375 -7.203125 C 14.84375 -2.9375 12.0625 0.234375 7.8125 0.234375 C 3.546875 0.234375 0.796875 -2.9375 0.796875 -7.296875 C 0.796875 -11.484375 3.515625 -14.8125 7.796875 -14.8125 C 12.0625 -14.8125 14.84375 -11.59375 14.84375 -7.203125 Z M 11.84375 -7.21875 C 11.84375 -10.265625 10.28125 -12.265625 7.8125 -12.265625 C 5.40625 -12.265625 3.796875 -10.234375 3.796875 -7.296875 C 3.796875 -4.234375 5.40625 -2.3125 7.8125 -2.3125 C 10.21875 -2.3125 11.84375 -4.234375 11.84375 -7.21875 Z M 11.84375 -7.21875 "/>
</g>
<g id="glyph-28-0-34b37a70">
<path d="M 10.34375 -7.0625 C 10.34375 -1.453125 8.34375 0.1875 5.453125 0.1875 C 1.359375 0.1875 0.578125 -3.1875 0.578125 -7.140625 C 0.578125 -11.21875 1.40625 -14.484375 5.453125 -14.484375 C 9.625 -14.484375 10.34375 -11.078125 10.34375 -7.0625 Z M 7.546875 -7.125 C 7.546875 -11.515625 6.84375 -12.21875 5.453125 -12.21875 C 3.953125 -12.21875 3.375 -11.28125 3.375 -7.15625 C 3.375 -2.9375 4.046875 -2.21875 5.453125 -2.21875 C 6.953125 -2.21875 7.546875 -3.140625 7.546875 -7.125 Z M 7.546875 -7.125 "/>
</g>
<g id="glyph-28-1-34b37a70">
<path d="M 10.5 -5 C 10.5 -5 10.484375 -4.65625 10.484375 -4.65625 C 10.484375 -4.65625 3.234375 -4.65625 3.234375 -4.65625 C 3.3125 -2.5625 4.15625 -1.953125 5.484375 -1.953125 C 6.5 -1.953125 7.375 -2.265625 7.625 -3.046875 C 7.625 -3.046875 10.375 -3.046875 10.375 -3.046875 C 9.765625 -0.921875 7.796875 0.1875 5.375 0.1875 C 2.3125 0.1875 0.4375 -1.796875 0.4375 -5.265625 C 0.4375 -8.875 2.34375 -10.984375 5.4375 -10.984375 C 8.625 -10.984375 10.5 -8.71875 10.5 -5 Z M 7.578125 -6.515625 C 7.4375 -8.0625 6.59375 -8.84375 5.40625 -8.84375 C 4.15625 -8.84375 3.453125 -8.015625 3.28125 -6.515625 C 3.28125 -6.515625 7.578125 -6.515625 7.578125 -6.515625 Z M 7.578125 -6.515625 "/>
</g>
<g id="glyph-28-2-34b37a70">
<path d="M 4.265625 0 C 4.265625 0 1.265625 0 1.265625 0 C 1.265625 0 1.265625 -14.578125 1.265625 -14.578125 C 1.265625 -14.578125 4.265625 -14.578125 4.265625 -14.578125 C 4.265625 -14.578125 4.265625 0 4.265625 0 Z M 4.265625 0 "/>
</g>
<g id="glyph-28-3-34b37a70">
<path d="M 14.84375 -7.203125 C 14.84375 -2.9375 12.0625 0.234375 7.8125 0.234375 C 3.546875 0.234375 0.796875 -2.9375 0.796875 -7.296875 C 0.796875 -11.484375 3.515625 -14.8125 7.796875 -14.8125 C 12.0625 -14.8125 14.84375 -11.59375 14.84375 -7.203125 Z M 11.84375 -7.21875 C 11.84375 -10.265625 10.28125 -12.265625 7.8125 -12.265625 C 5.40625 -12.265625 3.796875 -10.234375 3.796875 -7.296875 C 3.796875 -4.234375 5.40625 -2.3125 7.8125 -2.3125 C 10.21875 -2.3125 11.84375 -4.234375 11.84375 -7.21875 Z M 11.84375 -7.21875 "/>
</g>
<g id="glyph-29-0-34b37a70">
</g>
<g id="glyph-29-1-34b37a70">
<path d="M 12.9375 -14.578125 C 12.9375 -14.578125 7.9375 0 7.9375 0 C 7.9375 0 5.40625 0 5.40625 0 C 5.40625 0 0.484375 -14.578125 0.484375 -14.578125 C 0.484375 -14.578125 3.5 -14.578125 3.5 -14.578125 C 3.5 -14.578125 6.734375 -3.59375 6.734375 -3.59375 C 6.734375 -3.59375 9.921875 -14.578125 9.921875 -14.578125 C 9.921875 -14.578125 12.9375 -14.578125 12.9375 -14.578125 Z M 12.9375 -14.578125 "/>
</g>
<g id="glyph-29-2-34b37a70">
<path d="M 4.28125 -0.1875 C 4.28125 1.375 4 2.125 3.203125 2.734375 C 2.65625 3.15625 2.09375 3.375 1.28125 3.484375 C 1.28125 3.484375 1.28125 2.359375 1.28125 2.359375 C 2.453125 2.125 3 1.421875 3 0.0625 C 3 0.0625 3 0 3 0 C 3 0 1.28125 0 1.28125 0 C 1.28125 0 1.28125 -2.921875 1.28125 -2.921875 C 1.28125 -2.921875 4.28125 -2.921875 4.28125 -2.921875 C 4.28125 -2.921875 4.28125 -0.1875 4.28125 -0.1875 Z M 4.28125 -0.1875 "/>
</g>
<g id="glyph-30-0-34b37a70">
</g>
<g id="glyph-31-0-34b37a70">
<path d="M 7.5625 0 C 7.5625 0 4.765625 0 4.765625 0 C 4.765625 0 4.765625 -9.78125 4.765625 -9.78125 C 4.765625 -9.78125 1.359375 -9.78125 1.359375 -9.78125 C 1.359375 -9.78125 1.359375 -11.640625 1.359375 -11.640625 C 3.796875 -11.640625 5.265625 -12.5 5.703125 -14.1875 C 5.703125 -14.1875 7.5625 -14.1875 7.5625 -14.1875 C 7.5625 -14.1875 7.5625 0 7.5625 0 Z M 7.5625 0 "/>
</g>
<g id="glyph-31-1-34b37a70">
<path d="M 12.9375 -14.578125 C 12.9375 -14.578125 7.9375 0 7.9375 0 C 7.9375 0 5.40625 0 5.40625 0 C 5.40625 0 0.484375 -14.578125 0.484375 -14.578125 C 0.484375 -14.578125 3.5 -14.578125 3.5 -14.578125 C 3.5 -14.578125 6.734375 -3.59375 6.734375 -3.59375 C 6.734375 -3.59375 9.921875 -14.578125 9.921875 -14.578125 C 9.921875 -14.578125 12.9375 -14.578125 12.9375 -14.578125 Z M 12.9375 -14.578125 "/>
</g>
<g id="glyph-31-2-34b37a70">
<path d="M 4.28125 -0.1875 C 4.28125 1.375 4 2.125 3.203125 2.734375 C 2.65625 3.15625 2.09375 3.375 1.28125 3.484375 C 1.28125 3.484375 1.28125 2.359375 1.28125 2.359375 C 2.453125 2.125 3 1.421875 3 0.0625 C 3 0.0625 3 0 3 0 C 3 0 1.28125 0 1.28125 0 C 1.28125 0 1.28125 -2.921875 1.28125 -2.921875 C 1.28125 -2.921875 4.28125 -2.921875 4.28125 -2.921875 C 4.28125 -2.921875 4.28125 -0.1875 4.28125 -0.1875 Z M 4.28125 -0.1875 "/>
</g>
<g id="glyph-31-3-34b37a70">
<path d="M 10.34375 -7.0625 C 10.34375 -1.453125 8.34375 0.1875 5.453125 0.1875 C 1.359375 0.1875 0.578125 -3.1875 0.578125 -7.140625 C 0.578125 -11.21875 1.40625 -14.484375 5.453125 -14.484375 C 9.625 -14.484375 10.34375 -11.078125 10.34375 -7.0625 Z M 7.546875 -7.125 C 7.546875 -11.515625 6.84375 -12.21875 5.453125 -12.21875 C 3.953125 -12.21875 3.375 -11.28125 3.375 -7.15625 C 3.375 -2.9375 4.046875 -2.21875 5.453125 -2.21875 C 6.953125 -2.21875 7.546875 -3.140625 7.546875 -7.125 Z M 7.546875 -7.125 "/>
</g>
<g id="glyph-32-0-34b37a70">
<path d="M 10.34375 -7.0625 C 10.34375 -1.453125 8.34375 0.1875 5.453125 0.1875 C 1.359375 0.1875 0.578125 -3.1875 0.578125 -7.140625 C 0.578125 -11.21875 1.40625 -14.484375 5.453125 -14.484375 C 9.625 -14.484375 10.34375 -11.078125 10.34375 -7.0625 Z M 7.546875 -7.125 C 7.546875 -11.515625 6.84375 -12.21875 5.453125 -12.21875 C 3.953125 -12.21875 3.375 -11.28125 3.375 -7.15625 C 3.375 -2.9375 4.046875 -2.21875 5.453125 -2.21875 C 6.953125 -2.21875 7.546875 -3.140625 7.546875 -7.125 Z M 7.546875 -7.125 "/>
</g>
<g id="glyph-32-1-34b37a70">
</g>
<g id="glyph-32-2-34b37a70">
<path d="M 10.5 -5 C 10.5 -5 10.484375 -4.65625 10.484375 -4.65625 C 10.484375 -4.65625 3.234375 -4.65625 3.234375 -4.65625 C 3.3125 -2.5625 4.15625 -1.953125 5.484375 -1.953125 C 6.5 -1.953125 7.375 -2.265625 7.625 -3.046875 C 7.625 -3.046875 10.375 -3.046875 10.375 -3.046875 C 9.765625 -0.921875 7.796875 0.1875 5.375 0.1875 C 2.3125 0.1875 0.4375 -1.796875 0.4375 -5.265625 C 0.4375 -8.875 2.34375 -10.984375 5.4375 -10.984375 C 8.625 -10.984375 10.5 -8.71875 10.5 -5 Z M 7.578125 -6.515625 C 7.4375 -8.0625 6.59375 -8.84375 5.40625 -8.84375 C 4.15625 -8.84375 3.453125 -8.015625 3.28125 -6.515625 C 3.28125 -6.515625 7.578125 -6.515625 7.578125 -6.515625 Z M 7.578125 -6.515625 "/>
</g>
<g id="glyph-32-3-34b37a70">
<path d="M 13.21875 0 C 13.21875 0 10.21875 0 10.21875 0 C 10.21875 0 4.359375 -10.078125 4.359375 -10.078125 C 4.359375 -10.078125 4.359375 0 4.359375 0 C 4.359375 0 1.359375 0 1.359375 0 C 1.359375 0 1.359375 -14.578125 1.359375 -14.578125 C 1.359375 -14.578125 4.4375 -14.578125 4.4375 -14.578125 C 4.4375 -14.578125 10.21875 -4.65625 10.21875 -4.65625 C 10.21875 -4.65625 10.21875 -14.578125 10.21875 -14.578125 C 10.21875 -14.578125 13.21875 -14.578125 13.21875 -14.578125 C 13.21875 -14.578125 13.21875 0 13.21875 0 Z M 13.21875 0 "/>
</g>
<g id="glyph-32-4-34b37a70">
<path d="M 4.265625 0 C 4.265625 0 1.265625 0 1.265625 0 C 1.265625 0 1.265625 -14.578125 1.265625 -14.578125 C 1.265625 -14.578125 4.265625 -14.578125 4.265625 -14.578125 C 4.265625 -14.578125 4.265625 0 4.265625 0 Z M 4.265625 0 "/>
</g>
<g id="glyph-32-5-34b37a70">
<path d="M 4.28125 0 C 4.28125 0 1.28125 0 1.28125 0 C 1.28125 0 1.28125 -2.921875 1.28125 -2.921875 C 1.28125 -2.921875 4.28125 -2.921875 4.28125 -2.921875 C 4.28125 -2.921875 4.28125 0 4.28125 0 Z M 4.28125 0 "/>
</g>
<g id="glyph-32-6-34b37a70">
<path d="M 7.5625 0 C 7.5625 0 4.765625 0 4.765625 0 C 4.765625 0 4.765625 -9.78125 4.765625 -9.78125 C 4.765625 -9.78125 1.359375 -9.78125 1.359375 -9.78125 C 1.359375 -9.78125 1.359375 -11.640625 1.359375 -11.640625 C 3.796875 -11.640625 5.265625 -12.5 5.703125 -14.1875 C 5.703125 -14.1875 7.5625 -14.1875 7.5625 -14.1875 C 7.5625 -14.1875 7.5625 0 7.5625 0 Z M 7.5625 0 "/>
</g>
<g id="glyph-33-0-34b37a70">
<path d="M 1.34375 -10.5 L 9.21875 -10.5 L 9.21875 -9.578125 L 1.34375 -9.578125 Z M 1.34375 -10.5 "/>
</g>
<g id="glyph-33-1-34b37a70">
<path d="M 4.65625 -13.5 L 1.640625 -9.40625 L 4.65625 -9.40625 Z M 4.4375 -14.671875 L 6.0625 -14.671875 L 6.0625 -9.40625 L 7.390625 -9.40625 L 7.390625 -8.34375 L 6.0625 -8.34375 L 6.0625 -6.53125 L 4.65625 -6.53125 L 4.65625 -8.34375 L 0.609375 -8.34375 L 0.609375 -9.515625 Z M 4.4375 -14.671875 "/>
</g>
<g id="glyph-34-0-34b37a70">
</g>
<g id="glyph-34-1-34b37a70">
<path d="M 14.84375 -7.203125 C 14.84375 -2.9375 12.0625 0.234375 7.8125 0.234375 C 3.546875 0.234375 0.796875 -2.9375 0.796875 -7.296875 C 0.796875 -11.484375 3.515625 -14.8125 7.796875 -14.8125 C 12.0625 -14.8125 14.84375 -11.59375 14.84375 -7.203125 Z M 11.84375 -7.21875 C 11.84375 -10.265625 10.28125 -12.265625 7.8125 -12.265625 C 5.40625 -12.265625 3.796875 -10.234375 3.796875 -7.296875 C 3.796875 -4.234375 5.40625 -2.3125 7.8125 -2.3125 C 10.21875 -2.3125 11.84375 -4.234375 11.84375 -7.21875 Z M 11.84375 -7.21875 "/>
</g>
<g id="glyph-35-0-34b37a70">
<path d="M 14.84375 -7.203125 C 14.84375 -2.9375 12.0625 0.234375 7.8125 0.234375 C 3.546875 0.234375 0.796875 -2.9375 0.796875 -7.296875 C 0.796875 -11.484375 3.515625 -14.8125 7.796875 -14.8125 C 12.0625 -14.8125 14.84375 -11.59375 14.84375 -7.203125 Z M 11.84375 -7.21875 C 11.84375 -10.265625 10.28125 -12.265625 7.8125 -12.265625 C 5.40625 -12.265625 3.796875 -10.234375 3.796875 -7.296875 C 3.796875 -4.234375 5.40625 -2.3125 7.8125 -2.3125 C 10.21875 -2.3125 11.84375 -4.234375 11.84375 -7.21875 Z M 11.84375 -7.21875 "/>
</g>
<g id="glyph-36-0-34b37a70">
<path d="M 10.34375 -7.0625 C 10.34375 -1.453125 8.34375 0.1875 5.453125 0.1875 C 1.359375 0.1875 0.578125 -3.1875 0.578125 -7.140625 C 0.578125 -11.21875 1.40625 -14.484375 5.453125 -14.484375 C 9.625 -14.484375 10.34375 -11.078125 10.34375 -7.0625 Z M 7.546875 -7.125 C 7.546875 -11.515625 6.84375 -12.21875 5.453125 -12.21875 C 3.953125 -12.21875 3.375 -11.28125 3.375 -7.15625 C 3.375 -2.9375 4.046875 -2.21875 5.453125 -2.21875 C 6.953125 -2.21875 7.546875 -3.140625 7.546875 -7.125 Z M 7.546875 -7.125 "/>
</g>
<g id="glyph-36-1-34b37a70">
<path d="M 7.5625 0 C 7.5625 0 4.765625 0 4.765625 0 C 4.765625 0 4.765625 -9.78125 4.765625 -9.78125 C 4.765625 -9.78125 1.359375 -9.78125 1.359375 -9.78125 C 1.359375 -9.78125 1.359375 -11.640625 1.359375 -11.640625 C 3.796875 -11.640625 5.265625 -12.5 5.703125 -14.1875 C 5.703125 -14.1875 7.5625 -14.1875 7.5625 -14.1875 C 7.5625 -14.1875 7.5625 0 7.5625 0 Z M 7.5625 0 "/>
</g>
<g id="glyph-36-2-34b37a70">
<path d="M 4.28125 -0.1875 C 4.28125 1.375 4 2.125 3.203125 2.734375 C 2.65625 3.15625 2.09375 3.375 1.28125 3.484375 C 1.28125 3.484375 1.28125 2.359375 1.28125 2.359375 C 2.453125 2.125 3 1.421875 3 0.0625 C 3 0.0625 3 0 3 0 C 3 0 1.28125 0 1.28125 0 C 1.28125 0 1.28125 -2.921875 1.28125 -2.921875 C 1.28125 -2.921875 4.28125 -2.921875 4.28125 -2.921875 C 4.28125 -2.921875 4.28125 -0.1875 4.28125 -0.1875 Z M 4.28125 -0.1875 "/>
</g>
<g id="glyph-36-3-34b37a70">
</g>
<g id="glyph-36-4-34b37a70">
<path d="M 13.21875 0 C 13.21875 0 10.21875 0 10.21875 0 C 10.21875 0 4.359375 -10.078125 4.359375 -10.078125 C 4.359375 -10.078125 4.359375 0 4.359375 0 C 4.359375 0 1.359375 0 1.359375 0 C 1.359375 0 1.359375 -14.578125 1.359375 -14.578125 C 1.359375 -14.578125 4.4375 -14.578125 4.4375 -14.578125 C 4.4375 -14.578125 10.21875 -4.65625 10.21875 -4.65625 C 10.21875 -4.65625 10.21875 -14.578125 10.21875 -14.578125 C 10.21875 -14.578125 13.21875 -14.578125 13.21875 -14.578125 C 13.21875 -14.578125 13.21875 0 13.21875 0 Z M 13.21875 0 "/>
</g>
<g id="glyph-36-5-34b37a70">
<path d="M 14.84375 -7.203125 C 14.84375 -2.9375 12.0625 0.234375 7.8125 0.234375 C 3.546875 0.234375 0.796875 -2.9375 0.796875 -7.296875 C 0.796875 -11.484375 3.515625 -14.8125 7.796875 -14.8125 C 12.0625 -14.8125 14.84375 -11.59375 14.84375 -7.203125 Z M 11.84375 -7.21875 C 11.84375 -10.265625 10.28125 -12.265625 7.8125 -12.265625 C 5.40625 -12.265625 3.796875 -10.234375 3.796875 -7.296875 C 3.796875 -4.234375 5.40625 -2.3125 7.8125 -2.3125 C 10.21875 -2.3125 11.84375 -4.234375 11.84375 -7.21875 Z M 11.84375 -7.21875 "/>
</g>
<g id="glyph-36-6-34b37a70">
<path d="M 4.265625 0 C 4.265625 0 1.265625 0 1.265625 0 C 1.265625 0 1.265625 -14.578125 1.265625 -14.578125 C 1.265625 -14.578125 4.265625 -14.578125 4.265625 -14.578125 C 4.265625 -14.578125 4.265625 0 4.265625 0 Z M 4.265625 0 "/>
</g>
<g id="glyph-37-0-34b37a70">
<path d="M 4.28125 0 C 4.28125 0 1.28125 0 1.28125 0 C 1.28125 0 1.28125 -2.921875 1.28125 -2.921875 C 1.28125 -2.921875 4.28125 -2.921875 4.28125 -2.921875 C 4.28125 -2.921875 4.28125 0 4.28125 0 Z M 4.28125 0 "/>
</g>
<g id="glyph-37-1-34b37a70">
</g>
<g id="glyph-37-2-34b37a70">
<path d="M 12.9375 -14.578125 C 12.9375 -14.578125 7.9375 0 7.9375 0 C 7.9375 0 5.40625 0 5.40625 0 C 5.40625 0 0.484375 -14.578125 0.484375 -14.578125 C 0.484375 -14.578125 3.5 -14.578125 3.5 -14.578125 C 3.5 -14.578125 6.734375 -3.59375 6.734375 -3.59375 C 6.734375 -3.59375 9.921875 -14.578125 9.921875 -14.578125 C 9.921875 -14.578125 12.9375 -14.578125 12.9375 -14.578125 Z M 12.9375 -14.578125 "/>
</g>
<g id="glyph-38-0-34b37a70">
<path d="M 10.5 -5 C 10.5 -5 10.484375 -4.65625 10.484375 -4.65625 C 10.484375 -4.65625 3.234375 -4.65625 3.234375 -4.65625 C 3.3125 -2.5625 4.15625 -1.953125 5.484375 -1.953125 C 6.5 -1.953125 7.375 -2.265625 7.625 -3.046875 C 7.625 -3.046875 10.375 -3.046875 10.375 -3.046875 C 9.765625 -0.921875 7.796875 0.1875 5.375 0.1875 C 2.3125 0.1875 0.4375 -1.796875 0.4375 -5.265625 C 0.4375 -8.875 2.34375 -10.984375 5.4375 -10.984375 C 8.625 -10.984375 10.5 -8.71875 10.5 -5 Z M 7.578125 -6.515625 C 7.4375 -8.0625 6.59375 -8.84375 5.40625 -8.84375 C 4.15625 -8.84375 3.453125 -8.015625 3.28125 -6.515625 C 3.28125 -6.515625 7.578125 -6.515625 7.578125 -6.515625 Z M 7.578125 -6.515625 "/>
</g>
<g id="glyph-39-0-34b37a70">
<path d="M 14.84375 -7.203125 C 14.84375 -2.9375 12.0625 0.234375 7.8125 0.234375 C 3.546875 0.234375 0.796875 -2.9375 0.796875 -7.296875 C 0.796875 -11.484375 3.515625 -14.8125 7.796875 -14.8125 C 12.0625 -14.8125 14.84375 -11.59375 14.84375 -7.203125 Z M 11.84375 -7.21875 C 11.84375 -10.265625 10.28125 -12.265625 7.8125 -12.265625 C 5.40625 -12.265625 3.796875 -10.234375 3.796875 -7.296875 C 3.796875 -4.234375 5.40625 -2.3125 7.8125 -2.3125 C 10.21875 -2.3125 11.84375 -4.234375 11.84375 -7.21875 Z M 11.84375 -7.21875 "/>
</g>
</g>
<clipPath id="clip-0-34b37a70">
<path clip-rule="nonzero" d="M 419 16 L 1070 16 L 1070 721 L 419 721 Z M 419 16 "/>
</clipPath>
<clipPath id="clip-1-34b37a70">
<path clip-rule="nonzero" d="M 416 16 L 1067 16 L 1067 721 L 416 721 Z M 416 16 "/>
</clipPath>
<clipPath id="clip-2-34b37a70">
<path clip-rule="nonzero" d="M 372 16 L 1029 16 L 1029 721 L 372 721 Z M 372 16 "/>
</clipPath>
<clipPath id="clip-3-34b37a70">
<path clip-rule="nonzero" d="M 415 16 L 1048 16 L 1048 721 L 415 721 Z M 415 16 "/>
</clipPath>
<clipPath id="clip-4-34b37a70">
<path clip-rule="nonzero" d="M 372 16 L 1029 16 L 1029 721 L 372 721 Z M 372 16 "/>
</clipPath>
<clipPath id="clip-5-34b37a70">
<path clip-rule="nonzero" d="M 414 16 L 1057 16 L 1057 721 L 414 721 Z M 414 16 "/>
</clipPath>
<clipPath id="clip-6-34b37a70">
<path clip-rule="nonzero" d="M 116 16 L 1157 16 L 1157 721 L 116 721 Z M 116 16 "/>
</clipPath>
<clipPath id="clip-7-34b37a70">
<path clip-rule="nonzero" d="M 116 16 L 1007 16 L 1007 275 L 116 275 Z M 116 16 "/>
</clipPath>
<clipPath id="clip-8-34b37a70">
<path clip-rule="nonzero" d="M 116 16 L 1157 16 L 1157 721 L 116 721 Z M 116 16 "/>
</clipPath>
<clipPath id="clip-9-34b37a70">
<path clip-rule="nonzero" d="M 116 16 L 1015 16 L 1015 276 L 116 276 Z M 116 16 "/>
</clipPath>
</defs>
<rect x="-120" y="-80" width="1440" height="960" fill="rgb(100%, 100%, 100%)" fill-opacity="1"/>
<path fill-rule="nonzero" fill="rgb(100%, 100%, 100%)" fill-opacity="1" d="M 116 721 L 1157 721 L 1157 16 L 116 16 Z M 116 721 "/>
<path fill="none" stroke-width="1" stroke-linecap="butt" stroke-linejoin="miter" stroke="rgb(0%, 0%, 0%)" stroke-opacity="0.12" stroke-miterlimit="1.154701" d="M 116 721 L 116 16 "/>
<path fill="none" stroke-width="1" stroke-linecap="butt" stroke-linejoin="miter" stroke="rgb(0%, 0%, 0%)" stroke-opacity="0.12" stroke-miterlimit="1.154701" d="M 289.5 721 L 289.5 16 "/>
<path fill="none" stroke-width="1" stroke-linecap="butt" stroke-linejoin="miter" stroke="rgb(0%, 0%, 0%)" stroke-opacity="0.12" stroke-miterlimit="1.154701" d="M 463 721 L 463 16 "/>
<path fill="none" stroke-width="1" stroke-linecap="butt" stroke-linejoin="miter" stroke="rgb(0%, 0%, 0%)" stroke-opacity="0.12" stroke-miterlimit="1.154701" d="M 636.5 721 L 636.5 16 "/>
<path fill="none" stroke-width="1" stroke-linecap="butt" stroke-linejoin="miter" stroke="rgb(0%, 0%, 0%)" stroke-opacity="0.12" stroke-miterlimit="1.154701" d="M 810 721 L 810 16 "/>
<path fill="none" stroke-width="1" stroke-linecap="butt" stroke-linejoin="miter" stroke="rgb(0%, 0%, 0%)" stroke-opacity="0.12" stroke-miterlimit="1.154701" d="M 983.5 721 L 983.5 16 "/>
<path fill="none" stroke-width="1" stroke-linecap="butt" stroke-linejoin="miter" stroke="rgb(0%, 0%, 0%)" stroke-opacity="0.12" stroke-miterlimit="1.154701" d="M 1157 721 L 1157 16 "/>
<path fill="none" stroke-width="1" stroke-linecap="butt" stroke-linejoin="miter" stroke="rgb(0%, 0%, 0%)" stroke-opacity="0.05" stroke-miterlimit="1.154701" d="M 244.453125 721 L 244.453125 16 "/>
<path fill="none" stroke-width="1" stroke-linecap="butt" stroke-linejoin="miter" stroke="rgb(0%, 0%, 0%)" stroke-opacity="0.05" stroke-miterlimit="1.154701" d="M 417.953125 721 L 417.953125 16 "/>
<path fill="none" stroke-width="1" stroke-linecap="butt" stroke-linejoin="miter" stroke="rgb(0%, 0%, 0%)" stroke-opacity="0.05" stroke-miterlimit="1.154701" d="M 591.453125 721 L 591.453125 16 "/>
<path fill="none" stroke-width="1" stroke-linecap="butt" stroke-linejoin="miter" stroke="rgb(0%, 0%, 0%)" stroke-opacity="0.05" stroke-miterlimit="1.154701" d="M 764.953125 721 L 764.953125 16 "/>
<path fill="none" stroke-width="1" stroke-linecap="butt" stroke-linejoin="miter" stroke="rgb(0%, 0%, 0%)" stroke-opacity="0.05" stroke-miterlimit="1.154701" d="M 938.453125 721 L 938.453125 16 "/>
<path fill="none" stroke-width="1" stroke-linecap="butt" stroke-linejoin="miter" stroke="rgb(0%, 0%, 0%)" stroke-opacity="0.05" stroke-miterlimit="1.154701" d="M 1111.953125 721 L 1111.953125 16 "/>
<path fill="none" stroke-width="1" stroke-linecap="butt" stroke-linejoin="miter" stroke="rgb(0%, 0%, 0%)" stroke-opacity="0.12" stroke-miterlimit="1.154701" d="M 116 575.980469 L 1157 575.980469 "/>
<path fill="none" stroke-width="1" stroke-linecap="butt" stroke-linejoin="miter" stroke="rgb(0%, 0%, 0%)" stroke-opacity="0.12" stroke-miterlimit="1.154701" d="M 116 368.5 L 1157 368.5 "/>
<path fill="none" stroke-width="1" stroke-linecap="butt" stroke-linejoin="miter" stroke="rgb(0%, 0%, 0%)" stroke-opacity="0.12" stroke-miterlimit="1.154701" d="M 116 161.019531 L 1157 161.019531 "/>
<path fill="none" stroke-width="1" stroke-linecap="butt" stroke-linejoin="miter" stroke="rgb(0%, 0%, 0%)" stroke-opacity="0.05" stroke-miterlimit="1.154701" d="M 116 629.847656 L 1157 629.847656 "/>
<path fill="none" stroke-width="1" stroke-linecap="butt" stroke-linejoin="miter" stroke="rgb(0%, 0%, 0%)" stroke-opacity="0.05" stroke-miterlimit="1.154701" d="M 116 422.371094 L 1157 422.371094 "/>
<path fill="none" stroke-width="1" stroke-linecap="butt" stroke-linejoin="miter" stroke="rgb(0%, 0%, 0%)" stroke-opacity="0.05" stroke-miterlimit="1.154701" d="M 116 214.890625 L 1157 214.890625 "/>
<g fill="rgb(0%, 0%, 0%)" fill-opacity="1">
<use xlink:href="#glyph-0-0-34b37a70" x="632.504" y="779.588398"/>
</g>
<g fill="rgb(0%, 0%, 0%)" fill-opacity="1">
<use xlink:href="#glyph-1-0-34b37a70" x="96.696001" y="749.500401"/>
</g>
<g fill="rgb(0%, 0%, 0%)" fill-opacity="1">
<use xlink:href="#glyph-2-0-34b37a70" x="107.816001" y="749.500401"/>
</g>
<g fill="rgb(0%, 0%, 0%)" fill-opacity="1">
<use xlink:href="#glyph-3-0-34b37a70" x="120.256001" y="741.500401"/>
</g>
<g fill="rgb(0%, 0%, 0%)" fill-opacity="1">
<use xlink:href="#glyph-4-0-34b37a70" x="127.9648" y="741.500401"/>
</g>
<g fill="rgb(0%, 0%, 0%)" fill-opacity="1">
<use xlink:href="#glyph-1-0-34b37a70" x="270.196001" y="749.500401"/>
</g>
<g fill="rgb(0%, 0%, 0%)" fill-opacity="1">
<use xlink:href="#glyph-5-0-34b37a70" x="281.316001" y="749.500401"/>
</g>
<g fill="rgb(0%, 0%, 0%)" fill-opacity="1">
<use xlink:href="#glyph-6-0-34b37a70" x="293.756001" y="741.500401"/>
</g>
<g fill="rgb(0%, 0%, 0%)" fill-opacity="1">
<use xlink:href="#glyph-7-0-34b37a70" x="301.4648" y="741.500401"/>
</g>
<g fill="rgb(0%, 0%, 0%)" fill-opacity="1">
<use xlink:href="#glyph-1-0-34b37a70" x="443.696001" y="749.500401"/>
</g>
<g fill="rgb(0%, 0%, 0%)" fill-opacity="1">
<use xlink:href="#glyph-1-1-34b37a70" x="454.816001" y="749.500401"/>
</g>
<g fill="rgb(0%, 0%, 0%)" fill-opacity="1">
<use xlink:href="#glyph-6-0-34b37a70" x="467.256001" y="741.500401"/>
</g>
<g fill="rgb(0%, 0%, 0%)" fill-opacity="1">
<use xlink:href="#glyph-7-1-34b37a70" x="474.9648" y="741.500401"/>
</g>
<g fill="rgb(0%, 0%, 0%)" fill-opacity="1">
<use xlink:href="#glyph-8-0-34b37a70" x="617.196001" y="749.500401"/>
</g>
<g fill="rgb(0%, 0%, 0%)" fill-opacity="1">
<use xlink:href="#glyph-9-0-34b37a70" x="628.316001" y="749.500401"/>
</g>
<g fill="rgb(0%, 0%, 0%)" fill-opacity="1">
<use xlink:href="#glyph-10-0-34b37a70" x="640.756001" y="741.500401"/>
</g>
<g fill="rgb(0%, 0%, 0%)" fill-opacity="1">
<use xlink:href="#glyph-10-1-34b37a70" x="648.4648" y="741.500401"/>
</g>
<g fill="rgb(0%, 0%, 0%)" fill-opacity="1">
<use xlink:href="#glyph-9-1-34b37a70" x="790.696001" y="749.500401"/>
</g>
<g fill="rgb(0%, 0%, 0%)" fill-opacity="1">
<use xlink:href="#glyph-8-1-34b37a70" x="801.816001" y="749.500401"/>
</g>
<g fill="rgb(0%, 0%, 0%)" fill-opacity="1">
<use xlink:href="#glyph-11-0-34b37a70" x="814.256001" y="741.500401"/>
</g>
<g fill="rgb(0%, 0%, 0%)" fill-opacity="1">
<use xlink:href="#glyph-10-2-34b37a70" x="821.9648" y="741.500401"/>
</g>
<g fill="rgb(0%, 0%, 0%)" fill-opacity="1">
<use xlink:href="#glyph-9-1-34b37a70" x="964.196001" y="749.500401"/>
</g>
<g fill="rgb(0%, 0%, 0%)" fill-opacity="1">
<use xlink:href="#glyph-9-0-34b37a70" x="975.316001" y="749.500401"/>
</g>
<g fill="rgb(0%, 0%, 0%)" fill-opacity="1">
<use xlink:href="#glyph-10-0-34b37a70" x="987.756001" y="741.500401"/>
</g>
<g fill="rgb(0%, 0%, 0%)" fill-opacity="1">
<use xlink:href="#glyph-12-0-34b37a70" x="995.4648" y="741.500401"/>
</g>
<g fill="rgb(0%, 0%, 0%)" fill-opacity="1">
<use xlink:href="#glyph-1-0-34b37a70" x="1141.5504" y="749.500401"/>
</g>
<g fill="rgb(0%, 0%, 0%)" fill-opacity="1">
<use xlink:href="#glyph-13-0-34b37a70" x="1152.6704" y="749.500401"/>
</g>
<g fill="rgb(0%, 0%, 0%)" fill-opacity="1">
<use xlink:href="#glyph-10-3-34b37a70" x="1165.110399" y="741.500401"/>
</g>
<g fill="rgb(0%, 0%, 0%)" fill-opacity="1">
<use xlink:href="#glyph-14-0-34b37a70" x="64.8688" y="377.163999"/>
</g>
<g fill="rgb(0%, 0%, 0%)" fill-opacity="1">
<use xlink:href="#glyph-15-0-34b37a70" x="75.1008" y="584.048853"/>
</g>
<g fill="rgb(0%, 0%, 0%)" fill-opacity="1">
<use xlink:href="#glyph-16-0-34b37a70" x="86.220798" y="584.048853"/>
</g>
<g fill="rgb(0%, 0%, 0%)" fill-opacity="1">
<use xlink:href="#glyph-17-0-34b37a70" x="98.660799" y="576.048853"/>
</g>
<g fill="rgb(0%, 0%, 0%)" fill-opacity="1">
<use xlink:href="#glyph-18-0-34b37a70" x="75.1008" y="376.5702"/>
</g>
<g fill="rgb(0%, 0%, 0%)" fill-opacity="1">
<use xlink:href="#glyph-19-0-34b37a70" x="86.220798" y="376.5702"/>
</g>
<g fill="rgb(0%, 0%, 0%)" fill-opacity="1">
<use xlink:href="#glyph-20-0-34b37a70" x="98.660799" y="368.5702"/>
</g>
<g fill="rgb(0%, 0%, 0%)" fill-opacity="1">
<use xlink:href="#glyph-21-0-34b37a70" x="75.1008" y="169.091562"/>
</g>
<g fill="rgb(0%, 0%, 0%)" fill-opacity="1">
<use xlink:href="#glyph-22-0-34b37a70" x="86.220798" y="169.091562"/>
</g>
<g fill="rgb(0%, 0%, 0%)" fill-opacity="1">
<use xlink:href="#glyph-23-0-34b37a70" x="98.660799" y="161.091562"/>
</g>
<path fill-rule="evenodd" fill="rgb(89.399999%, 10.2%, 11%)" fill-opacity="0.1" d="M 1157 16 L 1059.710938 16 L 1053.855469 19.042969 L 1040.574219 22.210938 L 1028.667969 25.472656 L 1022.609375 28.878906 L 1019.710938 32.421875 L 1018.199219 35.972656 L 1017.972656 36.085938 L 1009.566406 39.925781 L 994.261719 43.9375 L 980.945312 48.113281 L 974.945312 52.515625 L 972.257812 57.117188 L 971.933594 57.613281 L 960.035156 62 L 941.890625 67.15625 L 930.800781 72.597656 L 926.238281 78.421875 L 925.667969 78.992188 L 907.339844 84.648438 L 889.230469 91.296875 L 880.898438 98.519531 L 879.398438 99.675781 L 857.539062 106.371094 L 839.496094 114.921875 L 833.132812 119.753906 L 820 124.425781 L 794.371094 134.988281 L 786.867188 138.582031 L 763.132812 147.027344 L 741.578125 160.929688 L 740.601562 161.304688 L 698.976562 177.269531 L 694.332031 178.453125 L 648.066406 191.335938 L 635.539062 197.375 L 601.800781 201.839844 L 555.535156 215.972656 L 537.988281 223.296875 L 509.265625 225.464844 L 463 242.597656 L 447.285156 259.5625 L 429.820312 321.753906 L 447.285156 721 L 1157 721 Z M 1157 16 "/>
<g clip-path="url(#clip-0-34b37a70)">
<path fill="none" stroke-width="3.5" stroke-linecap="butt" stroke-linejoin="miter" stroke="rgb(89.399999%, 10.2%, 11%)" stroke-opacity="1" stroke-miterlimit="2" d="M 1059.710938 16 L 1053.855469 19.042969 L 1040.574219 22.210938 L 1028.667969 25.472656 L 1022.609375 28.878906 L 1019.710938 32.421875 L 1018.199219 35.972656 L 1017.972656 36.085938 L 1009.566406 39.925781 L 994.261719 43.9375 L 980.945312 48.113281 L 974.945312 52.515625 L 972.257812 57.117188 L 971.933594 57.613281 L 960.035156 62 L 941.890625 67.15625 L 930.800781 72.597656 L 926.238281 78.421875 L 925.667969 78.992188 L 907.339844 84.648438 L 889.230469 91.296875 L 880.898438 98.519531 L 879.398438 99.675781 L 857.539062 106.371094 L 839.496094 114.921875 L 833.132812 119.753906 L 820 124.425781 L 794.371094 134.988281 L 786.867188 138.582031 L 763.132812 147.027344 L 741.578125 160.929688 L 740.601562 161.304688 L 698.976562 177.269531 L 694.332031 178.453125 L 648.066406 191.335938 L 635.539062 197.375 L 601.800781 201.839844 L 555.535156 215.972656 L 537.988281 223.296875 L 509.265625 225.464844 L 463 242.597656 L 447.285156 259.5625 L 429.820312 321.753906 L 447.285156 721 "/>
</g>
<path fill-rule="evenodd" fill="rgb(89.399999%, 10.2%, 11%)" fill-opacity="0.1" d="M 1157 16 L 1056.53125 16 L 1044.574219 19.042969 L 1034.386719 22.210938 L 1027.839844 25.472656 L 1023.75 28.878906 L 1021.058594 32.421875 L 1018.46875 36.085938 L 1018.199219 36.292969 L 1002.257812 39.925781 L 988.6875 43.9375 L 980.683594 48.113281 L 976.109375 52.515625 L 972.542969 57.117188 L 971.933594 57.585938 L 954.207031 62 L 939.300781 67.15625 L 931.4375 72.597656 L 926.25 78.421875 L 925.667969 78.824219 L 903.75 84.648438 L 888.851562 91.296875 L 880.863281 98.519531 L 879.398438 99.464844 L 855.957031 106.371094 L 839.667969 114.921875 L 833.132812 119.269531 L 817.957031 124.425781 L 794.15625 134.988281 L 786.867188 138.574219 L 762.992188 147.027344 L 740.601562 157.546875 L 732.804688 160.929688 L 694.332031 176.582031 L 692.957031 177.269531 L 648.066406 187.550781 L 627.351562 197.375 L 601.800781 201.449219 L 555.535156 213.6875 L 529.265625 223.296875 L 509.265625 224.535156 L 463 237.148438 L 440.582031 259.5625 L 425.933594 321.753906 L 440.582031 721 L 1157 721 Z M 1157 16 "/>
<g clip-path="url(#clip-1-34b37a70)">
<path fill="none" stroke-width="3.5" stroke-linecap="butt" stroke-linejoin="miter" stroke="rgb(89.399999%, 10.2%, 11%)" stroke-opacity="1" stroke-dasharray="10.5 10.5" stroke-miterlimit="2" d="M 440.582031 721 L 425.933594 321.753906 L 440.582031 259.5625 L 463 237.148438 L 509.265625 224.535156 L 529.265625 223.296875 L 555.535156 213.6875 L 601.800781 201.449219 L 627.351562 197.375 L 648.066406 187.550781 L 692.957031 177.269531 L 694.332031 176.582031 L 732.804688 160.929688 L 740.601562 157.546875 L 762.992188 147.027344 L 786.867188 138.574219 L 794.15625 134.988281 L 817.957031 124.425781 L 833.132812 119.269531 L 839.667969 114.921875 L 855.957031 106.371094 L 879.398438 99.464844 L 880.863281 98.519531 L 888.851562 91.296875 L 903.75 84.648438 L 925.667969 78.824219 L 926.25 78.421875 L 931.4375 72.597656 L 939.300781 67.15625 L 954.207031 62 L 971.933594 57.585938 L 972.542969 57.117188 L 976.109375 52.515625 L 980.683594 48.113281 L 988.6875 43.9375 L 1002.257812 39.925781 L 1018.199219 36.292969 L 1018.46875 36.085938 L 1021.058594 32.421875 L 1023.75 28.878906 L 1027.839844 25.472656 L 1034.386719 22.210938 L 1044.574219 19.042969 L 1056.53125 16 "/>
</g>
<path fill-rule="evenodd" fill="rgb(21.600001%, 49.399999%, 72.2%)" fill-opacity="0.1" d="M 1018.429688 16 L 1018.199219 16.953125 L 1015.527344 19.042969 L 1007.476562 22.210938 L 993.492188 25.472656 L 982.09375 28.878906 L 976.292969 32.421875 L 973.449219 36.085938 L 971.933594 39.597656 L 971.269531 39.925781 L 959.824219 43.9375 L 943.546875 48.113281 L 932.683594 52.515625 L 927.894531 57.117188 L 925.667969 61.375 L 924.277344 62 L 906.238281 67.15625 L 889.644531 72.597656 L 882.203125 78.421875 L 879.398438 82.265625 L 873.222656 84.648438 L 850.519531 91.296875 L 837.460938 98.519531 L 833.132812 102.597656 L 822.289062 106.371094 L 798.53125 114.921875 L 787.160156 124.425781 L 786.867188 124.574219 L 753.367188 134.988281 L 740.601562 141.679688 L 726.566406 147.027344 L 698.128906 160.929688 L 694.332031 162.191406 L 654.480469 177.269531 L 648.066406 178.9375 L 601.800781 194.941406 L 596.957031 197.375 L 555.535156 202.132812 L 509.265625 214.753906 L 487.621094 223.296875 L 463 225.015625 L 416.734375 240.621094 L 398.730469 259.5625 L 382.246094 321.753906 L 398.730469 721 L 1157 721 L 1157 16 Z M 1018.429688 16 "/>
<g clip-path="url(#clip-2-34b37a70)">
<path fill="none" stroke-width="3.5" stroke-linecap="butt" stroke-linejoin="miter" stroke="rgb(21.600001%, 49.399999%, 72.2%)" stroke-opacity="1" stroke-miterlimit="2" d="M 1018.429688 16 L 1018.199219 16.953125 L 1015.527344 19.042969 L 1007.476562 22.210938 L 993.492188 25.472656 L 982.09375 28.878906 L 976.292969 32.421875 L 973.449219 36.085938 L 971.933594 39.597656 L 971.269531 39.925781 L 959.824219 43.9375 L 943.546875 48.113281 L 932.683594 52.515625 L 927.894531 57.117188 L 925.667969 61.375 L 924.277344 62 L 906.238281 67.15625 L 889.644531 72.597656 L 882.203125 78.421875 L 879.398438 82.265625 L 873.222656 84.648438 L 850.519531 91.296875 L 837.460938 98.519531 L 833.132812 102.597656 L 822.289062 106.371094 L 798.53125 114.921875 L 787.160156 124.425781 L 786.867188 124.574219 L 753.367188 134.988281 L 740.601562 141.679688 L 726.566406 147.027344 L 698.128906 160.929688 L 694.332031 162.191406 L 654.480469 177.269531 L 648.066406 178.9375 L 601.800781 194.941406 L 596.957031 197.375 L 555.535156 202.132812 L 509.265625 214.753906 L 487.621094 223.296875 L 463 225.015625 L 416.734375 240.621094 L 398.730469 259.5625 L 382.246094 321.753906 L 398.730469 721 "/>
</g>
<path fill-rule="evenodd" fill="rgb(21.600001%, 49.399999%, 72.2%)" fill-opacity="0.1" d="M 1157 16 L 1037.835938 16 L 1032.621094 19.042969 L 1027.832031 22.210938 L 1024.355469 25.472656 L 1021.566406 28.878906 L 1018.472656 32.421875 L 1018.199219 32.625 L 1003.105469 36.085938 L 990.921875 39.925781 L 983.070312 43.9375 L 978.109375 48.113281 L 974.363281 52.515625 L 971.933594 54.75 L 963.296875 57.117188 L 946.039062 62 L 935.8125 67.15625 L 929.878906 72.597656 L 925.667969 76.773438 L 920.460938 78.421875 L 898.660156 84.648438 L 886.984375 91.296875 L 879.511719 98.519531 L 879.398438 98.585938 L 852.382812 106.371094 L 838.367188 114.921875 L 833.132812 118.316406 L 814.914062 124.425781 L 793.03125 134.988281 L 786.867188 138.023438 L 761.390625 147.027344 L 740.601562 156.632812 L 730.507812 160.929688 L 694.332031 175.417969 L 690.566406 177.269531 L 648.066406 187.179688 L 626.488281 197.375 L 601.800781 201.363281 L 555.535156 213.5 L 528.816406 223.296875 L 509.265625 224.519531 L 463 237.074219 L 440.484375 259.5625 L 425.878906 321.753906 L 440.484375 721 L 1157 721 Z M 1157 16 "/>
<g clip-path="url(#clip-3-34b37a70)">
<path fill="none" stroke-width="3.5" stroke-linecap="butt" stroke-linejoin="miter" stroke="rgb(21.600001%, 49.399999%, 72.2%)" stroke-opacity="1" stroke-dasharray="10.5 10.5" stroke-miterlimit="2" d="M 1037.835938 16 L 1032.621094 19.042969 L 1027.832031 22.210938 L 1024.355469 25.472656 L 1021.566406 28.878906 L 1018.472656 32.421875 L 1018.199219 32.625 L 1003.105469 36.085938 L 990.921875 39.925781 L 983.070312 43.9375 L 978.109375 48.113281 L 974.363281 52.515625 L 971.933594 54.75 L 963.296875 57.117188 L 946.039062 62 L 935.8125 67.15625 L 929.878906 72.597656 L 925.667969 76.773438 L 920.460938 78.421875 L 898.660156 84.648438 L 886.984375 91.296875 L 879.511719 98.519531 L 879.398438 98.585938 L 852.382812 106.371094 L 838.367188 114.921875 L 833.132812 118.316406 L 814.914062 124.425781 L 793.03125 134.988281 L 786.867188 138.023438 L 761.390625 147.027344 L 740.601562 156.632812 L 730.507812 160.929688 L 694.332031 175.417969 L 690.566406 177.269531 L 648.066406 187.179688 L 626.488281 197.375 L 601.800781 201.363281 L 555.535156 213.5 L 528.816406 223.296875 L 509.265625 224.519531 L 463 237.074219 L 440.484375 259.5625 L 425.878906 321.753906 L 440.484375 721 "/>
</g>
<path fill-rule="evenodd" fill="rgb(30.199999%, 68.599999%, 28.999999%)" fill-opacity="0.1" d="M 1018.429688 16 L 1018.199219 16.953125 L 1015.527344 19.042969 L 1007.476562 22.210938 L 993.492188 25.472656 L 982.09375 28.878906 L 976.292969 32.421875 L 973.449219 36.085938 L 971.933594 39.597656 L 971.269531 39.925781 L 959.824219 43.9375 L 943.546875 48.113281 L 932.683594 52.515625 L 927.894531 57.117188 L 925.667969 61.375 L 924.277344 62 L 906.238281 67.15625 L 889.644531 72.597656 L 882.203125 78.421875 L 879.398438 82.265625 L 873.222656 84.648438 L 850.519531 91.296875 L 837.460938 98.519531 L 833.132812 102.597656 L 822.289062 106.371094 L 798.53125 114.921875 L 787.160156 124.425781 L 786.867188 124.574219 L 753.367188 134.988281 L 740.601562 141.679688 L 726.566406 147.027344 L 698.128906 160.929688 L 694.332031 162.191406 L 654.480469 177.269531 L 648.066406 178.9375 L 601.800781 194.941406 L 596.957031 197.375 L 555.535156 202.132812 L 509.265625 214.753906 L 487.621094 223.296875 L 463 225.015625 L 416.734375 240.621094 L 398.730469 259.5625 L 382.246094 321.753906 L 398.730469 721 L 1157 721 L 1157 16 Z M 1018.429688 16 "/>
<g clip-path="url(#clip-4-34b37a70)">
<path fill="none" stroke-width="3.5" stroke-linecap="butt" stroke-linejoin="miter" stroke="rgb(30.199999%, 68.599999%, 28.999999%)" stroke-opacity="1" stroke-miterlimit="2" d="M 1018.429688 16 L 1018.199219 16.953125 L 1015.527344 19.042969 L 1007.476562 22.210938 L 993.492188 25.472656 L 982.09375 28.878906 L 976.292969 32.421875 L 973.449219 36.085938 L 971.933594 39.597656 L 971.269531 39.925781 L 959.824219 43.9375 L 943.546875 48.113281 L 932.683594 52.515625 L 927.894531 57.117188 L 925.667969 61.375 L 924.277344 62 L 906.238281 67.15625 L 889.644531 72.597656 L 882.203125 78.421875 L 879.398438 82.265625 L 873.222656 84.648438 L 850.519531 91.296875 L 837.460938 98.519531 L 833.132812 102.597656 L 822.289062 106.371094 L 798.53125 114.921875 L 787.160156 124.425781 L 786.867188 124.574219 L 753.367188 134.988281 L 740.601562 141.679688 L 726.566406 147.027344 L 698.128906 160.929688 L 694.332031 162.191406 L 654.480469 177.269531 L 648.066406 178.9375 L 601.800781 194.941406 L 596.957031 197.375 L 555.535156 202.132812 L 509.265625 214.753906 L 487.621094 223.296875 L 463 225.015625 L 416.734375 240.621094 L 398.730469 259.5625 L 382.246094 321.753906 L 398.730469 721 "/>
</g>
<path fill-rule="evenodd" fill="rgb(30.199999%, 68.599999%, 28.999999%)" fill-opacity="0.1" d="M 1046.914062 16 L 1037.769531 19.042969 L 1030.25 22.210938 L 1025.410156 25.472656 L 1022.269531 28.878906 L 1019.8125 32.421875 L 1018.199219 34.089844 L 1010.753906 36.085938 L 994.941406 39.925781 L 984.503906 43.9375 L 978.5 48.113281 L 974.765625 52.515625 L 971.933594 55.648438 L 967.085938 57.117188 L 947.683594 62 L 936.023438 67.15625 L 929.835938 72.597656 L 925.667969 76.898438 L 920.921875 78.421875 L 898.433594 84.648438 L 886.507812 91.296875 L 879.398438 98.03125 L 878 98.519531 L 851.140625 106.371094 L 837.582031 114.921875 L 833.132812 117.691406 L 812.59375 124.425781 L 791.84375 134.988281 L 786.867188 137.359375 L 759.054688 147.027344 L 740.601562 155.085938 L 726.335938 160.929688 L 694.332031 172.929688 L 685.050781 177.269531 L 648.066406 185.847656 L 623.039062 197.375 L 601.800781 200.859375 L 555.535156 212.304688 L 525.152344 223.296875 L 509.265625 224.296875 L 463 235.820312 L 438.742188 259.5625 L 424.84375 321.753906 L 438.742188 721 L 1157 721 L 1157 16 Z M 1046.914062 16 "/>
<g clip-path="url(#clip-5-34b37a70)">
<path fill="none" stroke-width="3.5" stroke-linecap="butt" stroke-linejoin="miter" stroke="rgb(30.199999%, 68.599999%, 28.999999%)" stroke-opacity="1" stroke-dasharray="10.5 10.5" stroke-miterlimit="2" d="M 1046.914062 16 L 1037.769531 19.042969 L 1030.25 22.210938 L 1025.410156 25.472656 L 1022.269531 28.878906 L 1019.8125 32.421875 L 1018.199219 34.089844 L 1010.757812 36.085938 L 994.941406 39.925781 L 984.503906 43.9375 L 978.5 48.113281 L 974.765625 52.515625 L 971.933594 55.648438 L 967.085938 57.117188 L 947.683594 62 L 936.023438 67.15625 L 929.835938 72.597656 L 925.667969 76.898438 L 920.921875 78.421875 L 898.433594 84.648438 L 886.507812 91.296875 L 879.398438 98.03125 L 878 98.519531 L 851.140625 106.371094 L 837.582031 114.921875 L 833.132812 117.691406 L 812.59375 124.425781 L 791.84375 134.988281 L 786.867188 137.359375 L 759.054688 147.027344 L 740.601562 155.085938 L 726.335938 160.929688 L 694.332031 172.929688 L 685.050781 177.269531 L 648.066406 185.847656 L 623.039062 197.375 L 601.800781 200.859375 L 555.535156 212.304688 L 525.152344 223.296875 L 509.265625 224.296875 L 463 235.820312 L 438.742188 259.5625 L 424.84375 321.753906 L 438.742188 721 "/>
</g>
<g clip-path="url(#clip-6-34b37a70)">
<path fill-rule="evenodd" fill="rgb(59.600002%, 30.599999%, 63.9%)" fill-opacity="0.1" d="M 1157 16 L 997.058594 16 L 991.886719 19.042969 L 985.632812 22.210938 L 979.601562 25.472656 L 973.90625 28.878906 L 971.933594 30.050781 L 965.902344 32.421875 L 956.765625 36.085938 L 948.035156 39.925781 L 939.796875 43.9375 L 932.109375 48.113281 L 925.667969 52.003906 L 924.445312 52.515625 L 912.574219 57.117188 L 901.34375 62 L 890.917969 67.15625 L 881.394531 72.597656 L 879.398438 73.675781 L 867.484375 78.421875 L 853.136719 84.648438 L 840.132812 91.296875 L 833.132812 95.054688 L 825 98.519531 L 806.410156 106.371094 L 790 114.921875 L 786.867188 116.375 L 767.210938 124.425781 L 745.261719 134.988281 L 740.601562 136.90625 L 716.292969 147.027344 L 694.332031 156.605469 L 685.53125 160.929688 L 648.066406 176.597656 L 646.839844 177.269531 L 601.800781 191.8125 L 591.375 197.375 L 555.535156 203.75 L 509.265625 219.75 L 502.867188 223.296875 L 463 228.542969 L 416.734375 241.496094 L 380.683594 259.5625 L 370.464844 260.785156 L 324.199219 263.710938 L 277.933594 264.539062 L 231.667969 264.742188 L 185.398438 264.792969 L 139.132812 264.8125 L 92.867188 264.746094 L 46.601562 263.863281 L 0.332031 262.410156 L -45.933594 261.964844 L -92.199219 262.015625 L -138.464844 262.125 L -184.734375 262.273438 L -231 262.445312 L -231 721 L 1157 721 Z M 1157 16 "/>
</g>
<g clip-path="url(#clip-7-34b37a70)">
<path fill="none" stroke-width="3.5" stroke-linecap="butt" stroke-linejoin="miter" stroke="rgb(59.600002%, 30.599999%, 63.9%)" stroke-opacity="1" stroke-miterlimit="2" d="M 116 264.78125 L 139.132812 264.8125 L 185.398438 264.792969 L 231.667969 264.742188 L 277.933594 264.539062 L 324.199219 263.710938 L 370.464844 260.785156 L 380.683594 259.5625 L 416.734375 241.496094 L 463 228.542969 L 502.867188 223.296875 L 509.265625 219.75 L 555.535156 203.75 L 591.375 197.375 L 601.800781 191.8125 L 646.839844 177.269531 L 648.066406 176.597656 L 685.53125 160.929688 L 694.332031 156.605469 L 716.292969 147.027344 L 740.601562 136.90625 L 745.261719 134.988281 L 767.210938 124.425781 L 786.867188 116.375 L 790 114.921875 L 806.410156 106.371094 L 825 98.519531 L 833.132812 95.054688 L 840.132812 91.296875 L 853.136719 84.648438 L 867.484375 78.421875 L 879.398438 73.675781 L 881.394531 72.597656 L 890.917969 67.15625 L 901.34375 62 L 912.574219 57.117188 L 924.445312 52.515625 L 925.667969 52.003906 L 932.109375 48.113281 L 939.796875 43.9375 L 948.035156 39.925781 L 956.765625 36.085938 L 965.902344 32.421875 L 971.933594 30.050781 L 973.90625 28.878906 L 979.601562 25.472656 L 985.632812 22.210938 L 991.886719 19.042969 L 997.058594 16 "/>
</g>
<g clip-path="url(#clip-8-34b37a70)">
<path fill-rule="evenodd" fill="rgb(59.600002%, 30.599999%, 63.9%)" fill-opacity="0.1" d="M 1005.070312 16 L 999.472656 19.042969 L 992.648438 22.210938 L 986.019531 25.472656 L 979.699219 28.878906 L 973.714844 32.421875 L 971.933594 33.445312 L 965.230469 36.085938 L 955.828125 39.925781 L 946.859375 43.9375 L 938.402344 48.113281 L 930.46875 52.515625 L 925.667969 55.277344 L 921.1875 57.117188 L 909.101562 62 L 897.734375 67.15625 L 887.207031 72.597656 L 879.398438 77.035156 L 876.183594 78.421875 L 860.738281 84.648438 L 846.5 91.296875 L 833.617188 98.519531 L 833.132812 98.753906 L 813.992188 106.371094 L 795.984375 114.921875 L 786.867188 119.378906 L 775.390625 124.425781 L 751.460938 134.988281 L 740.601562 139.707031 L 724.15625 147.027344 L 694.484375 160.929688 L 694.332031 160.976562 L 653.296875 177.269531 L 648.066406 178.582031 L 601.800781 196.730469 L 600.691406 197.375 L 555.535156 205.96875 L 512.707031 223.296875 L 509.265625 223.667969 L 463 230.445312 L 416.734375 245.292969 L 388.78125 259.5625 L 370.464844 261.605469 L 324.199219 264.328125 L 277.933594 265.070312 L 231.667969 265.25 L 185.398438 265.292969 L 139.132812 265.316406 L 92.867188 265.257812 L 46.601562 264.398438 L 0.332031 262.945312 L -45.933594 262.5 L -92.199219 262.558594 L -138.464844 262.679688 L -184.734375 262.855469 L -231 263.066406 L -231 721 L 1157 721 L 1157 16 Z M 1005.070312 16 "/>
</g>
<g clip-path="url(#clip-9-34b37a70)">
<path fill="none" stroke-width="3.5" stroke-linecap="butt" stroke-linejoin="miter" stroke="rgb(59.600002%, 30.599999%, 63.9%)" stroke-opacity="1" stroke-dasharray="10.5 10.5" stroke-miterlimit="2" d="M 116 265.289062 L 139.132812 265.316406 L 185.398438 265.292969 L 231.667969 265.25 L 277.933594 265.070312 L 324.199219 264.328125 L 370.464844 261.605469 L 388.78125 259.5625 L 416.734375 245.292969 L 463 230.445312 L 509.265625 223.667969 L 512.707031 223.296875 L 555.535156 205.96875 L 600.691406 197.375 L 601.800781 196.730469 L 648.066406 178.582031 L 653.296875 177.269531 L 694.332031 160.976562 L 694.484375 160.929688 L 724.15625 147.027344 L 740.601562 139.707031 L 751.460938 134.988281 L 775.390625 124.425781 L 786.867188 119.378906 L 795.984375 114.921875 L 813.992188 106.371094 L 833.132812 98.753906 L 833.617188 98.519531 L 846.5 91.296875 L 860.738281 84.648438 L 876.183594 78.421875 L 879.398438 77.035156 L 887.207031 72.597656 L 897.734375 67.15625 L 909.101562 62 L 921.1875 57.117188 L 925.667969 55.277344 L 930.46875 52.515625 L 938.402344 48.113281 L 946.859375 43.9375 L 955.828125 39.925781 L 965.230469 36.085938 L 971.933594 33.445312 L 973.714844 32.421875 L 979.699219 28.878906 L 986.019531 25.472656 L 992.648438 22.210938 L 999.472656 19.042969 L 1005.070312 16 "/>
</g>
<path fill="none" stroke-width="2.5" stroke-linecap="butt" stroke-linejoin="miter" stroke="rgb(89.399999%, 10.2%, 11%)" stroke-opacity="1" stroke-miterlimit="2" d="M 199.28125 30.101562 L 240.921875 30.101562 "/>
<g fill="rgb(89.399999%, 10.2%, 11%)" fill-opacity="1">
<use xlink:href="#glyph-24-0-34b37a70" x="261.739973" y="37.389945"/>
</g>
<g fill="rgb(89.399999%, 10.2%, 11%)" fill-opacity="1">
<use xlink:href="#glyph-25-0-34b37a70" x="272.859973" y="37.389945"/>
</g>
<g fill="rgb(89.399999%, 10.2%, 11%)" fill-opacity="1">
<use xlink:href="#glyph-24-1-34b37a70" x="278.419974" y="37.389945"/>
</g>
<g fill="rgb(89.399999%, 10.2%, 11%)" fill-opacity="1">
<use xlink:href="#glyph-25-1-34b37a70" x="289.539973" y="37.389945"/>
</g>
<g fill="rgb(89.399999%, 10.2%, 11%)" fill-opacity="1">
<use xlink:href="#glyph-25-2-34b37a70" x="302.879973" y="37.389945"/>
</g>
<g fill="rgb(89.399999%, 10.2%, 11%)" fill-opacity="1">
<use xlink:href="#glyph-26-0-34b37a70" x="308.439974" y="37.389945"/>
</g>
<g fill="rgb(89.399999%, 10.2%, 11%)" fill-opacity="1">
<use xlink:href="#glyph-24-2-34b37a70" x="313.999975" y="37.389945"/>
</g>
<g fill="rgb(89.399999%, 10.2%, 11%)" fill-opacity="1">
<use xlink:href="#glyph-27-0-34b37a70" x="328.439978" y="37.389945"/>
</g>
<path fill="none" stroke-width="2.5" stroke-linecap="butt" stroke-linejoin="miter" stroke="rgb(89.399999%, 10.2%, 11%)" stroke-opacity="1" stroke-dasharray="7.5 7.5" stroke-miterlimit="2" d="M 199.28125 53.265625 L 240.921875 53.265625 "/>
<g fill="rgb(89.399999%, 10.2%, 11%)" fill-opacity="1">
<use xlink:href="#glyph-28-0-34b37a70" x="261.739973" y="60.554232"/>
</g>
<g fill="rgb(89.399999%, 10.2%, 11%)" fill-opacity="1">
<use xlink:href="#glyph-29-0-34b37a70" x="272.859973" y="60.554232"/>
</g>
<g fill="rgb(89.399999%, 10.2%, 11%)" fill-opacity="1">
<use xlink:href="#glyph-28-1-34b37a70" x="278.419974" y="60.554232"/>
</g>
<g fill="rgb(89.399999%, 10.2%, 11%)" fill-opacity="1">
<use xlink:href="#glyph-29-1-34b37a70" x="289.539973" y="60.554232"/>
</g>
<g fill="rgb(89.399999%, 10.2%, 11%)" fill-opacity="1">
<use xlink:href="#glyph-29-2-34b37a70" x="302.879973" y="60.554232"/>
</g>
<g fill="rgb(89.399999%, 10.2%, 11%)" fill-opacity="1">
<use xlink:href="#glyph-30-0-34b37a70" x="308.439974" y="60.554232"/>
</g>
<g fill="rgb(89.399999%, 10.2%, 11%)" fill-opacity="1">
<use xlink:href="#glyph-28-2-34b37a70" x="313.999975" y="60.554232"/>
</g>
<g fill="rgb(89.399999%, 10.2%, 11%)" fill-opacity="1">
<use xlink:href="#glyph-28-3-34b37a70" x="319.559977" y="60.554232"/>
</g>
<path fill="none" stroke-width="2.5" stroke-linecap="butt" stroke-linejoin="miter" stroke="rgb(21.600001%, 49.399999%, 72.2%)" stroke-opacity="1" stroke-miterlimit="2" d="M 199.28125 76.429688 L 240.921875 76.429688 "/>
<g fill="rgb(21.600001%, 49.399999%, 72.2%)" fill-opacity="1">
<use xlink:href="#glyph-31-0-34b37a70" x="261.739973" y="83.54012"/>
</g>
<g fill="rgb(21.600001%, 49.399999%, 72.2%)" fill-opacity="1">
<use xlink:href="#glyph-32-0-34b37a70" x="272.859973" y="83.54012"/>
</g>
<g fill="rgb(21.600001%, 49.399999%, 72.2%)" fill-opacity="1">
<use xlink:href="#glyph-33-0-34b37a70" x="283.979973" y="83.54012"/>
</g>
<g fill="rgb(21.600001%, 49.399999%, 72.2%)" fill-opacity="1">
<use xlink:href="#glyph-33-1-34b37a70" x="294.536612" y="83.54012"/>
</g>
<g fill="rgb(21.600001%, 49.399999%, 72.2%)" fill-opacity="1">
<use xlink:href="#glyph-32-1-34b37a70" x="302.55419" y="83.54012"/>
</g>
<g fill="rgb(21.600001%, 49.399999%, 72.2%)" fill-opacity="1">
<use xlink:href="#glyph-32-2-34b37a70" x="308.114191" y="83.54012"/>
</g>
<g fill="rgb(21.600001%, 49.399999%, 72.2%)" fill-opacity="1">
<use xlink:href="#glyph-31-1-34b37a70" x="319.23419" y="83.54012"/>
</g>
<g fill="rgb(21.600001%, 49.399999%, 72.2%)" fill-opacity="1">
<use xlink:href="#glyph-31-2-34b37a70" x="332.574187" y="83.54012"/>
</g>
<g fill="rgb(21.600001%, 49.399999%, 72.2%)" fill-opacity="1">
<use xlink:href="#glyph-34-0-34b37a70" x="338.134184" y="83.54012"/>
</g>
<g fill="rgb(21.600001%, 49.399999%, 72.2%)" fill-opacity="1">
<use xlink:href="#glyph-32-3-34b37a70" x="343.694182" y="83.54012"/>
</g>
<g fill="rgb(21.600001%, 49.399999%, 72.2%)" fill-opacity="1">
<use xlink:href="#glyph-34-1-34b37a70" x="358.134184" y="83.54012"/>
</g>
<path fill="none" stroke-width="2.5" stroke-linecap="butt" stroke-linejoin="miter" stroke="rgb(21.600001%, 49.399999%, 72.2%)" stroke-opacity="1" stroke-dasharray="7.5 7.5" stroke-miterlimit="2" d="M 199.28125 99.59375 L 240.921875 99.59375 "/>
<g fill="rgb(21.600001%, 49.399999%, 72.2%)" fill-opacity="1">
<use xlink:href="#glyph-31-0-34b37a70" x="261.739973" y="106.704406"/>
</g>
<g fill="rgb(21.600001%, 49.399999%, 72.2%)" fill-opacity="1">
<use xlink:href="#glyph-32-0-34b37a70" x="272.859973" y="106.704406"/>
</g>
<g fill="rgb(21.600001%, 49.399999%, 72.2%)" fill-opacity="1">
<use xlink:href="#glyph-33-0-34b37a70" x="283.979973" y="106.704406"/>
</g>
<g fill="rgb(21.600001%, 49.399999%, 72.2%)" fill-opacity="1">
<use xlink:href="#glyph-33-1-34b37a70" x="294.536612" y="106.704406"/>
</g>
<g fill="rgb(21.600001%, 49.399999%, 72.2%)" fill-opacity="1">
<use xlink:href="#glyph-32-1-34b37a70" x="302.55419" y="106.704406"/>
</g>
<g fill="rgb(21.600001%, 49.399999%, 72.2%)" fill-opacity="1">
<use xlink:href="#glyph-32-2-34b37a70" x="308.114191" y="106.704406"/>
</g>
<g fill="rgb(21.600001%, 49.399999%, 72.2%)" fill-opacity="1">
<use xlink:href="#glyph-31-1-34b37a70" x="319.23419" y="106.704406"/>
</g>
<g fill="rgb(21.600001%, 49.399999%, 72.2%)" fill-opacity="1">
<use xlink:href="#glyph-31-2-34b37a70" x="332.574187" y="106.704406"/>
</g>
<g fill="rgb(21.600001%, 49.399999%, 72.2%)" fill-opacity="1">
<use xlink:href="#glyph-34-0-34b37a70" x="338.134184" y="106.704406"/>
</g>
<g fill="rgb(21.600001%, 49.399999%, 72.2%)" fill-opacity="1">
<use xlink:href="#glyph-32-4-34b37a70" x="343.694182" y="106.704406"/>
</g>
<g fill="rgb(21.600001%, 49.399999%, 72.2%)" fill-opacity="1">
<use xlink:href="#glyph-35-0-34b37a70" x="349.254179" y="106.704406"/>
</g>
<path fill="none" stroke-width="2.5" stroke-linecap="butt" stroke-linejoin="miter" stroke="rgb(30.199999%, 68.599999%, 28.999999%)" stroke-opacity="1" stroke-miterlimit="2" d="M 199.28125 122.757812 L 240.921875 122.757812 "/>
<g fill="rgb(30.199999%, 68.599999%, 28.999999%)" fill-opacity="1">
<use xlink:href="#glyph-31-3-34b37a70" x="261.739973" y="130.047092"/>
</g>
<g fill="rgb(30.199999%, 68.599999%, 28.999999%)" fill-opacity="1">
<use xlink:href="#glyph-32-5-34b37a70" x="272.859973" y="130.047092"/>
</g>
<g fill="rgb(30.199999%, 68.599999%, 28.999999%)" fill-opacity="1">
<use xlink:href="#glyph-31-3-34b37a70" x="278.419974" y="130.047092"/>
</g>
<g fill="rgb(30.199999%, 68.599999%, 28.999999%)" fill-opacity="1">
<use xlink:href="#glyph-32-6-34b37a70" x="289.539973" y="130.047092"/>
</g>
<g fill="rgb(30.199999%, 68.599999%, 28.999999%)" fill-opacity="1">
<use xlink:href="#glyph-32-1-34b37a70" x="300.659971" y="130.047092"/>
</g>
<g fill="rgb(30.199999%, 68.599999%, 28.999999%)" fill-opacity="1">
<use xlink:href="#glyph-32-2-34b37a70" x="306.219973" y="130.047092"/>
</g>
<g fill="rgb(30.199999%, 68.599999%, 28.999999%)" fill-opacity="1">
<use xlink:href="#glyph-31-1-34b37a70" x="317.339972" y="130.047092"/>
</g>
<g fill="rgb(30.199999%, 68.599999%, 28.999999%)" fill-opacity="1">
<use xlink:href="#glyph-31-2-34b37a70" x="330.679976" y="130.047092"/>
</g>
<g fill="rgb(30.199999%, 68.599999%, 28.999999%)" fill-opacity="1">
<use xlink:href="#glyph-34-0-34b37a70" x="336.239973" y="130.047092"/>
</g>
<g fill="rgb(30.199999%, 68.599999%, 28.999999%)" fill-opacity="1">
<use xlink:href="#glyph-32-3-34b37a70" x="341.799971" y="130.047092"/>
</g>
<g fill="rgb(30.199999%, 68.599999%, 28.999999%)" fill-opacity="1">
<use xlink:href="#glyph-34-1-34b37a70" x="356.239973" y="130.047092"/>
</g>
<path fill="none" stroke-width="2.5" stroke-linecap="butt" stroke-linejoin="miter" stroke="rgb(30.199999%, 68.599999%, 28.999999%)" stroke-opacity="1" stroke-dasharray="7.5 7.5" stroke-miterlimit="2" d="M 199.28125 145.921875 L 240.921875 145.921875 "/>
<g fill="rgb(30.199999%, 68.599999%, 28.999999%)" fill-opacity="1">
<use xlink:href="#glyph-31-3-34b37a70" x="261.739973" y="153.211378"/>
</g>
<g fill="rgb(30.199999%, 68.599999%, 28.999999%)" fill-opacity="1">
<use xlink:href="#glyph-32-5-34b37a70" x="272.859973" y="153.211378"/>
</g>
<g fill="rgb(30.199999%, 68.599999%, 28.999999%)" fill-opacity="1">
<use xlink:href="#glyph-31-3-34b37a70" x="278.419974" y="153.211378"/>
</g>
<g fill="rgb(30.199999%, 68.599999%, 28.999999%)" fill-opacity="1">
<use xlink:href="#glyph-32-6-34b37a70" x="289.539973" y="153.211378"/>
</g>
<g fill="rgb(30.199999%, 68.599999%, 28.999999%)" fill-opacity="1">
<use xlink:href="#glyph-32-1-34b37a70" x="300.659971" y="153.211378"/>
</g>
<g fill="rgb(30.199999%, 68.599999%, 28.999999%)" fill-opacity="1">
<use xlink:href="#glyph-32-2-34b37a70" x="306.219973" y="153.211378"/>
</g>
<g fill="rgb(30.199999%, 68.599999%, 28.999999%)" fill-opacity="1">
<use xlink:href="#glyph-31-1-34b37a70" x="317.339972" y="153.211378"/>
</g>
<g fill="rgb(30.199999%, 68.599999%, 28.999999%)" fill-opacity="1">
<use xlink:href="#glyph-31-2-34b37a70" x="330.679976" y="153.211378"/>
</g>
<g fill="rgb(30.199999%, 68.599999%, 28.999999%)" fill-opacity="1">
<use xlink:href="#glyph-34-0-34b37a70" x="336.239973" y="153.211378"/>
</g>
<g fill="rgb(30.199999%, 68.599999%, 28.999999%)" fill-opacity="1">
<use xlink:href="#glyph-32-4-34b37a70" x="341.799971" y="153.211378"/>
</g>
<g fill="rgb(30.199999%, 68.599999%, 28.999999%)" fill-opacity="1">
<use xlink:href="#glyph-35-0-34b37a70" x="347.359968" y="153.211378"/>
</g>
<path fill="none" stroke-width="2.5" stroke-linecap="butt" stroke-linejoin="miter" stroke="rgb(59.600002%, 30.599999%, 63.9%)" stroke-opacity="1" stroke-miterlimit="2" d="M 199.28125 169.085938 L 240.921875 169.085938 "/>
<g fill="rgb(59.600002%, 30.599999%, 63.9%)" fill-opacity="1">
<use xlink:href="#glyph-36-0-34b37a70" x="261.739973" y="176.375665"/>
</g>
<g fill="rgb(59.600002%, 30.599999%, 63.9%)" fill-opacity="1">
<use xlink:href="#glyph-37-0-34b37a70" x="272.859973" y="176.375665"/>
</g>
<g fill="rgb(59.600002%, 30.599999%, 63.9%)" fill-opacity="1">
<use xlink:href="#glyph-36-1-34b37a70" x="278.419974" y="176.375665"/>
</g>
<g fill="rgb(59.600002%, 30.599999%, 63.9%)" fill-opacity="1">
<use xlink:href="#glyph-37-1-34b37a70" x="289.539973" y="176.375665"/>
</g>
<g fill="rgb(59.600002%, 30.599999%, 63.9%)" fill-opacity="1">
<use xlink:href="#glyph-38-0-34b37a70" x="295.099974" y="176.375665"/>
</g>
<g fill="rgb(59.600002%, 30.599999%, 63.9%)" fill-opacity="1">
<use xlink:href="#glyph-37-2-34b37a70" x="306.219973" y="176.375665"/>
</g>
<g fill="rgb(59.600002%, 30.599999%, 63.9%)" fill-opacity="1">
<use xlink:href="#glyph-36-2-34b37a70" x="319.559973" y="176.375665"/>
</g>
<g fill="rgb(59.600002%, 30.599999%, 63.9%)" fill-opacity="1">
<use xlink:href="#glyph-36-3-34b37a70" x="325.119974" y="176.375665"/>
</g>
<g fill="rgb(59.600002%, 30.599999%, 63.9%)" fill-opacity="1">
<use xlink:href="#glyph-36-4-34b37a70" x="330.679976" y="176.375665"/>
</g>
<g fill="rgb(59.600002%, 30.599999%, 63.9%)" fill-opacity="1">
<use xlink:href="#glyph-36-5-34b37a70" x="345.119978" y="176.375665"/>
</g>
<path fill="none" stroke-width="2.5" stroke-linecap="butt" stroke-linejoin="miter" stroke="rgb(59.600002%, 30.599999%, 63.9%)" stroke-opacity="1" stroke-dasharray="7.5 7.5" stroke-miterlimit="2" d="M 199.28125 192.25 L 240.921875 192.25 "/>
<g fill="rgb(59.600002%, 30.599999%, 63.9%)" fill-opacity="1">
<use xlink:href="#glyph-36-0-34b37a70" x="261.739973" y="199.539951"/>
</g>
<g fill="rgb(59.600002%, 30.599999%, 63.9%)" fill-opacity="1">
<use xlink:href="#glyph-37-0-34b37a70" x="272.859973" y="199.539951"/>
</g>
<g fill="rgb(59.600002%, 30.599999%, 63.9%)" fill-opacity="1">
<use xlink:href="#glyph-36-1-34b37a70" x="278.419974" y="199.539951"/>
</g>
<g fill="rgb(59.600002%, 30.599999%, 63.9%)" fill-opacity="1">
<use xlink:href="#glyph-37-1-34b37a70" x="289.539973" y="199.539951"/>
</g>
<g fill="rgb(59.600002%, 30.599999%, 63.9%)" fill-opacity="1">
<use xlink:href="#glyph-38-0-34b37a70" x="295.099974" y="199.539951"/>
</g>
<g fill="rgb(59.600002%, 30.599999%, 63.9%)" fill-opacity="1">
<use xlink:href="#glyph-37-2-34b37a70" x="306.219973" y="199.539951"/>
</g>
<g fill="rgb(59.600002%, 30.599999%, 63.9%)" fill-opacity="1">
<use xlink:href="#glyph-36-2-34b37a70" x="319.559973" y="199.539951"/>
</g>
<g fill="rgb(59.600002%, 30.599999%, 63.9%)" fill-opacity="1">
<use xlink:href="#glyph-36-3-34b37a70" x="325.119974" y="199.539951"/>
</g>
<g fill="rgb(59.600002%, 30.599999%, 63.9%)" fill-opacity="1">
<use xlink:href="#glyph-36-6-34b37a70" x="330.679976" y="199.539951"/>
</g>
<g fill="rgb(59.600002%, 30.599999%, 63.9%)" fill-opacity="1">
<use xlink:href="#glyph-39-0-34b37a70" x="336.239973" y="199.539951"/>
</g>
<path fill="none" stroke-width="1" stroke-linecap="butt" stroke-linejoin="miter" stroke="rgb(0%, 0%, 0%)" stroke-opacity="1" stroke-miterlimit="1.154701" d="M 116 721.5 L 116 726.5 "/>
<path fill="none" stroke-width="1" stroke-linecap="butt" stroke-linejoin="miter" stroke="rgb(0%, 0%, 0%)" stroke-opacity="1" stroke-miterlimit="1.154701" d="M 289.5 721.5 L 289.5 726.5 "/>
<path fill="none" stroke-width="1" stroke-linecap="butt" stroke-linejoin="miter" stroke="rgb(0%, 0%, 0%)" stroke-opacity="1" stroke-miterlimit="1.154701" d="M 463 721.5 L 463 726.5 "/>
<path fill="none" stroke-width="1" stroke-linecap="butt" stroke-linejoin="miter" stroke="rgb(0%, 0%, 0%)" stroke-opacity="1" stroke-miterlimit="1.154701" d="M 636.5 721.5 L 636.5 726.5 "/>
<path fill="none" stroke-width="1" stroke-linecap="butt" stroke-linejoin="miter" stroke="rgb(0%, 0%, 0%)" stroke-opacity="1" stroke-miterlimit="1.154701" d="M 810 721.5 L 810 726.5 "/>
<path fill="none" stroke-width="1" stroke-linecap="butt" stroke-linejoin="miter" stroke="rgb(0%, 0%, 0%)" stroke-opacity="1" stroke-miterlimit="1.154701" d="M 983.5 721.5 L 983.5 726.5 "/>
<path fill="none" stroke-width="1" stroke-linecap="butt" stroke-linejoin="miter" stroke="rgb(0%, 0%, 0%)" stroke-opacity="1" stroke-miterlimit="1.154701" d="M 1157 721.5 L 1157 726.5 "/>
<path fill="none" stroke-width="1" stroke-linecap="butt" stroke-linejoin="miter" stroke="rgb(0%, 0%, 0%)" stroke-opacity="1" stroke-miterlimit="1.154701" d="M 244.453125 721.5 L 244.453125 724.5 "/>
<path fill="none" stroke-width="1" stroke-linecap="butt" stroke-linejoin="miter" stroke="rgb(0%, 0%, 0%)" stroke-opacity="1" stroke-miterlimit="1.154701" d="M 417.953125 721.5 L 417.953125 724.5 "/>
<path fill="none" stroke-width="1" stroke-linecap="butt" stroke-linejoin="miter" stroke="rgb(0%, 0%, 0%)" stroke-opacity="1" stroke-miterlimit="1.154701" d="M 591.453125 721.5 L 591.453125 724.5 "/>
<path fill="none" stroke-width="1" stroke-linecap="butt" stroke-linejoin="miter" stroke="rgb(0%, 0%, 0%)" stroke-opacity="1" stroke-miterlimit="1.154701" d="M 764.953125 721.5 L 764.953125 724.5 "/>
<path fill="none" stroke-width="1" stroke-linecap="butt" stroke-linejoin="miter" stroke="rgb(0%, 0%, 0%)" stroke-opacity="1" stroke-miterlimit="1.154701" d="M 938.453125 721.5 L 938.453125 724.5 "/>
<path fill="none" stroke-width="1" stroke-linecap="butt" stroke-linejoin="miter" stroke="rgb(0%, 0%, 0%)" stroke-opacity="1" stroke-miterlimit="1.154701" d="M 1111.953125 721.5 L 1111.953125 724.5 "/>
<path fill="none" stroke-width="1" stroke-linecap="butt" stroke-linejoin="miter" stroke="rgb(0%, 0%, 0%)" stroke-opacity="1" stroke-miterlimit="1.154701" d="M 115.5 575.980469 L 110.5 575.980469 "/>
<path fill="none" stroke-width="1" stroke-linecap="butt" stroke-linejoin="miter" stroke="rgb(0%, 0%, 0%)" stroke-opacity="1" stroke-miterlimit="1.154701" d="M 115.5 368.5 L 110.5 368.5 "/>
<path fill="none" stroke-width="1" stroke-linecap="butt" stroke-linejoin="miter" stroke="rgb(0%, 0%, 0%)" stroke-opacity="1" stroke-miterlimit="1.154701" d="M 115.5 161.019531 L 110.5 161.019531 "/>
<path fill="none" stroke-width="1" stroke-linecap="butt" stroke-linejoin="miter" stroke="rgb(0%, 0%, 0%)" stroke-opacity="1" stroke-miterlimit="1.154701" d="M 115.5 629.847656 L 112.5 629.847656 "/>
<path fill="none" stroke-width="1" stroke-linecap="butt" stroke-linejoin="miter" stroke="rgb(0%, 0%, 0%)" stroke-opacity="1" stroke-miterlimit="1.154701" d="M 115.5 422.371094 L 112.5 422.371094 "/>
<path fill="none" stroke-width="1" stroke-linecap="butt" stroke-linejoin="miter" stroke="rgb(0%, 0%, 0%)" stroke-opacity="1" stroke-miterlimit="1.154701" d="M 115.5 214.890625 L 112.5 214.890625 "/>
<path fill="none" stroke-width="1" stroke-linecap="butt" stroke-linejoin="miter" stroke="rgb(0%, 0%, 0%)" stroke-opacity="1" stroke-miterlimit="1.154701" d="M 115.5 721 L 1157.5 721 "/>
<path fill="none" stroke-width="1" stroke-linecap="butt" stroke-linejoin="miter" stroke="rgb(0%, 0%, 0%)" stroke-opacity="1" stroke-miterlimit="1.154701" d="M 116 721.5 L 116 15.5 "/>
<path fill="none" stroke-width="1" stroke-linecap="butt" stroke-linejoin="miter" stroke="rgb(0%, 0%, 0%)" stroke-opacity="1" stroke-miterlimit="1.154701" d="M 115.5 16 L 1157.5 16 "/>
<path fill="none" stroke-width="1" stroke-linecap="butt" stroke-linejoin="miter" stroke="rgb(0%, 0%, 0%)" stroke-opacity="1" stroke-miterlimit="1.154701" d="M 1157 721.5 L 1157 15.5 "/>
</svg>
